G04 #@! TF.GenerationSoftware,KiCad,Pcbnew,5.0.0-rc3-6a2723a~65~ubuntu16.04.1*
G04 #@! TF.CreationDate,2018-11-29T22:42:40+06:00*
G04 #@! TF.ProjectId,Ki5,4B69352E6B696361645F706362000000,rev?*
G04 #@! TF.SameCoordinates,Original*
G04 #@! TF.FileFunction,Paste,Bot*
G04 #@! TF.FilePolarity,Positive*
%FSLAX46Y46*%
G04 Gerber Fmt 4.6, Leading zero omitted, Abs format (unit mm)*
G04 Created by KiCad (PCBNEW 5.0.0-rc3-6a2723a~65~ubuntu16.04.1) date Thu Nov 29 22:42:40 2018*
%MOMM*%
%LPD*%
G01*
G04 APERTURE LIST*
%ADD10C,0.100000*%
%ADD11C,0.590000*%
%ADD12R,0.575000X0.650000*%
%ADD13R,5.200000X5.200000*%
%ADD14R,0.200000X0.800000*%
%ADD15R,0.800000X0.200000*%
%ADD16C,1.270000*%
%ADD17C,0.640000*%
%ADD18C,0.420000*%
%ADD19R,0.650000X0.575000*%
%ADD20R,0.820000X1.000000*%
%ADD21R,1.220000X1.800000*%
%ADD22R,1.800000X1.220000*%
%ADD23R,1.000000X0.820000*%
%ADD24C,1.400000*%
%ADD25R,0.650000X0.400000*%
%ADD26R,0.400000X0.650000*%
%ADD27R,0.900000X0.800000*%
%ADD28R,0.320000X0.500000*%
%ADD29R,0.400000X0.500000*%
%ADD30R,0.300000X0.500000*%
%ADD31R,1.500000X0.600000*%
%ADD32R,0.900000X1.000000*%
%ADD33R,1.400000X1.200000*%
G04 APERTURE END LIST*
D10*
G04 #@! TO.C,C284*
G36*
X76466958Y-101630710D02*
X76481276Y-101632834D01*
X76495317Y-101636351D01*
X76508946Y-101641228D01*
X76522031Y-101647417D01*
X76534447Y-101654858D01*
X76546073Y-101663481D01*
X76556798Y-101673202D01*
X76566519Y-101683927D01*
X76575142Y-101695553D01*
X76582583Y-101707969D01*
X76588772Y-101721054D01*
X76593649Y-101734683D01*
X76597166Y-101748724D01*
X76599290Y-101763042D01*
X76600000Y-101777500D01*
X76600000Y-102122500D01*
X76599290Y-102136958D01*
X76597166Y-102151276D01*
X76593649Y-102165317D01*
X76588772Y-102178946D01*
X76582583Y-102192031D01*
X76575142Y-102204447D01*
X76566519Y-102216073D01*
X76556798Y-102226798D01*
X76546073Y-102236519D01*
X76534447Y-102245142D01*
X76522031Y-102252583D01*
X76508946Y-102258772D01*
X76495317Y-102263649D01*
X76481276Y-102267166D01*
X76466958Y-102269290D01*
X76452500Y-102270000D01*
X76157500Y-102270000D01*
X76143042Y-102269290D01*
X76128724Y-102267166D01*
X76114683Y-102263649D01*
X76101054Y-102258772D01*
X76087969Y-102252583D01*
X76075553Y-102245142D01*
X76063927Y-102236519D01*
X76053202Y-102226798D01*
X76043481Y-102216073D01*
X76034858Y-102204447D01*
X76027417Y-102192031D01*
X76021228Y-102178946D01*
X76016351Y-102165317D01*
X76012834Y-102151276D01*
X76010710Y-102136958D01*
X76010000Y-102122500D01*
X76010000Y-101777500D01*
X76010710Y-101763042D01*
X76012834Y-101748724D01*
X76016351Y-101734683D01*
X76021228Y-101721054D01*
X76027417Y-101707969D01*
X76034858Y-101695553D01*
X76043481Y-101683927D01*
X76053202Y-101673202D01*
X76063927Y-101663481D01*
X76075553Y-101654858D01*
X76087969Y-101647417D01*
X76101054Y-101641228D01*
X76114683Y-101636351D01*
X76128724Y-101632834D01*
X76143042Y-101630710D01*
X76157500Y-101630000D01*
X76452500Y-101630000D01*
X76466958Y-101630710D01*
X76466958Y-101630710D01*
G37*
D11*
X76305000Y-101950000D03*
D10*
G36*
X75496958Y-101630710D02*
X75511276Y-101632834D01*
X75525317Y-101636351D01*
X75538946Y-101641228D01*
X75552031Y-101647417D01*
X75564447Y-101654858D01*
X75576073Y-101663481D01*
X75586798Y-101673202D01*
X75596519Y-101683927D01*
X75605142Y-101695553D01*
X75612583Y-101707969D01*
X75618772Y-101721054D01*
X75623649Y-101734683D01*
X75627166Y-101748724D01*
X75629290Y-101763042D01*
X75630000Y-101777500D01*
X75630000Y-102122500D01*
X75629290Y-102136958D01*
X75627166Y-102151276D01*
X75623649Y-102165317D01*
X75618772Y-102178946D01*
X75612583Y-102192031D01*
X75605142Y-102204447D01*
X75596519Y-102216073D01*
X75586798Y-102226798D01*
X75576073Y-102236519D01*
X75564447Y-102245142D01*
X75552031Y-102252583D01*
X75538946Y-102258772D01*
X75525317Y-102263649D01*
X75511276Y-102267166D01*
X75496958Y-102269290D01*
X75482500Y-102270000D01*
X75187500Y-102270000D01*
X75173042Y-102269290D01*
X75158724Y-102267166D01*
X75144683Y-102263649D01*
X75131054Y-102258772D01*
X75117969Y-102252583D01*
X75105553Y-102245142D01*
X75093927Y-102236519D01*
X75083202Y-102226798D01*
X75073481Y-102216073D01*
X75064858Y-102204447D01*
X75057417Y-102192031D01*
X75051228Y-102178946D01*
X75046351Y-102165317D01*
X75042834Y-102151276D01*
X75040710Y-102136958D01*
X75040000Y-102122500D01*
X75040000Y-101777500D01*
X75040710Y-101763042D01*
X75042834Y-101748724D01*
X75046351Y-101734683D01*
X75051228Y-101721054D01*
X75057417Y-101707969D01*
X75064858Y-101695553D01*
X75073481Y-101683927D01*
X75083202Y-101673202D01*
X75093927Y-101663481D01*
X75105553Y-101654858D01*
X75117969Y-101647417D01*
X75131054Y-101641228D01*
X75144683Y-101636351D01*
X75158724Y-101632834D01*
X75173042Y-101630710D01*
X75187500Y-101630000D01*
X75482500Y-101630000D01*
X75496958Y-101630710D01*
X75496958Y-101630710D01*
G37*
D11*
X75335000Y-101950000D03*
G04 #@! TD*
D12*
G04 #@! TO.C,C261*
X72332700Y-101972800D03*
X73107700Y-101972800D03*
G04 #@! TD*
D13*
G04 #@! TO.C,IC1*
X84636400Y-54318200D03*
D14*
X87836400Y-50418200D03*
X87436400Y-50418200D03*
X87036400Y-50418200D03*
X86636400Y-50418200D03*
X86236400Y-50418200D03*
X85836400Y-50418200D03*
X85436400Y-50418200D03*
X85036400Y-50418200D03*
X84636400Y-50418200D03*
X84236400Y-50418200D03*
X83836400Y-50418200D03*
X83436400Y-50418200D03*
X83036400Y-50418200D03*
X82636400Y-50418200D03*
X82236400Y-50418200D03*
X81836400Y-50418200D03*
X81436400Y-50418200D03*
D15*
X80736400Y-51118200D03*
X80736400Y-51518200D03*
X80736400Y-51918200D03*
X80736400Y-52318200D03*
X80736400Y-52718200D03*
X80736400Y-53118200D03*
X80736400Y-53518200D03*
X80736400Y-53918200D03*
X80736400Y-54318200D03*
X80736400Y-54718200D03*
X80736400Y-55118200D03*
X80736400Y-55518200D03*
X80736400Y-55918200D03*
X80736400Y-56318200D03*
X80736400Y-56718200D03*
X80736400Y-57118200D03*
X80736400Y-57518200D03*
D14*
X81436400Y-58218200D03*
X81836400Y-58218200D03*
X82236400Y-58218200D03*
X82636400Y-58218200D03*
X83036400Y-58218200D03*
X83436400Y-58218200D03*
X83836400Y-58218200D03*
X84236400Y-58218200D03*
X84636400Y-58218200D03*
X85036400Y-58218200D03*
X85436400Y-58218200D03*
X85836400Y-58218200D03*
X86236400Y-58218200D03*
X86636400Y-58218200D03*
X87036400Y-58218200D03*
X87436400Y-58218200D03*
X87836400Y-58218200D03*
D15*
X88536400Y-57518200D03*
X88536400Y-57118200D03*
X88536400Y-56718200D03*
X88536400Y-56318200D03*
X88536400Y-55918200D03*
X88536400Y-55518200D03*
X88536400Y-55118200D03*
X88536400Y-54718200D03*
X88536400Y-54318200D03*
X88536400Y-53918200D03*
X88536400Y-53518200D03*
X88536400Y-53118200D03*
X88536400Y-52718200D03*
X88536400Y-52318200D03*
X88536400Y-51918200D03*
X88536400Y-51518200D03*
X88536400Y-51118200D03*
G04 #@! TD*
D16*
G04 #@! TO.C,J9*
X107652600Y-141315000D03*
X110702600Y-86935000D03*
D17*
X104987600Y-138890000D03*
X104987600Y-137620000D03*
X104987600Y-136350000D03*
X104987600Y-135080000D03*
X104987600Y-133810000D03*
X104987600Y-132540000D03*
X104987600Y-131270000D03*
X104987600Y-130000000D03*
X104987600Y-128730000D03*
X104987600Y-127460000D03*
X104987600Y-126190000D03*
X104987600Y-124920000D03*
X104987600Y-123650000D03*
X104987600Y-122380000D03*
X104987600Y-121110000D03*
X104987600Y-119840000D03*
X104987600Y-118570000D03*
X104987600Y-117300000D03*
X104987600Y-116030000D03*
X104987600Y-114765000D03*
X104987600Y-113485000D03*
X104987600Y-112220000D03*
X104987600Y-110950000D03*
X104987600Y-109680000D03*
X104987600Y-108410000D03*
X104987600Y-107140000D03*
X104987600Y-105870000D03*
X104987600Y-104600000D03*
X104987600Y-103330000D03*
X104987600Y-102060000D03*
X104987600Y-100790000D03*
X104987600Y-99520000D03*
X104987600Y-98250000D03*
X104987600Y-96980000D03*
X104987600Y-95710000D03*
X104987600Y-94440000D03*
X104987600Y-93170000D03*
X104987600Y-91900000D03*
X104987600Y-90630000D03*
X104987600Y-89360000D03*
X106257600Y-138890000D03*
X106257600Y-137620000D03*
X106257600Y-136350000D03*
X106257600Y-135080000D03*
X106257600Y-133810000D03*
X106257600Y-132540000D03*
X106257600Y-131270000D03*
X106257600Y-130000000D03*
X106257600Y-128730000D03*
X106257600Y-127460000D03*
X106257600Y-126190000D03*
X106257600Y-124920000D03*
X106257600Y-123650000D03*
X106257600Y-122380000D03*
X106257600Y-121110000D03*
X106257600Y-119840000D03*
X106257600Y-118570000D03*
X106257600Y-117300000D03*
X106257600Y-116030000D03*
X106257600Y-114765000D03*
X106257600Y-113485000D03*
X106257600Y-112220000D03*
X106257600Y-110950000D03*
X106257600Y-109680000D03*
X106257600Y-108410000D03*
X106257600Y-107140000D03*
X106257600Y-105870000D03*
X106257600Y-104600000D03*
X106257600Y-103330000D03*
X106257600Y-102060000D03*
X106257600Y-100790000D03*
X106257600Y-99520000D03*
X106257600Y-98250000D03*
X106257600Y-96980000D03*
X106257600Y-95710000D03*
X106257600Y-94440000D03*
X106257600Y-93170000D03*
X106257600Y-91900000D03*
X106257600Y-90630000D03*
X106257600Y-89360000D03*
X110062600Y-138890000D03*
X110062600Y-137620000D03*
X110062600Y-136350000D03*
X110062600Y-135080000D03*
X110062600Y-133810000D03*
X110062600Y-132540000D03*
X110062600Y-131270000D03*
X110062600Y-130000000D03*
X110062600Y-128730000D03*
X110062600Y-127460000D03*
X110062600Y-126190000D03*
X110062600Y-124920000D03*
X110062600Y-123650000D03*
X110062600Y-122380000D03*
X110062600Y-121110000D03*
X110062600Y-119840000D03*
X110062600Y-118570000D03*
X110062600Y-117300000D03*
X110062600Y-116030000D03*
X110062600Y-114765000D03*
X110062600Y-113485000D03*
X110062600Y-112220000D03*
X110062600Y-110950000D03*
X110062600Y-109680000D03*
X110062600Y-108410000D03*
X110062600Y-107140000D03*
X110062600Y-105870000D03*
X110062600Y-104600000D03*
X110062600Y-103330000D03*
X110062600Y-102060000D03*
X110062600Y-100790000D03*
X110062600Y-99520000D03*
X110062600Y-98250000D03*
X110062600Y-96980000D03*
X110062600Y-95710000D03*
X110062600Y-94440000D03*
X110062600Y-93170000D03*
X110062600Y-91900000D03*
X110062600Y-90630000D03*
X110062600Y-89360000D03*
X111342600Y-138890000D03*
X111342600Y-137620000D03*
X111342600Y-136350000D03*
X111342600Y-135080000D03*
X111342600Y-133810000D03*
X111342600Y-132540000D03*
X111342600Y-131270000D03*
X111342600Y-130000000D03*
X111342600Y-128730000D03*
X111342600Y-127460000D03*
X111342600Y-126190000D03*
X111342600Y-124920000D03*
X111342600Y-123650000D03*
X111342600Y-122380000D03*
X111342600Y-121110000D03*
X111342600Y-119840000D03*
X111342600Y-118570000D03*
X111342600Y-117300000D03*
X111342600Y-116030000D03*
X111342600Y-114765000D03*
X111342600Y-113485000D03*
X111342600Y-112220000D03*
X111342600Y-110950000D03*
X111342600Y-109680000D03*
X111342600Y-108410000D03*
X111342600Y-107140000D03*
X111342600Y-105870000D03*
X111342600Y-104600000D03*
X111342600Y-103330000D03*
X111342600Y-102060000D03*
X111342600Y-100790000D03*
X111342600Y-99520000D03*
X111342600Y-98250000D03*
X111342600Y-96980000D03*
X111342600Y-95710000D03*
X111342600Y-94440000D03*
X111342600Y-93170000D03*
X111342600Y-91900000D03*
X111342600Y-90630000D03*
X111342600Y-89360000D03*
X116417600Y-138890000D03*
X116417600Y-137620000D03*
X116417600Y-136350000D03*
X116417600Y-135080000D03*
X116417600Y-133810000D03*
X116417600Y-132540000D03*
X116417600Y-131270000D03*
X116417600Y-130000000D03*
X116417600Y-128730000D03*
X116417600Y-127460000D03*
X116417600Y-126190000D03*
X116417600Y-124920000D03*
X116417600Y-123650000D03*
X116417600Y-122380000D03*
X116417600Y-121110000D03*
X116417600Y-119840000D03*
X116417600Y-118570000D03*
X116417600Y-117300000D03*
X116417600Y-116030000D03*
X116417600Y-114765000D03*
X116417600Y-113485000D03*
X116417600Y-112220000D03*
X116417600Y-110950000D03*
X116417600Y-109680000D03*
X116417600Y-108410000D03*
X116417600Y-107140000D03*
X116417600Y-105870000D03*
X116417600Y-104600000D03*
X116417600Y-103330000D03*
X116417600Y-102060000D03*
X116417600Y-100790000D03*
X116417600Y-99520000D03*
X116417600Y-98250000D03*
X116417600Y-96980000D03*
X116417600Y-95710000D03*
X116417600Y-94440000D03*
X116417600Y-93170000D03*
X116417600Y-91900000D03*
X116417600Y-90630000D03*
X116417600Y-89360000D03*
X115147600Y-138890000D03*
X115147600Y-137620000D03*
X115147600Y-136350000D03*
X115147600Y-135080000D03*
X115147600Y-133810000D03*
X115147600Y-132540000D03*
X115147600Y-131270000D03*
X115147600Y-130000000D03*
X115147600Y-128730000D03*
X115147600Y-127460000D03*
X115147600Y-126190000D03*
X115147600Y-124920000D03*
X115147600Y-123650000D03*
X115147600Y-122380000D03*
X115147600Y-121110000D03*
X115147600Y-119840000D03*
X115147600Y-118570000D03*
X115147600Y-117300000D03*
X115147600Y-116030000D03*
X115147600Y-114765000D03*
X115147600Y-113485000D03*
X115147600Y-112220000D03*
X115147600Y-110950000D03*
X115147600Y-109680000D03*
X115147600Y-108410000D03*
X115147600Y-107140000D03*
X115147600Y-105870000D03*
X115147600Y-104600000D03*
X115147600Y-103330000D03*
X115147600Y-102060000D03*
X115147600Y-100790000D03*
X115147600Y-99520000D03*
X115147600Y-98250000D03*
X115147600Y-96980000D03*
X115147600Y-95710000D03*
X115147600Y-94440000D03*
X115147600Y-93170000D03*
X115147600Y-91900000D03*
X115147600Y-90630000D03*
X115147600Y-89360000D03*
X108797600Y-89360000D03*
X108797600Y-90630000D03*
X108797600Y-91900000D03*
X108797600Y-93170000D03*
X108797600Y-94440000D03*
X108797600Y-95710000D03*
X108797600Y-96980000D03*
X108797600Y-98250000D03*
X108797600Y-99520000D03*
X108797600Y-100790000D03*
X108797600Y-102060000D03*
X108797600Y-103330000D03*
X108797600Y-104600000D03*
X108797600Y-105870000D03*
X108797600Y-107140000D03*
X108797600Y-108410000D03*
X108797600Y-109680000D03*
X108797600Y-110950000D03*
X108797600Y-112220000D03*
X108797600Y-113485000D03*
X108797600Y-138890000D03*
X108797600Y-137620000D03*
X108797600Y-136350000D03*
X108797600Y-135080000D03*
X108797600Y-133810000D03*
X108797600Y-132540000D03*
X108797600Y-131270000D03*
X108797600Y-130000000D03*
X108797600Y-128730000D03*
X108797600Y-127460000D03*
X108797600Y-126190000D03*
X108797600Y-124920000D03*
X108797600Y-123650000D03*
X108797600Y-122380000D03*
X108797600Y-121110000D03*
X108797600Y-119840000D03*
X108797600Y-118570000D03*
X108797600Y-117300000D03*
X108797600Y-116030000D03*
X108797600Y-114765000D03*
X107527600Y-114765000D03*
X107527600Y-116030000D03*
X107527600Y-117300000D03*
X107527600Y-118570000D03*
X107527600Y-119840000D03*
X107527600Y-121110000D03*
X107527600Y-122380000D03*
X107527600Y-123650000D03*
X107527600Y-124920000D03*
X107527600Y-126190000D03*
X107527600Y-127460000D03*
X107527600Y-128730000D03*
X107527600Y-130000000D03*
X107527600Y-131270000D03*
X107527600Y-132540000D03*
X107527600Y-133810000D03*
X107527600Y-135080000D03*
X107527600Y-136350000D03*
X107527600Y-137620000D03*
X107527600Y-138890000D03*
X107527600Y-113485000D03*
X107527600Y-112220000D03*
X107527600Y-110950000D03*
X107527600Y-109680000D03*
X107527600Y-108410000D03*
X107527600Y-107140000D03*
X107527600Y-105870000D03*
X107527600Y-104600000D03*
X107527600Y-103330000D03*
X107527600Y-102060000D03*
X107527600Y-100790000D03*
X107527600Y-99520000D03*
X107527600Y-98250000D03*
X107527600Y-96980000D03*
X107527600Y-95710000D03*
X107527600Y-94440000D03*
X107527600Y-93170000D03*
X107527600Y-91900000D03*
X107527600Y-90630000D03*
X107527600Y-89360000D03*
X112607600Y-89360000D03*
X112607600Y-90630000D03*
X112607600Y-91900000D03*
X112607600Y-93170000D03*
X112607600Y-94440000D03*
X112607600Y-95710000D03*
X112607600Y-96980000D03*
X112607600Y-98250000D03*
X112607600Y-99520000D03*
X112607600Y-100790000D03*
X112607600Y-102060000D03*
X112607600Y-103330000D03*
X112607600Y-104600000D03*
X112607600Y-105870000D03*
X112607600Y-107140000D03*
X112607600Y-108410000D03*
X112607600Y-109680000D03*
X112607600Y-110950000D03*
X112607600Y-112220000D03*
X112607600Y-113485000D03*
X112607600Y-138890000D03*
X112607600Y-137620000D03*
X112607600Y-136350000D03*
X112607600Y-135080000D03*
X112607600Y-133810000D03*
X112607600Y-132540000D03*
X112607600Y-131270000D03*
X112607600Y-130000000D03*
X112607600Y-128730000D03*
X112607600Y-127460000D03*
X112607600Y-126190000D03*
X112607600Y-124920000D03*
X112607600Y-123650000D03*
X112607600Y-122380000D03*
X112607600Y-121110000D03*
X112607600Y-119840000D03*
X112607600Y-118570000D03*
X112607600Y-117300000D03*
X112607600Y-116030000D03*
X112607600Y-114765000D03*
X113877600Y-114765000D03*
X113877600Y-116030000D03*
X113877600Y-117300000D03*
X113877600Y-118570000D03*
X113877600Y-119840000D03*
X113877600Y-121110000D03*
X113877600Y-122380000D03*
X113877600Y-123650000D03*
X113877600Y-124920000D03*
X113877600Y-126190000D03*
X113877600Y-127460000D03*
X113877600Y-128730000D03*
X113877600Y-130000000D03*
X113877600Y-131270000D03*
X113877600Y-132540000D03*
X113877600Y-133810000D03*
X113877600Y-135080000D03*
X113877600Y-136350000D03*
X113877600Y-137620000D03*
X113877600Y-138890000D03*
X113877600Y-113485000D03*
X113877600Y-112220000D03*
X113877600Y-110950000D03*
X113877600Y-109680000D03*
X113877600Y-108410000D03*
X113877600Y-107140000D03*
X113877600Y-105870000D03*
X113877600Y-104600000D03*
X113877600Y-103330000D03*
X113877600Y-102060000D03*
X113877600Y-100790000D03*
X113877600Y-99520000D03*
X113877600Y-98250000D03*
X113877600Y-96980000D03*
X113877600Y-95710000D03*
X113877600Y-94440000D03*
X113877600Y-93170000D03*
X113877600Y-91900000D03*
X113877600Y-90630000D03*
X113877600Y-89360000D03*
G04 #@! TD*
D18*
G04 #@! TO.C,U8*
X86525000Y-124375000D03*
X87325000Y-124375000D03*
X79325000Y-119575000D03*
X79325000Y-120375000D03*
X79325000Y-121175000D03*
X79325000Y-124375000D03*
X79325000Y-125175000D03*
X79325000Y-125975000D03*
X80125000Y-119575000D03*
X80125000Y-120375000D03*
X80125000Y-121175000D03*
X80125000Y-124375000D03*
X80125000Y-125175000D03*
X80125000Y-125975000D03*
X80925000Y-119575000D03*
X80925000Y-120375000D03*
X80925000Y-121175000D03*
X80925000Y-124375000D03*
X80925000Y-125175000D03*
X80925000Y-125975000D03*
X81725000Y-119575000D03*
X81725000Y-120375000D03*
X81725000Y-121175000D03*
X81725000Y-124375000D03*
X81725000Y-125175000D03*
X81725000Y-125975000D03*
X82525000Y-119575000D03*
X82525000Y-120375000D03*
X82525000Y-121175000D03*
X82525000Y-124375000D03*
X82525000Y-125175000D03*
X82525000Y-125975000D03*
X83325000Y-119575000D03*
X83325000Y-120375000D03*
X83325000Y-121175000D03*
X83325000Y-124375000D03*
X83325000Y-125175000D03*
X83325000Y-125975000D03*
X84125000Y-119575000D03*
X84125000Y-120375000D03*
X84125000Y-121175000D03*
X84125000Y-124375000D03*
X84125000Y-125175000D03*
X84125000Y-125975000D03*
X84925000Y-119575000D03*
X84925000Y-120375000D03*
X84925000Y-121175000D03*
X84925000Y-124375000D03*
X84925000Y-125175000D03*
X84925000Y-125975000D03*
X85725000Y-119575000D03*
X85725000Y-120375000D03*
X85725000Y-121175000D03*
X85725000Y-124375000D03*
X85725000Y-125175000D03*
X85725000Y-125975000D03*
X86525000Y-119575000D03*
X86525000Y-120375000D03*
X86525000Y-121175000D03*
X86525000Y-125175000D03*
X86525000Y-125975000D03*
X87325000Y-119575000D03*
X87325000Y-120375000D03*
X87325000Y-121175000D03*
X87325000Y-125175000D03*
X87325000Y-125975000D03*
X88125000Y-119575000D03*
X88125000Y-120375000D03*
X88125000Y-121175000D03*
X88125000Y-124375000D03*
X88125000Y-125175000D03*
X88125000Y-125975000D03*
X88925000Y-119575000D03*
X88925000Y-120375000D03*
X88925000Y-121175000D03*
X88925000Y-124375000D03*
X88925000Y-125175000D03*
X88925000Y-125975000D03*
G04 #@! TD*
G04 #@! TO.C,U5*
X66125000Y-121175000D03*
X65325000Y-121175000D03*
X73325000Y-125975000D03*
X73325000Y-125175000D03*
X73325000Y-124375000D03*
X73325000Y-121175000D03*
X73325000Y-120375000D03*
X73325000Y-119575000D03*
X72525000Y-125975000D03*
X72525000Y-125175000D03*
X72525000Y-124375000D03*
X72525000Y-121175000D03*
X72525000Y-120375000D03*
X72525000Y-119575000D03*
X71725000Y-125975000D03*
X71725000Y-125175000D03*
X71725000Y-124375000D03*
X71725000Y-121175000D03*
X71725000Y-120375000D03*
X71725000Y-119575000D03*
X70925000Y-125975000D03*
X70925000Y-125175000D03*
X70925000Y-124375000D03*
X70925000Y-121175000D03*
X70925000Y-120375000D03*
X70925000Y-119575000D03*
X70125000Y-125975000D03*
X70125000Y-125175000D03*
X70125000Y-124375000D03*
X70125000Y-121175000D03*
X70125000Y-120375000D03*
X70125000Y-119575000D03*
X69325000Y-125975000D03*
X69325000Y-125175000D03*
X69325000Y-124375000D03*
X69325000Y-121175000D03*
X69325000Y-120375000D03*
X69325000Y-119575000D03*
X68525000Y-125975000D03*
X68525000Y-125175000D03*
X68525000Y-124375000D03*
X68525000Y-121175000D03*
X68525000Y-120375000D03*
X68525000Y-119575000D03*
X67725000Y-125975000D03*
X67725000Y-125175000D03*
X67725000Y-124375000D03*
X67725000Y-121175000D03*
X67725000Y-120375000D03*
X67725000Y-119575000D03*
X66925000Y-125975000D03*
X66925000Y-125175000D03*
X66925000Y-124375000D03*
X66925000Y-121175000D03*
X66925000Y-120375000D03*
X66925000Y-119575000D03*
X66125000Y-125975000D03*
X66125000Y-125175000D03*
X66125000Y-124375000D03*
X66125000Y-120375000D03*
X66125000Y-119575000D03*
X65325000Y-125975000D03*
X65325000Y-125175000D03*
X65325000Y-124375000D03*
X65325000Y-120375000D03*
X65325000Y-119575000D03*
X64525000Y-125975000D03*
X64525000Y-125175000D03*
X64525000Y-124375000D03*
X64525000Y-121175000D03*
X64525000Y-120375000D03*
X64525000Y-119575000D03*
X63725000Y-125975000D03*
X63725000Y-125175000D03*
X63725000Y-124375000D03*
X63725000Y-121175000D03*
X63725000Y-120375000D03*
X63725000Y-119575000D03*
G04 #@! TD*
G04 #@! TO.C,U6*
X86525000Y-112950000D03*
X87325000Y-112950000D03*
X79325000Y-108150000D03*
X79325000Y-108950000D03*
X79325000Y-109750000D03*
X79325000Y-112950000D03*
X79325000Y-113750000D03*
X79325000Y-114550000D03*
X80125000Y-108150000D03*
X80125000Y-108950000D03*
X80125000Y-109750000D03*
X80125000Y-112950000D03*
X80125000Y-113750000D03*
X80125000Y-114550000D03*
X80925000Y-108150000D03*
X80925000Y-108950000D03*
X80925000Y-109750000D03*
X80925000Y-112950000D03*
X80925000Y-113750000D03*
X80925000Y-114550000D03*
X81725000Y-108150000D03*
X81725000Y-108950000D03*
X81725000Y-109750000D03*
X81725000Y-112950000D03*
X81725000Y-113750000D03*
X81725000Y-114550000D03*
X82525000Y-108150000D03*
X82525000Y-108950000D03*
X82525000Y-109750000D03*
X82525000Y-112950000D03*
X82525000Y-113750000D03*
X82525000Y-114550000D03*
X83325000Y-108150000D03*
X83325000Y-108950000D03*
X83325000Y-109750000D03*
X83325000Y-112950000D03*
X83325000Y-113750000D03*
X83325000Y-114550000D03*
X84125000Y-108150000D03*
X84125000Y-108950000D03*
X84125000Y-109750000D03*
X84125000Y-112950000D03*
X84125000Y-113750000D03*
X84125000Y-114550000D03*
X84925000Y-108150000D03*
X84925000Y-108950000D03*
X84925000Y-109750000D03*
X84925000Y-112950000D03*
X84925000Y-113750000D03*
X84925000Y-114550000D03*
X85725000Y-108150000D03*
X85725000Y-108950000D03*
X85725000Y-109750000D03*
X85725000Y-112950000D03*
X85725000Y-113750000D03*
X85725000Y-114550000D03*
X86525000Y-108150000D03*
X86525000Y-108950000D03*
X86525000Y-109750000D03*
X86525000Y-113750000D03*
X86525000Y-114550000D03*
X87325000Y-108150000D03*
X87325000Y-108950000D03*
X87325000Y-109750000D03*
X87325000Y-113750000D03*
X87325000Y-114550000D03*
X88125000Y-108150000D03*
X88125000Y-108950000D03*
X88125000Y-109750000D03*
X88125000Y-112950000D03*
X88125000Y-113750000D03*
X88125000Y-114550000D03*
X88925000Y-108150000D03*
X88925000Y-108950000D03*
X88925000Y-109750000D03*
X88925000Y-112950000D03*
X88925000Y-113750000D03*
X88925000Y-114550000D03*
G04 #@! TD*
G04 #@! TO.C,U3*
X66125000Y-109750000D03*
X65325000Y-109750000D03*
X73325000Y-114550000D03*
X73325000Y-113750000D03*
X73325000Y-112950000D03*
X73325000Y-109750000D03*
X73325000Y-108950000D03*
X73325000Y-108150000D03*
X72525000Y-114550000D03*
X72525000Y-113750000D03*
X72525000Y-112950000D03*
X72525000Y-109750000D03*
X72525000Y-108950000D03*
X72525000Y-108150000D03*
X71725000Y-114550000D03*
X71725000Y-113750000D03*
X71725000Y-112950000D03*
X71725000Y-109750000D03*
X71725000Y-108950000D03*
X71725000Y-108150000D03*
X70925000Y-114550000D03*
X70925000Y-113750000D03*
X70925000Y-112950000D03*
X70925000Y-109750000D03*
X70925000Y-108950000D03*
X70925000Y-108150000D03*
X70125000Y-114550000D03*
X70125000Y-113750000D03*
X70125000Y-112950000D03*
X70125000Y-109750000D03*
X70125000Y-108950000D03*
X70125000Y-108150000D03*
X69325000Y-114550000D03*
X69325000Y-113750000D03*
X69325000Y-112950000D03*
X69325000Y-109750000D03*
X69325000Y-108950000D03*
X69325000Y-108150000D03*
X68525000Y-114550000D03*
X68525000Y-113750000D03*
X68525000Y-112950000D03*
X68525000Y-109750000D03*
X68525000Y-108950000D03*
X68525000Y-108150000D03*
X67725000Y-114550000D03*
X67725000Y-113750000D03*
X67725000Y-112950000D03*
X67725000Y-109750000D03*
X67725000Y-108950000D03*
X67725000Y-108150000D03*
X66925000Y-114550000D03*
X66925000Y-113750000D03*
X66925000Y-112950000D03*
X66925000Y-109750000D03*
X66925000Y-108950000D03*
X66925000Y-108150000D03*
X66125000Y-114550000D03*
X66125000Y-113750000D03*
X66125000Y-112950000D03*
X66125000Y-108950000D03*
X66125000Y-108150000D03*
X65325000Y-114550000D03*
X65325000Y-113750000D03*
X65325000Y-112950000D03*
X65325000Y-108950000D03*
X65325000Y-108150000D03*
X64525000Y-114550000D03*
X64525000Y-113750000D03*
X64525000Y-112950000D03*
X64525000Y-109750000D03*
X64525000Y-108950000D03*
X64525000Y-108150000D03*
X63725000Y-114550000D03*
X63725000Y-113750000D03*
X63725000Y-112950000D03*
X63725000Y-109750000D03*
X63725000Y-108950000D03*
X63725000Y-108150000D03*
G04 #@! TD*
D19*
G04 #@! TO.C,C9*
X61550000Y-108962500D03*
X61550000Y-108187500D03*
G04 #@! TD*
D12*
G04 #@! TO.C,C10*
X73362500Y-106125000D03*
X74137500Y-106125000D03*
G04 #@! TD*
G04 #@! TO.C,C11*
X68062500Y-106125000D03*
X67287500Y-106125000D03*
G04 #@! TD*
G04 #@! TO.C,C12*
X69712500Y-128000000D03*
X68937500Y-128000000D03*
G04 #@! TD*
G04 #@! TO.C,C13*
X69163100Y-116611400D03*
X68388100Y-116611400D03*
G04 #@! TD*
D19*
G04 #@! TO.C,C14*
X61550000Y-114662500D03*
X61550000Y-113887500D03*
G04 #@! TD*
D12*
G04 #@! TO.C,C15*
X65362500Y-116600000D03*
X66137500Y-116600000D03*
G04 #@! TD*
G04 #@! TO.C,C16*
X65112500Y-106125000D03*
X65887500Y-106125000D03*
G04 #@! TD*
G04 #@! TO.C,C19*
X71312500Y-106125000D03*
X70537500Y-106125000D03*
G04 #@! TD*
D19*
G04 #@! TO.C,C21*
X61550000Y-119737500D03*
X61550000Y-120512500D03*
G04 #@! TD*
D12*
G04 #@! TO.C,C22*
X65787500Y-128025000D03*
X65012500Y-128025000D03*
G04 #@! TD*
G04 #@! TO.C,C23*
X72562500Y-117550000D03*
X73337500Y-117550000D03*
G04 #@! TD*
G04 #@! TO.C,C24*
X68912500Y-106125000D03*
X69687500Y-106125000D03*
G04 #@! TD*
G04 #@! TO.C,C25*
X66137500Y-117550000D03*
X65362500Y-117550000D03*
G04 #@! TD*
D19*
G04 #@! TO.C,C26*
X61550000Y-126362500D03*
X61550000Y-125587500D03*
G04 #@! TD*
D12*
G04 #@! TO.C,C28*
X66662500Y-128025000D03*
X67437500Y-128025000D03*
G04 #@! TD*
G04 #@! TO.C,C38*
X64260900Y-106125000D03*
X63485900Y-106125000D03*
G04 #@! TD*
G04 #@! TO.C,C39*
X70462500Y-117550000D03*
X71237500Y-117550000D03*
G04 #@! TD*
G04 #@! TO.C,C40*
X73837500Y-116575000D03*
X73062500Y-116575000D03*
G04 #@! TD*
D19*
G04 #@! TO.C,C41*
X77125000Y-108387500D03*
X77125000Y-109162500D03*
G04 #@! TD*
D12*
G04 #@! TO.C,C42*
X83712500Y-106125000D03*
X82937500Y-106125000D03*
G04 #@! TD*
G04 #@! TO.C,C43*
X85262500Y-106125000D03*
X86037500Y-106125000D03*
G04 #@! TD*
G04 #@! TO.C,C44*
X79907300Y-116575000D03*
X79132300Y-116575000D03*
G04 #@! TD*
G04 #@! TO.C,C45*
X83958300Y-116575000D03*
X84733300Y-116575000D03*
G04 #@! TD*
D19*
G04 #@! TO.C,C46*
X91122500Y-108134000D03*
X91122500Y-108909000D03*
G04 #@! TD*
D12*
G04 #@! TO.C,C47*
X86980900Y-116575000D03*
X87755900Y-116575000D03*
G04 #@! TD*
G04 #@! TO.C,C48*
X87812500Y-106125000D03*
X87037500Y-106125000D03*
G04 #@! TD*
D19*
G04 #@! TO.C,C50*
X77150000Y-115337500D03*
X77150000Y-114562500D03*
G04 #@! TD*
D12*
G04 #@! TO.C,C57*
X83729700Y-128000000D03*
X84504700Y-128000000D03*
G04 #@! TD*
D19*
G04 #@! TO.C,C58*
X77150000Y-125412500D03*
X77150000Y-126187500D03*
G04 #@! TD*
G04 #@! TO.C,C59*
X91100000Y-120362500D03*
X91100000Y-121137500D03*
G04 #@! TD*
G04 #@! TO.C,C60*
X77150000Y-120337500D03*
X77150000Y-119562500D03*
G04 #@! TD*
D12*
G04 #@! TO.C,C61*
X79612500Y-128000000D03*
X78837500Y-128000000D03*
G04 #@! TD*
G04 #@! TO.C,C62*
X87755900Y-117550000D03*
X86980900Y-117550000D03*
G04 #@! TD*
G04 #@! TO.C,C63*
X86637500Y-128000000D03*
X87412500Y-128000000D03*
G04 #@! TD*
D19*
G04 #@! TO.C,C64*
X91100000Y-125912500D03*
X91100000Y-125137500D03*
G04 #@! TD*
D12*
G04 #@! TO.C,C67*
X81362500Y-116575000D03*
X82137500Y-116575000D03*
G04 #@! TD*
D19*
G04 #@! TO.C,C71*
X91125000Y-114887500D03*
X91125000Y-114112500D03*
G04 #@! TD*
D12*
G04 #@! TO.C,C87*
X82262500Y-128000000D03*
X81487500Y-128000000D03*
G04 #@! TD*
D19*
G04 #@! TO.C,C94*
X71925200Y-91509700D03*
X71925200Y-92284700D03*
G04 #@! TD*
G04 #@! TO.C,C95*
X73906400Y-91458900D03*
X73906400Y-92233900D03*
G04 #@! TD*
G04 #@! TO.C,C96*
X74897000Y-91516100D03*
X74897000Y-92291100D03*
G04 #@! TD*
G04 #@! TO.C,C97*
X81940400Y-92335500D03*
X81940400Y-91560500D03*
G04 #@! TD*
G04 #@! TO.C,C98*
X78910200Y-92284700D03*
X78910200Y-91509700D03*
G04 #@! TD*
G04 #@! TO.C,C99*
X80975200Y-92233900D03*
X80975200Y-91458900D03*
G04 #@! TD*
D20*
G04 #@! TO.C,C111*
X42380000Y-30226000D03*
X43980000Y-30226000D03*
G04 #@! TD*
D19*
G04 #@! TO.C,C125*
X76903600Y-91509700D03*
X76903600Y-92284700D03*
G04 #@! TD*
G04 #@! TO.C,C126*
X75938400Y-89477700D03*
X75938400Y-90252700D03*
G04 #@! TD*
D12*
G04 #@! TO.C,C127*
X73932900Y-85344000D03*
X74707900Y-85344000D03*
G04 #@! TD*
G04 #@! TO.C,C128*
X74828400Y-87325200D03*
X74053400Y-87325200D03*
G04 #@! TD*
G04 #@! TO.C,C129*
X73932900Y-86360000D03*
X74707900Y-86360000D03*
G04 #@! TD*
D19*
G04 #@! TO.C,C130*
X77927200Y-83191500D03*
X77927200Y-82416500D03*
G04 #@! TD*
G04 #@! TO.C,C131*
X76911200Y-83191500D03*
X76911200Y-82416500D03*
G04 #@! TD*
G04 #@! TO.C,C132*
X75895200Y-82416500D03*
X75895200Y-83191500D03*
G04 #@! TD*
G04 #@! TO.C,C133*
X74879200Y-82416500D03*
X74879200Y-83191500D03*
G04 #@! TD*
G04 #@! TO.C,C134*
X60655200Y-65309900D03*
X60655200Y-64534900D03*
G04 #@! TD*
G04 #@! TO.C,C136*
X61562000Y-83991300D03*
X61562000Y-84766300D03*
G04 #@! TD*
D12*
G04 #@! TO.C,C163*
X97966700Y-145237200D03*
X97191700Y-145237200D03*
G04 #@! TD*
G04 #@! TO.C,C166*
X57110500Y-62052200D03*
X57885500Y-62052200D03*
G04 #@! TD*
G04 #@! TO.C,C167*
X55027700Y-62052200D03*
X55802700Y-62052200D03*
G04 #@! TD*
G04 #@! TO.C,C168*
X57262900Y-55143400D03*
X58037900Y-55143400D03*
G04 #@! TD*
D19*
G04 #@! TO.C,C169*
X54196000Y-56356100D03*
X54196000Y-57131100D03*
G04 #@! TD*
G04 #@! TO.C,C170*
X39522400Y-52101900D03*
X39522400Y-51326900D03*
G04 #@! TD*
G04 #@! TO.C,C171*
X39573200Y-47225100D03*
X39573200Y-46450100D03*
G04 #@! TD*
G04 #@! TO.C,C172*
X48971200Y-51326900D03*
X48971200Y-52101900D03*
G04 #@! TD*
G04 #@! TO.C,C173*
X48971200Y-46450100D03*
X48971200Y-47225100D03*
G04 #@! TD*
G04 #@! TO.C,C174*
X46888400Y-52101900D03*
X46888400Y-51326900D03*
G04 #@! TD*
G04 #@! TO.C,C175*
X46837600Y-47225100D03*
X46837600Y-46450100D03*
G04 #@! TD*
G04 #@! TO.C,C176*
X42824400Y-51326900D03*
X42824400Y-52101900D03*
G04 #@! TD*
G04 #@! TO.C,C177*
X42672000Y-47225100D03*
X42672000Y-46450100D03*
G04 #@! TD*
G04 #@! TO.C,C197*
X88392000Y-44773700D03*
X88392000Y-45548700D03*
G04 #@! TD*
G04 #@! TO.C,C198*
X83210400Y-44735900D03*
X83210400Y-43960900D03*
G04 #@! TD*
G04 #@! TO.C,C199*
X96977200Y-56877100D03*
X96977200Y-56102100D03*
G04 #@! TD*
G04 #@! TO.C,C200*
X99923600Y-56102100D03*
X99923600Y-56877100D03*
G04 #@! TD*
G04 #@! TO.C,C201*
X102920800Y-56877100D03*
X102920800Y-56102100D03*
G04 #@! TD*
G04 #@! TO.C,C202*
X105867200Y-56877100D03*
X105867200Y-56102100D03*
G04 #@! TD*
D21*
G04 #@! TO.C,C203*
X113563400Y-41021000D03*
X110703400Y-41021000D03*
G04 #@! TD*
D22*
G04 #@! TO.C,C204*
X109982000Y-45356800D03*
X109982000Y-48216800D03*
G04 #@! TD*
D19*
G04 #@! TO.C,C205*
X87782400Y-48177300D03*
X87782400Y-48952300D03*
G04 #@! TD*
D12*
G04 #@! TO.C,C206*
X72053300Y-84328000D03*
X72828300Y-84328000D03*
G04 #@! TD*
G04 #@! TO.C,C207*
X73932900Y-84277200D03*
X74707900Y-84277200D03*
G04 #@! TD*
D19*
G04 #@! TO.C,C216*
X76751200Y-51289100D03*
X76751200Y-50514100D03*
G04 #@! TD*
G04 #@! TO.C,C217*
X72390000Y-51797100D03*
X72390000Y-51022100D03*
G04 #@! TD*
D12*
G04 #@! TO.C,C240*
X72962500Y-128000000D03*
X73737500Y-128000000D03*
G04 #@! TD*
D19*
G04 #@! TO.C,C242*
X93413600Y-143948300D03*
X93413600Y-143173300D03*
G04 #@! TD*
G04 #@! TO.C,C243*
X69893200Y-94481500D03*
X69893200Y-95256500D03*
G04 #@! TD*
G04 #@! TO.C,C244*
X78910200Y-96437300D03*
X78910200Y-97212300D03*
G04 #@! TD*
D12*
G04 #@! TO.C,C245*
X65873500Y-89382600D03*
X66648500Y-89382600D03*
G04 #@! TD*
G04 #@! TO.C,C246*
X86041100Y-81381600D03*
X86816100Y-81381600D03*
G04 #@! TD*
D19*
G04 #@! TO.C,C247*
X81907400Y-84207500D03*
X81907400Y-83432500D03*
G04 #@! TD*
G04 #@! TO.C,C248*
X75862200Y-85413700D03*
X75862200Y-86188700D03*
G04 #@! TD*
D12*
G04 #@! TO.C,C249*
X78789700Y-87401400D03*
X78014700Y-87401400D03*
G04 #@! TD*
D19*
G04 #@! TO.C,C250*
X81932800Y-87445700D03*
X81932800Y-88220700D03*
G04 #@! TD*
D12*
G04 #@! TO.C,C251*
X78789700Y-85394800D03*
X78014700Y-85394800D03*
G04 #@! TD*
G04 #@! TO.C,C252*
X78738900Y-90373200D03*
X77963900Y-90373200D03*
G04 #@! TD*
G04 #@! TO.C,C253*
X66826300Y-83337400D03*
X66051300Y-83337400D03*
G04 #@! TD*
D19*
G04 #@! TO.C,C254*
X82359500Y-76066500D03*
X82359500Y-76841500D03*
G04 #@! TD*
G04 #@! TO.C,C255*
X69951600Y-77197100D03*
X69951600Y-76422100D03*
G04 #@! TD*
G04 #@! TO.C,C256*
X79900800Y-88169900D03*
X79900800Y-87394900D03*
G04 #@! TD*
D12*
G04 #@! TO.C,C257*
X81812300Y-89357200D03*
X81037300Y-89357200D03*
G04 #@! TD*
D19*
G04 #@! TO.C,C258*
X82948800Y-85413700D03*
X82948800Y-86188700D03*
G04 #@! TD*
G04 #@! TO.C,C259*
X66878200Y-103731900D03*
X66878200Y-102956900D03*
G04 #@! TD*
D12*
G04 #@! TO.C,C260*
X70097500Y-102023600D03*
X70872500Y-102023600D03*
G04 #@! TD*
G04 #@! TO.C,C264*
X68535700Y-102023600D03*
X67760700Y-102023600D03*
G04 #@! TD*
G04 #@! TO.C,C265*
X64878100Y-102023600D03*
X64103100Y-102023600D03*
G04 #@! TD*
G04 #@! TO.C,C266*
X75042900Y-93370400D03*
X75817900Y-93370400D03*
G04 #@! TD*
G04 #@! TO.C,C268*
X63714500Y-117525800D03*
X64489500Y-117525800D03*
G04 #@! TD*
G04 #@! TO.C,C273*
X78852900Y-106125000D03*
X79627900Y-106125000D03*
G04 #@! TD*
G04 #@! TO.C,C274*
X88612500Y-116575000D03*
X89387500Y-116575000D03*
G04 #@! TD*
G04 #@! TO.C,C275*
X88377900Y-128000000D03*
X89152900Y-128000000D03*
G04 #@! TD*
G04 #@! TO.C,C276*
X77237500Y-117550000D03*
X78012500Y-117550000D03*
G04 #@! TD*
D23*
G04 #@! TO.C,D10*
X92138500Y-135674000D03*
X92138500Y-134074000D03*
G04 #@! TD*
D20*
G04 #@! TO.C,D12*
X58323600Y-135305800D03*
X59923600Y-135305800D03*
G04 #@! TD*
D24*
G04 #@! TO.C,J3*
X41470600Y-62814200D03*
X42740600Y-64084200D03*
X42740600Y-61544200D03*
X40200600Y-61544200D03*
X40200600Y-64084200D03*
G04 #@! TD*
G04 #@! TO.C,J4*
X48303200Y-64084200D03*
X48303200Y-61544200D03*
X50843200Y-61544200D03*
X50843200Y-64084200D03*
X49573200Y-62814200D03*
G04 #@! TD*
G04 #@! TO.C,J5*
X40200600Y-70434200D03*
X40200600Y-67894200D03*
X42740600Y-67894200D03*
X42740600Y-70434200D03*
X41470600Y-69164200D03*
G04 #@! TD*
G04 #@! TO.C,J6*
X48303200Y-70434200D03*
X48303200Y-67894200D03*
X50843200Y-67894200D03*
X50843200Y-70434200D03*
X49573200Y-69164200D03*
G04 #@! TD*
G04 #@! TO.C,J15*
X40200600Y-83134200D03*
X40200600Y-80594200D03*
X42740600Y-80594200D03*
X42740600Y-83134200D03*
X41470600Y-81864200D03*
G04 #@! TD*
G04 #@! TO.C,J16*
X49573200Y-81864200D03*
X50843200Y-83134200D03*
X50843200Y-80594200D03*
X48303200Y-80594200D03*
X48303200Y-83134200D03*
G04 #@! TD*
G04 #@! TO.C,J17*
X41470600Y-75514200D03*
X42740600Y-76784200D03*
X42740600Y-74244200D03*
X40200600Y-74244200D03*
X40200600Y-76784200D03*
G04 #@! TD*
G04 #@! TO.C,J18*
X49573200Y-75514200D03*
X50843200Y-76784200D03*
X50843200Y-74244200D03*
X48303200Y-74244200D03*
X48303200Y-76784200D03*
G04 #@! TD*
D25*
G04 #@! TO.C,Q1*
X50988000Y-32433500D03*
X50988000Y-33733500D03*
X49088000Y-33083500D03*
X50988000Y-33083500D03*
X49088000Y-33733500D03*
X49088000Y-32433500D03*
G04 #@! TD*
G04 #@! TO.C,Q2*
X52407800Y-32433500D03*
X52407800Y-33733500D03*
X54307800Y-33083500D03*
X52407800Y-33083500D03*
X54307800Y-33733500D03*
X54307800Y-32433500D03*
G04 #@! TD*
D26*
G04 #@! TO.C,Q4*
X40680400Y-57846000D03*
X39380400Y-57846000D03*
X40030400Y-55946000D03*
X40030400Y-57846000D03*
X39380400Y-55946000D03*
X40680400Y-55946000D03*
G04 #@! TD*
D27*
G04 #@! TO.C,Q6*
X94979000Y-143444000D03*
X94979000Y-141544000D03*
X96979000Y-142494000D03*
G04 #@! TD*
D12*
G04 #@! TO.C,R2*
X64487500Y-116575000D03*
X63712500Y-116575000D03*
G04 #@! TD*
G04 #@! TO.C,R3*
X63362500Y-128025000D03*
X64137500Y-128025000D03*
G04 #@! TD*
G04 #@! TO.C,R5*
X89237500Y-106125000D03*
X90012500Y-106125000D03*
G04 #@! TD*
G04 #@! TO.C,R7*
X88637500Y-117525000D03*
X89412500Y-117525000D03*
G04 #@! TD*
D19*
G04 #@! TO.C,R13*
X40276800Y-87941300D03*
X40276800Y-87166300D03*
G04 #@! TD*
G04 #@! TO.C,R14*
X40276800Y-88791900D03*
X40276800Y-89566900D03*
G04 #@! TD*
G04 #@! TO.C,R16*
X48323500Y-31248500D03*
X48323500Y-30473500D03*
G04 #@! TD*
D12*
G04 #@! TO.C,R17*
X49714000Y-29400500D03*
X50489000Y-29400500D03*
G04 #@! TD*
G04 #@! TO.C,R18*
X52711500Y-29400500D03*
X51936500Y-29400500D03*
G04 #@! TD*
D19*
G04 #@! TO.C,R19*
X55181500Y-31248500D03*
X55181500Y-30473500D03*
G04 #@! TD*
G04 #@! TO.C,R20*
X57142400Y-83584900D03*
X57142400Y-84359900D03*
G04 #@! TD*
G04 #@! TO.C,R21*
X62788800Y-35375700D03*
X62788800Y-36150700D03*
G04 #@! TD*
G04 #@! TO.C,R22*
X65278000Y-36150700D03*
X65278000Y-35375700D03*
G04 #@! TD*
G04 #@! TO.C,R24*
X67818000Y-36150700D03*
X67818000Y-35375700D03*
G04 #@! TD*
G04 #@! TO.C,R25*
X70408800Y-35375700D03*
X70408800Y-36150700D03*
G04 #@! TD*
G04 #@! TO.C,R26*
X40894000Y-51326900D03*
X40894000Y-52101900D03*
G04 #@! TD*
G04 #@! TO.C,R27*
X63754000Y-35375700D03*
X63754000Y-36150700D03*
G04 #@! TD*
G04 #@! TO.C,R28*
X66235600Y-35375700D03*
X66235600Y-36150700D03*
G04 #@! TD*
G04 #@! TO.C,R29*
X68783200Y-36150700D03*
X68783200Y-35375700D03*
G04 #@! TD*
G04 #@! TO.C,R30*
X71374000Y-35375700D03*
X71374000Y-36150700D03*
G04 #@! TD*
G04 #@! TO.C,R31*
X50342800Y-52101900D03*
X50342800Y-51326900D03*
G04 #@! TD*
G04 #@! TO.C,R32*
X44246800Y-51326900D03*
X44246800Y-52101900D03*
G04 #@! TD*
G04 #@! TO.C,R34*
X58724800Y-59251700D03*
X58724800Y-60026700D03*
G04 #@! TD*
D12*
G04 #@! TO.C,R38*
X55136900Y-128320800D03*
X55911900Y-128320800D03*
G04 #@! TD*
G04 #@! TO.C,R39*
X55911900Y-127355600D03*
X55136900Y-127355600D03*
G04 #@! TD*
D19*
G04 #@! TO.C,R46*
X75031600Y-35375700D03*
X75031600Y-36150700D03*
G04 #@! TD*
G04 #@! TO.C,R47*
X60198000Y-36150700D03*
X60198000Y-35375700D03*
G04 #@! TD*
G04 #@! TO.C,R48*
X77724000Y-36150700D03*
X77724000Y-35375700D03*
G04 #@! TD*
G04 #@! TO.C,R49*
X80314800Y-36150700D03*
X80314800Y-35375700D03*
G04 #@! TD*
G04 #@! TO.C,R50*
X82600800Y-35375700D03*
X82600800Y-36150700D03*
G04 #@! TD*
G04 #@! TO.C,R51*
X86360000Y-36150700D03*
X86360000Y-35375700D03*
G04 #@! TD*
G04 #@! TO.C,R52*
X57708800Y-36150700D03*
X57708800Y-35375700D03*
G04 #@! TD*
G04 #@! TO.C,R53*
X75989200Y-36150700D03*
X75989200Y-35375700D03*
G04 #@! TD*
G04 #@! TO.C,R54*
X61163200Y-36150700D03*
X61163200Y-35375700D03*
G04 #@! TD*
G04 #@! TO.C,R55*
X78689200Y-35375700D03*
X78689200Y-36150700D03*
G04 #@! TD*
G04 #@! TO.C,R56*
X81280000Y-35375700D03*
X81280000Y-36150700D03*
G04 #@! TD*
G04 #@! TO.C,R57*
X83566000Y-36150700D03*
X83566000Y-35375700D03*
G04 #@! TD*
G04 #@! TO.C,R58*
X85394800Y-35375700D03*
X85394800Y-36150700D03*
G04 #@! TD*
G04 #@! TO.C,R59*
X58674000Y-36150700D03*
X58674000Y-35375700D03*
G04 #@! TD*
D12*
G04 #@! TO.C,R63*
X52716300Y-127863600D03*
X53491300Y-127863600D03*
G04 #@! TD*
D19*
G04 #@! TO.C,R65*
X60655200Y-63582700D03*
X60655200Y-62807700D03*
G04 #@! TD*
G04 #@! TO.C,R70*
X70909200Y-91484300D03*
X70909200Y-92259300D03*
G04 #@! TD*
G04 #@! TO.C,R72*
X95250000Y-133280000D03*
X95250000Y-134055000D03*
G04 #@! TD*
D12*
G04 #@! TO.C,R74*
X40638900Y-54787800D03*
X39863900Y-54787800D03*
G04 #@! TD*
D19*
G04 #@! TO.C,R79*
X79342000Y-62147300D03*
X79342000Y-62922300D03*
G04 #@! TD*
D28*
G04 #@! TO.C,R80*
X80733200Y-62136400D03*
X81733200Y-62136400D03*
X81233200Y-62136400D03*
X82233200Y-62136400D03*
X81233200Y-63136400D03*
X80733200Y-63136400D03*
X81733200Y-63136400D03*
X82233200Y-63136400D03*
G04 #@! TD*
D19*
G04 #@! TO.C,R81*
X86817200Y-48952300D03*
X86817200Y-48177300D03*
G04 #@! TD*
D28*
G04 #@! TO.C,R82*
X85629200Y-63136400D03*
X85129200Y-63136400D03*
X84129200Y-63136400D03*
X84629200Y-63136400D03*
X85629200Y-62136400D03*
X84629200Y-62136400D03*
X85129200Y-62136400D03*
X84129200Y-62136400D03*
G04 #@! TD*
D12*
G04 #@! TO.C,R83*
X86074100Y-47244000D03*
X86849100Y-47244000D03*
G04 #@! TD*
D19*
G04 #@! TO.C,R84*
X91287600Y-43097300D03*
X91287600Y-43872300D03*
G04 #@! TD*
D28*
G04 #@! TO.C,R85*
X87642000Y-62136400D03*
X88642000Y-62136400D03*
X88142000Y-62136400D03*
X89142000Y-62136400D03*
X88142000Y-63136400D03*
X87642000Y-63136400D03*
X88642000Y-63136400D03*
X89142000Y-63136400D03*
G04 #@! TD*
D19*
G04 #@! TO.C,R86*
X90322400Y-43872300D03*
X90322400Y-43097300D03*
G04 #@! TD*
G04 #@! TO.C,R87*
X105867200Y-47529900D03*
X105867200Y-46754900D03*
G04 #@! TD*
G04 #@! TO.C,R88*
X102920800Y-47529900D03*
X102920800Y-46754900D03*
G04 #@! TD*
G04 #@! TO.C,R89*
X99923600Y-47529900D03*
X99923600Y-46754900D03*
G04 #@! TD*
G04 #@! TO.C,R90*
X96977200Y-47529900D03*
X96977200Y-46754900D03*
G04 #@! TD*
D12*
G04 #@! TO.C,R91*
X77633700Y-57073800D03*
X78408700Y-57073800D03*
G04 #@! TD*
D19*
G04 #@! TO.C,R92*
X82245200Y-47770900D03*
X82245200Y-48545900D03*
G04 #@! TD*
G04 #@! TO.C,R93*
X90271600Y-50933500D03*
X90271600Y-50158500D03*
G04 #@! TD*
G04 #@! TO.C,R94*
X85153500Y-48330000D03*
X85153500Y-47555000D03*
G04 #@! TD*
G04 #@! TO.C,R95*
X84175600Y-48545900D03*
X84175600Y-47770900D03*
G04 #@! TD*
G04 #@! TO.C,R96*
X83210400Y-47770900D03*
X83210400Y-48545900D03*
G04 #@! TD*
D12*
G04 #@! TO.C,R97*
X80186700Y-48768000D03*
X79411700Y-48768000D03*
G04 #@! TD*
G04 #@! TO.C,R113*
X75507700Y-55829200D03*
X76282700Y-55829200D03*
G04 #@! TD*
G04 #@! TO.C,R114*
X75507700Y-54864000D03*
X76282700Y-54864000D03*
G04 #@! TD*
G04 #@! TO.C,R115*
X76282700Y-53898800D03*
X75507700Y-53898800D03*
G04 #@! TD*
D19*
G04 #@! TO.C,R148*
X81018400Y-70376900D03*
X81018400Y-71151900D03*
G04 #@! TD*
G04 #@! TO.C,R149*
X80060800Y-70376900D03*
X80060800Y-71151900D03*
G04 #@! TD*
G04 #@! TO.C,R150*
X84480400Y-71151900D03*
X84480400Y-70376900D03*
G04 #@! TD*
D28*
G04 #@! TO.C,R152*
X79083600Y-71315200D03*
X78083600Y-71315200D03*
X78583600Y-71315200D03*
X77583600Y-71315200D03*
X78583600Y-70315200D03*
X79083600Y-70315200D03*
X78083600Y-70315200D03*
X77583600Y-70315200D03*
G04 #@! TD*
G04 #@! TO.C,R153*
X74105200Y-71315200D03*
X73105200Y-71315200D03*
X73605200Y-71315200D03*
X72605200Y-71315200D03*
X73605200Y-70315200D03*
X74105200Y-70315200D03*
X73105200Y-70315200D03*
X72605200Y-70315200D03*
G04 #@! TD*
G04 #@! TO.C,R154*
X83503200Y-71315200D03*
X82503200Y-71315200D03*
X83003200Y-71315200D03*
X82003200Y-71315200D03*
X83003200Y-70315200D03*
X83503200Y-70315200D03*
X82503200Y-70315200D03*
X82003200Y-70315200D03*
G04 #@! TD*
G04 #@! TO.C,R155*
X75094400Y-70315200D03*
X75594400Y-70315200D03*
X76594400Y-70315200D03*
X76094400Y-70315200D03*
X75094400Y-71315200D03*
X76094400Y-71315200D03*
X75594400Y-71315200D03*
X76594400Y-71315200D03*
G04 #@! TD*
D12*
G04 #@! TO.C,R161*
X94715500Y-145211800D03*
X93940500Y-145211800D03*
G04 #@! TD*
D19*
G04 #@! TO.C,R162*
X38100000Y-56521500D03*
X38100000Y-55746500D03*
G04 #@! TD*
D29*
G04 #@! TO.C,R164*
X67855400Y-102996800D03*
D30*
X68355400Y-102996800D03*
D29*
X69355400Y-102996800D03*
D30*
X68855400Y-102996800D03*
D29*
X67855400Y-103996800D03*
D30*
X68855400Y-103996800D03*
X68355400Y-103996800D03*
D29*
X69355400Y-103996800D03*
G04 #@! TD*
G04 #@! TO.C,R166*
X71844600Y-103996800D03*
D30*
X70844600Y-103996800D03*
X71344600Y-103996800D03*
D29*
X70344600Y-103996800D03*
D30*
X71344600Y-102996800D03*
D29*
X71844600Y-102996800D03*
D30*
X70844600Y-102996800D03*
D29*
X70344600Y-102996800D03*
G04 #@! TD*
G04 #@! TO.C,R168*
X72833800Y-102996800D03*
D30*
X73333800Y-102996800D03*
D29*
X74333800Y-102996800D03*
D30*
X73833800Y-102996800D03*
D29*
X72833800Y-103996800D03*
D30*
X73833800Y-103996800D03*
X73333800Y-103996800D03*
D29*
X74333800Y-103996800D03*
G04 #@! TD*
D19*
G04 #@! TO.C,R169*
X75311000Y-103985900D03*
X75311000Y-103210900D03*
G04 #@! TD*
G04 #@! TO.C,R170*
X63982600Y-102956900D03*
X63982600Y-103731900D03*
G04 #@! TD*
G04 #@! TO.C,R171*
X64947800Y-103731900D03*
X64947800Y-102956900D03*
G04 #@! TD*
G04 #@! TO.C,R178*
X83888600Y-92259300D03*
X83888600Y-91484300D03*
G04 #@! TD*
G04 #@! TO.C,R179*
X76276200Y-103985900D03*
X76276200Y-103210900D03*
G04 #@! TD*
G04 #@! TO.C,R184*
X65913000Y-103731900D03*
X65913000Y-102956900D03*
G04 #@! TD*
G04 #@! TO.C,R186*
X33737080Y-80155760D03*
X33737080Y-80930760D03*
G04 #@! TD*
D20*
G04 #@! TO.C,RS3*
X92410400Y-87731600D03*
X94010400Y-87731600D03*
G04 #@! TD*
G04 #@! TO.C,RS5*
X55174000Y-93751400D03*
X56774000Y-93751400D03*
G04 #@! TD*
D23*
G04 #@! TO.C,RS7*
X70053200Y-53251200D03*
X70053200Y-54851200D03*
G04 #@! TD*
D20*
G04 #@! TO.C,RS8*
X55148600Y-92532200D03*
X56748600Y-92532200D03*
G04 #@! TD*
D31*
G04 #@! TO.C,U12*
X62398400Y-65481200D03*
X62398400Y-64211200D03*
X62398400Y-62941200D03*
X62398400Y-61671200D03*
X62398400Y-60401200D03*
X62398400Y-59131200D03*
X62398400Y-57861200D03*
X62398400Y-56591200D03*
X71698400Y-56591200D03*
X71698400Y-57861200D03*
X71698400Y-59131200D03*
X71698400Y-60401200D03*
X71698400Y-61671200D03*
X71698400Y-62941200D03*
X71698400Y-64211200D03*
X71698400Y-65481200D03*
G04 #@! TD*
D25*
G04 #@! TO.C,U28*
X57388800Y-60695600D03*
X57388800Y-59395600D03*
X55488800Y-60045600D03*
X55488800Y-59395600D03*
X55488800Y-60695600D03*
G04 #@! TD*
G04 #@! TO.C,U29*
X57388800Y-56601600D03*
X57388800Y-57901600D03*
X57388800Y-57251600D03*
X55488800Y-57901600D03*
X55488800Y-56601600D03*
G04 #@! TD*
D26*
G04 #@! TO.C,U30*
X39583600Y-50226000D03*
X40883600Y-50226000D03*
X40233600Y-48326000D03*
X40883600Y-48326000D03*
X39583600Y-48326000D03*
G04 #@! TD*
G04 #@! TO.C,U31*
X48981600Y-48326000D03*
X50281600Y-48326000D03*
X49631600Y-48326000D03*
X50281600Y-50226000D03*
X48981600Y-50226000D03*
G04 #@! TD*
G04 #@! TO.C,U32*
X46878000Y-48326000D03*
X45578000Y-48326000D03*
X46228000Y-50226000D03*
X45578000Y-50226000D03*
X46878000Y-50226000D03*
G04 #@! TD*
G04 #@! TO.C,U33*
X42733200Y-50226000D03*
X44033200Y-50226000D03*
X43383200Y-48326000D03*
X44033200Y-48326000D03*
X42733200Y-48326000D03*
G04 #@! TD*
D25*
G04 #@! TO.C,U38*
X73540600Y-51343800D03*
X73540600Y-52643800D03*
X75440600Y-51993800D03*
X75440600Y-52643800D03*
X75440600Y-51343800D03*
G04 #@! TD*
D32*
G04 #@! TO.C,X1*
X58526400Y-84234600D03*
X58526400Y-82084600D03*
X60076400Y-82084600D03*
X60076400Y-84234600D03*
G04 #@! TD*
D33*
G04 #@! TO.C,Y3*
X86901200Y-45859600D03*
X84701200Y-45859600D03*
X84701200Y-44259600D03*
X86901200Y-44259600D03*
G04 #@! TD*
M02*
