M48
;DRILL file {KiCad 5.0.0-rc3-6a2723a~65~ubuntu16.04.1} date Thu Nov 29 22:42:53 2018
;FORMAT={2:4/ absolute / inch / suppress leading zeros}
FMAT,2
INCH,TZ
T1C0.0080
T2C0.0100
T3C0.0315
T4C0.0331
T5C0.0350
T6C0.0354
T7C0.0394
T8C0.0402
T9C0.0618
T10C0.1063
%
G90
G05
M72
T1
X12067Y-21449
X12067Y-41169
X12073Y-41842
X12217Y-41713
X12520Y-50008
X12740Y-17950
X12740Y-25823
X12748Y-23453
X12752Y-24248
X12760Y-26610
X12760Y-27394
X12776Y-19512
X12799Y-39209
X12799Y-39996
X12803Y-20311
X12870Y-36059
X12878Y-36846
X12910Y-29757
X12933Y-21102
X12980Y-28972
X13016Y-32122
X13025Y-30548
X13051Y-38421
X13138Y-46693
X13142Y-47189
X13168Y-46189
X13169Y-54567
X13177Y-53370
X13183Y-47705
X13185Y-37638
X13197Y-48689
X13201Y-49189
X13201Y-48224
X13283Y-32291
X13286Y-31191
X13317Y-54734
X13374Y-26610
X13383Y-47705
X13413Y-46189
X13413Y-46693
X13417Y-47189
X13417Y-48220
X13437Y-48689
X13437Y-49189
X13516Y-20307
X13630Y-32122
X13632Y-30667
X13650Y-21098
X13650Y-17160
X13713Y-25850
X13760Y-23039
X13764Y-24071
X13772Y-23776
X13815Y-29083
X13860Y-17950
X13870Y-17160
X14134Y-55028
X14158Y-42461
X14299Y-42602
X14453Y-19980
X14457Y-21484
X14508Y-20740
X14508Y-52228
X14516Y-52449
X14528Y-41114
X14531Y-24614
X14536Y-30947
X14752Y-45897
X14772Y-45405
X14894Y-45756
X14913Y-45264
X15220Y-25823
X15232Y-22669
X15238Y-29757
X15240Y-22870
X15244Y-23340
X15254Y-32124
X15272Y-21953
X15276Y-27398
X15299Y-21633
X15320Y-18300
X15327Y-38421
X15330Y-20210
X15330Y-20510
X15339Y-39209
X15350Y-36091
X15358Y-36843
X15360Y-19010
X15410Y-35270
X15418Y-19202
X15440Y-34490
X15457Y-21571
X15475Y-12425
X15475Y-12950
X15602Y-20949
X15709Y-52228
X15709Y-52472
X15760Y-22524
X15775Y-13900
X15795Y-28252
X15980Y-28256
X16016Y-22535
X16138Y-35264
X16142Y-34315
X16165Y-28260
X16173Y-16894
X16300Y-19770
X16350Y-28260
X16440Y-19090
X16475Y-13450
X16510Y-18900
X16535Y-28260
X16717Y-17760
X16724Y-28264
X16750Y-12425
X16909Y-28264
X16925Y-17835
X17050Y-12425
X17051Y-16874
X17079Y-18265
X17083Y-18587
X17098Y-28264
X17120Y-20210
X17120Y-20510
X17122Y-21591
X17180Y-22710
X17183Y-16176
X17275Y-14875
X17307Y-47772
X17315Y-17819
X17315Y-47524
X17335Y-18689
X17400Y-12425
X17430Y-22700
X17465Y-16190
X17512Y-21598
X17516Y-17980
X17709Y-17807
X17720Y-22450
X17795Y-48612
X17800Y-36430
X17821Y-38299
X17833Y-15526
X17860Y-22330
X17890Y-47874
X17906Y-17087
X17937Y-18390
X17950Y-20090
X18161Y-18291
X18236Y-52236
X18256Y-39197
X18265Y-39504
X18280Y-40354
X18287Y-40776
X18291Y-40988
X18317Y-49508
X18327Y-49911
X18327Y-50285
X18425Y-46929
X18443Y-45490
X18488Y-40138
X18488Y-40354
X18492Y-40780
X18492Y-40988
X18494Y-49291
X18504Y-49724
X18514Y-50079
X18520Y-22710
X18525Y-12400
X18525Y-12900
X18525Y-13650
X18566Y-36430
X18584Y-45632
X18626Y-15118
X18669Y-40134
X18681Y-40776
X18681Y-40984
X18691Y-49508
X18701Y-42313
X18701Y-49911
X18705Y-18594
X18711Y-43071
X18711Y-50285
X18740Y-20210
X18740Y-20510
X18758Y-16006
X18810Y-22710
X18890Y-17087
X18950Y-14225
X18967Y-47992
X18967Y-48376
X18990Y-20210
X18996Y-41762
X19000Y-18287
X19000Y-20510
X19006Y-42549
X19016Y-18594
X19025Y-11650
X19025Y-13025
X19065Y-47343
X19157Y-16598
X19165Y-50598
X19167Y-48180
X19240Y-44453
X19248Y-44713
X19360Y-47992
X19370Y-48376
X19390Y-53346
X19400Y-13575
X19409Y-16811
X19484Y-22244
X19484Y-44453
X19488Y-44697
X19535Y-18449
X19626Y-44055
X19677Y-17740
X19695Y-53337
X19696Y-12865
X19727Y-12556
X19728Y-44453
X19744Y-44724
X19775Y-13300
X19780Y-15005
X19791Y-51342
X19791Y-51785
X19799Y-18744
X19862Y-56654
X19870Y-42430
X19870Y-42930
X19942Y-11894
X19976Y-44445
X19984Y-44717
X19990Y-53337
X20006Y-34242
X20009Y-34412
X20028Y-51568
X20047Y-42680
X20067Y-21172
X20102Y-18193
X20224Y-42430
X20224Y-42930
X20226Y-53337
X20236Y-47136
X20244Y-51342
X20244Y-51785
X20283Y-13047
X20285Y-49429
X20285Y-50197
X20375Y-12575
X20433Y-48602
X20449Y-39756
X20550Y-11894
X20575Y-57189
X20581Y-53327
X20600Y-49311
X20600Y-49508
X20620Y-49862
X20624Y-50049
X20630Y-42077
X20638Y-23858
X20670Y-21550
X20683Y-31507
X20709Y-36894
X20736Y-38299
X20738Y-44724
X20738Y-54488
X20744Y-37799
X20750Y-13550
X20787Y-30220
X20808Y-12767
X20850Y-31548
X20850Y-23862
X20850Y-24063
X20856Y-44567
X20906Y-53327
X20917Y-50594
X20935Y-44724
X20936Y-29483
X20945Y-13198
X20968Y-30813
X21004Y-48957
X21010Y-30979
X21043Y-44567
X21055Y-18764
X21056Y-12581
X21063Y-24063
X21067Y-23862
X21068Y-12983
X21071Y-24315
X21075Y-16598
X21087Y-22189
X21087Y-22492
X21094Y-28979
X21125Y-40545
X21142Y-44724
X21171Y-39352
X21171Y-48593
X21172Y-38755
X21191Y-44331
X21229Y-33401
X21230Y-33218
X21240Y-44567
X21245Y-33005
X21253Y-33570
X21266Y-32643
X21270Y-32470
X21271Y-32300
X21275Y-32824
X21276Y-24059
X21276Y-24311
X21277Y-31868
X21278Y-30632
X21281Y-30263
X21283Y-30454
X21284Y-32098
X21295Y-40545
X21303Y-50409
X21326Y-36553
X21326Y-36785
X21341Y-19439
X21342Y-38755
X21346Y-19748
X21368Y-44724
X21370Y-20600
X21370Y-20900
X21371Y-39350
X21402Y-42496
X21404Y-33664
X21414Y-32923
X21476Y-44567
X21476Y-50520
X21480Y-35748
X21516Y-24056
X21542Y-33562
X21563Y-17539
X21609Y-24720
X21626Y-42496
X21710Y-21240
X21710Y-21240
X21720Y-21540
X21725Y-11650
X21725Y-12575
X21725Y-14000
X21801Y-44321
X21851Y-42503
X21894Y-49744
X21923Y-37210
X21933Y-36132
X21990Y-50910
X22075Y-45264
X22103Y-36129
X22106Y-17193
X22150Y-32769
X22174Y-37211
X22201Y-29130
X22216Y-45405
X22250Y-50910
X22264Y-50339
X22270Y-14455
X22290Y-32237
X22331Y-49004
X22362Y-29197
X22399Y-39810
X22400Y-40090
X22401Y-39208
X22417Y-31080
X22470Y-14419
X22470Y-50920
X22470Y-53268
X22482Y-34025
X22482Y-34219
X22485Y-34417
X22485Y-34615
X22560Y-52680
X22571Y-49004
X22611Y-21441
X22611Y-24673
X22643Y-42854
X22690Y-52870
X22697Y-50482
X22713Y-31456
X22713Y-32224
X22720Y-50920
X22720Y-52470
X22725Y-13650
X22740Y-30063
X22760Y-22980
X22776Y-21949
X22783Y-19465
X22787Y-18098
X22822Y-36770
X22825Y-36575
X22839Y-22539
X22843Y-21315
X22843Y-24669
X22875Y-12475
X22880Y-51840
X22900Y-14500
X22941Y-50492
X23110Y-49000
X23118Y-23894
X23130Y-50482
X23270Y-34416
X23270Y-34617
X23272Y-34024
X23272Y-34221
X23287Y-18102
X23287Y-19622
X23291Y-21172
X23359Y-36142
X23455Y-35370
X23456Y-34779
X23456Y-35769
X23457Y-34977
X23457Y-35173
X23509Y-33730
X23535Y-29734
X23556Y-20975
X23614Y-25409
X23614Y-25705
X23677Y-37425
X23700Y-13650
X23831Y-28646
X23846Y-37441
X23875Y-12475
X23875Y-14525
X23937Y-33654
X23997Y-49424
X24028Y-44964
X24240Y-34781
X24245Y-34977
X24247Y-35370
X24295Y-29193
X24340Y-51030
X24340Y-51260
X24350Y-50790
X24402Y-14027
X24441Y-34223
X24475Y-49750
X24518Y-45896
X24571Y-52646
X24598Y-34035
X24633Y-34400
X24637Y-35377
X24700Y-13650
X24732Y-17575
X24780Y-20874
X24787Y-19323
X24805Y-34648
X24850Y-12475
X24900Y-14525
X24911Y-42402
X24911Y-42717
X24911Y-46476
X24917Y-51988
X24920Y-49750
X24923Y-34778
X24926Y-49439
X24929Y-48808
X24929Y-49128
X24931Y-43051
X24939Y-48163
X24940Y-44319
X24940Y-46929
X24941Y-44636
X24941Y-45246
X24941Y-47539
X24949Y-47240
X24952Y-43630
X24980Y-22291
X24982Y-22909
X25004Y-25795
X25079Y-27807
X25079Y-30217
X25079Y-32224
X25083Y-20075
X25083Y-20276
X25083Y-20469
X25087Y-20665
X25087Y-20870
X25089Y-42224
X25161Y-35074
X25217Y-28425
X25218Y-44969
X25223Y-39719
X25233Y-48153
X25236Y-47875
X25236Y-42411
X25236Y-49724
X25240Y-49450
X25241Y-43370
X25241Y-43628
X25244Y-45258
X25244Y-49128
X25245Y-44312
X25246Y-42736
X25246Y-43051
X25252Y-44019
X25254Y-44634
X25256Y-47244
X25256Y-47539
X25256Y-48817
X25260Y-48508
X25349Y-33592
X25360Y-33835
X25366Y-42181
X25386Y-20071
X25386Y-20280
X25386Y-20472
X25386Y-20669
X25394Y-49945
X25400Y-57070
X25404Y-46831
X25406Y-14027
X25465Y-48157
X25481Y-45485
X25539Y-47886
X25547Y-45269
X25551Y-22539
X25554Y-48805
X25556Y-44309
X25556Y-44946
X25557Y-47550
X25558Y-43368
X25561Y-42736
X25562Y-44013
X25563Y-44627
X25564Y-49133
X25566Y-49443
X25567Y-43624
X25567Y-47244
X25570Y-43042
X25570Y-49760
X25571Y-42431
X25571Y-46929
X25579Y-48496
X25700Y-13650
X25720Y-37750
X25720Y-38140
X25730Y-36190
X25730Y-36970
X25730Y-37360
X25730Y-38540
X25740Y-36570
X25755Y-48149
X25760Y-30060
X25780Y-33040
X25790Y-31470
X25790Y-35020
X25794Y-41232
X25838Y-48512
X25860Y-49770
X25863Y-49451
X25868Y-44949
X25869Y-47872
X25871Y-47555
X25873Y-42735
X25873Y-45259
X25874Y-43054
X25874Y-43369
X25875Y-12450
X25875Y-14525
X25875Y-48808
X25876Y-44313
X25876Y-47236
X25879Y-43624
X25879Y-46921
X25879Y-49128
X25883Y-44011
X25885Y-44634
X25886Y-42431
X25953Y-48189
X25954Y-48388
X26000Y-41217
X26040Y-55200
X26040Y-55570
X26057Y-43720
X26118Y-44083
X26130Y-38540
X26130Y-57600
X26140Y-35000
X26140Y-36560
X26140Y-38140
X26150Y-36950
X26150Y-37340
X26150Y-37740
X26164Y-31458
X26166Y-30662
X26173Y-48551
X26180Y-33050
X26186Y-44306
X26187Y-48836
X26189Y-44941
X26189Y-47547
X26190Y-43369
X26190Y-49130
X26190Y-49760
X26197Y-44634
X26197Y-45252
X26197Y-47244
X26199Y-43045
X26200Y-46930
X26205Y-20835
X26211Y-42441
X26230Y-43956
X26240Y-54720
X26260Y-42213
X26291Y-48428
X26300Y-50800
X26314Y-43774
X26331Y-40276
X26350Y-41100
X26386Y-14150
X26407Y-48300
X26430Y-41550
X26502Y-45264
X26512Y-51150
X26515Y-46933
X26516Y-42431
X26530Y-32610
X26530Y-34186
X26530Y-36180
X26530Y-38140
X26537Y-43769
X26540Y-32230
X26540Y-33410
X26540Y-33800
X26540Y-34590
X26540Y-34990
X26540Y-36560
X26540Y-36950
X26540Y-37740
X26540Y-38530
X26550Y-31840
X26550Y-35390
X26550Y-37340
X26570Y-31080
X26570Y-31470
X26580Y-30690
X26580Y-33050
X26580Y-41460
X26603Y-48433
X26690Y-52120
X26700Y-13650
X26705Y-43820
X26730Y-41550
X26761Y-43439
X26875Y-12475
X26881Y-48148
X26883Y-43594
X26890Y-51300
X26900Y-14525
X26902Y-47979
X26920Y-38140
X26920Y-38540
X26923Y-48582
X26930Y-33010
X26930Y-34200
X26930Y-36560
X26930Y-41350
X26940Y-31840
X26940Y-32620
X26940Y-33420
X26940Y-33810
X26940Y-34600
X26940Y-34990
X26940Y-36160
X26940Y-36950
X26940Y-37340
X26940Y-37740
X26950Y-32240
X26950Y-35390
X26960Y-30680
X26970Y-31080
X26970Y-31480
X26975Y-43743
X27012Y-23894
X27024Y-39717
X27051Y-52895
X27055Y-48709
X27073Y-44247
X27106Y-42451
X27110Y-52436
X27120Y-41200
X27120Y-41520
X27133Y-45253
X27137Y-46917
X27140Y-49760
X27214Y-23287
X27224Y-48323
X27240Y-48520
X27275Y-43704
X27283Y-43874
X27294Y-37358
X27310Y-33800
X27311Y-40276
X27320Y-34980
X27320Y-32220
X27320Y-32620
X27320Y-33010
X27320Y-35378
X27320Y-36170
X27320Y-41350
X27330Y-31840
X27330Y-33420
X27330Y-34200
X27330Y-34590
X27330Y-36950
X27330Y-37750
X27330Y-38130
X27330Y-41530
X27337Y-47927
X27339Y-24575
X27340Y-29880
X27340Y-30270
X27340Y-36550
X27340Y-38510
X27350Y-30670
X27350Y-31460
X27354Y-43453
X27360Y-31070
X27380Y-53790
X27380Y-54090
X27406Y-14150
X27417Y-20512
X27428Y-42455
X27440Y-49750
X27441Y-46937
X27448Y-45253
X27474Y-48671
X27508Y-22087
X27508Y-44239
X27557Y-44076
X27579Y-46692
X27602Y-48040
X27608Y-42274
X27612Y-41988
X27622Y-43610
X27640Y-48634
X27649Y-48216
X27700Y-41190
X27700Y-41400
X27706Y-36154
X27710Y-36560
X27720Y-32620
X27720Y-33010
X27720Y-33800
X27720Y-34190
X27720Y-34980
X27720Y-35380
X27720Y-37740
X27720Y-25291
X27721Y-43847
X27725Y-13650
X27730Y-31840
X27730Y-32230
X27730Y-33410
X27730Y-34600
X27730Y-38120
X27730Y-38520
X27737Y-37350
X27740Y-31070
X27740Y-31460
X27740Y-36930
X27749Y-45243
X27750Y-30680
X27764Y-22276
X27768Y-30300
X27771Y-50011
X27819Y-22780
X27820Y-51410
X27820Y-51720
X27820Y-52040
X27875Y-12475
X27887Y-44036
X27900Y-14525
X27921Y-42009
X27940Y-41530
X27945Y-21102
X27949Y-21540
X27950Y-41220
X27955Y-48486
X27965Y-54646
X27971Y-43875
X28052Y-46960
X28061Y-42441
X28062Y-48354
X28063Y-48729
X28073Y-45247
X28080Y-49760
X28083Y-47248
X28083Y-38130
X28090Y-38540
X28095Y-41425
X28100Y-33000
X28110Y-32230
X28110Y-32620
X28110Y-33800
X28110Y-34980
X28110Y-35370
X28110Y-37350
X28110Y-37740
X28110Y-51040
X28120Y-31840
X28120Y-33420
X28120Y-34200
X28120Y-34600
X28120Y-36940
X28130Y-30670
X28130Y-31060
X28140Y-36540
X28140Y-53630
X28141Y-40264
X28142Y-51738
X28143Y-52045
X28145Y-36130
X28150Y-31470
X28154Y-44110
X28201Y-20358
X28201Y-29790
X28207Y-46098
X28210Y-41300
X28219Y-43953
X28275Y-43690
X28280Y-54660
X28305Y-48456
X28307Y-28562
X28341Y-41520
X28349Y-48274
X28454Y-53313
X28460Y-41370
X28460Y-52050
X28463Y-42404
X28469Y-43968
X28470Y-51430
X28470Y-53630
X28474Y-51750
X28490Y-33780
X28490Y-38550
X28496Y-19843
X28499Y-29636
X28500Y-37350
X28502Y-29457
X28510Y-32230
X28510Y-34200
X28510Y-34590
X28510Y-34990
X28510Y-36550
X28510Y-36950
X28510Y-38130
X28520Y-30660
X28520Y-31450
X28520Y-32630
X28520Y-35380
X28520Y-37730
X28525Y-43719
X28529Y-33423
X28530Y-29890
X28530Y-30280
X28530Y-31070
X28530Y-31850
X28534Y-32975
X28545Y-36120
X28550Y-50170
X28551Y-45622
X28555Y-48439
X28584Y-41608
X28598Y-48104
X28600Y-54660
X28664Y-48261
X28670Y-43807
X28693Y-47224
X28693Y-46960
X28693Y-46626
X28701Y-41480
X28708Y-45251
X28720Y-41160
X28728Y-42445
X28740Y-43971
X28744Y-25783
X28750Y-39866
X28752Y-50760
X28774Y-52584
X28776Y-52048
X28780Y-53302
X28780Y-53630
X28789Y-51747
X28831Y-44141
X28835Y-19197
X28867Y-48668
X28870Y-29277
X28876Y-29447
X28880Y-50640
X28890Y-38140
X28890Y-38540
X28895Y-48385
X28900Y-33800
X28900Y-37350
X28900Y-41250
X28906Y-18496
X28910Y-36119
X28910Y-32230
X28910Y-32630
X28910Y-33020
X28910Y-34990
X28910Y-36560
X28910Y-36940
X28910Y-37730
X28910Y-54650
X28915Y-45373
X28920Y-30280
X28920Y-30670
X28920Y-31450
X28920Y-31850
X28920Y-33430
X28920Y-34210
X28920Y-34600
X28920Y-35390
X28930Y-29890
X28940Y-31080
X28976Y-41571
X28996Y-42448
X28996Y-42011
X28999Y-49729
X29000Y-21161
X29009Y-46960
X29040Y-43650
X29067Y-47264
X29072Y-51260
X29080Y-51430
X29083Y-47900
X29090Y-41430
X29090Y-53620
X29095Y-43045
X29098Y-53299
X29099Y-51747
X29106Y-43962
X29171Y-46122
X29179Y-48660
X29197Y-49763
X29204Y-49406
X29210Y-41550
X29230Y-54650
X29251Y-43706
X29260Y-57570
X29270Y-38550
X29277Y-29429
X29283Y-36570
X29287Y-48124
X29290Y-32220
X29290Y-34980
X29290Y-37740
X29290Y-38140
X29292Y-32641
X29300Y-37340
X29300Y-41160
X29301Y-32992
X29303Y-34602
X29305Y-33418
X29310Y-31460
X29310Y-33828
X29320Y-30280
X29320Y-31070
X29320Y-31860
X29320Y-35400
X29325Y-36128
X29335Y-22138
X29358Y-41339
X29360Y-51020
X29365Y-34228
X29400Y-53630
X29400Y-53940
X29424Y-53289
X29429Y-48340
X29457Y-21220
X29465Y-21598
X29469Y-43917
X29472Y-21980
X29476Y-18497
X29490Y-41580
X29525Y-13625
X29531Y-39874
X29550Y-54660
X29559Y-44241
X29610Y-51020
X29610Y-43654
X29660Y-38550
X29669Y-44524
X29680Y-37750
X29680Y-41180
X29684Y-33824
X29690Y-31440
X29690Y-33410
X29690Y-34980
X29690Y-37340
X29690Y-38130
X29691Y-35403
X29693Y-36978
X29694Y-48730
X29700Y-33030
X29700Y-34210
X29704Y-52351
X29704Y-36537
X29705Y-48425
X29709Y-52038
X29710Y-34610
X29715Y-36140
X29720Y-31080
X29720Y-32660
X29725Y-53614
X29730Y-32240
X29740Y-45390
X29790Y-41400
X29872Y-48735
X29875Y-12475
X29880Y-54660
X29925Y-14550
X29927Y-46979
X29961Y-20064
X29970Y-42707
X30008Y-20728
X30032Y-52046
X30035Y-51733
X30040Y-53940
X30050Y-41180
X30060Y-38550
X30070Y-31850
X30070Y-32220
X30072Y-47369
X30080Y-34980
X30083Y-36969
X30083Y-52672
X30090Y-41400
X30090Y-33420
X30090Y-34600
X30090Y-37350
X30090Y-37740
X30100Y-33030
X30100Y-33820
X30100Y-34210
X30100Y-32646
X30110Y-30630
X30110Y-31470
X30120Y-31080
X30123Y-35399
X30132Y-49540
X30138Y-24394
X30141Y-24594
X30181Y-45114
X30189Y-44280
X30190Y-47069
X30190Y-45620
X30190Y-54660
X30224Y-18165
X30256Y-22469
X30260Y-51040
X30305Y-21478
X30330Y-44389
X30340Y-51743
X30350Y-53620
X30365Y-48117
X30365Y-48874
X30368Y-53037
X30375Y-50545
X30414Y-43767
X30460Y-31850
X30460Y-37330
X30470Y-36550
X30470Y-36950
X30480Y-30650
X30480Y-34590
X30480Y-34990
X30480Y-46660
X30486Y-32636
X30490Y-33020
X30490Y-33810
X30490Y-34210
X30490Y-48733
X30491Y-36168
X30500Y-31070
X30500Y-31470
X30500Y-32240
X30500Y-33430
X30500Y-35380
X30530Y-54660
X30539Y-44047
X30549Y-48472
X30550Y-19525
X30551Y-42037
X30563Y-22744
X30575Y-13650
X30600Y-51050
X30610Y-50360
X30639Y-21985
X30653Y-51746
X30657Y-19287
X30657Y-52055
X30660Y-53630
X30701Y-19441
X30717Y-19811
X30749Y-43731
X30751Y-53116
X30778Y-48174
X30803Y-17906
X30820Y-54660
X30839Y-36140
X30844Y-38112
X30850Y-31850
X30860Y-34626
X30860Y-37740
X30870Y-36560
X30870Y-36950
X30870Y-37340
X30875Y-19500
X30880Y-30640
X30880Y-34990
X30880Y-38540
X30881Y-48489
X30885Y-44023
X30886Y-35389
X30886Y-34201
X30890Y-32640
X30890Y-33030
X30896Y-33847
X30899Y-33422
X30900Y-12475
X30927Y-46280
X30930Y-51050
X30933Y-19283
X30972Y-43457
X30975Y-14525
X30975Y-53309
X30976Y-52360
X30979Y-51733
X30980Y-53620
X30996Y-47942
X31004Y-43023
X31024Y-47513
X31059Y-19425
X31067Y-19736
X31070Y-45260
X31083Y-46928
X31086Y-24184
X31101Y-42450
X31131Y-49781
X31134Y-20059
X31139Y-50685
X31140Y-51060
X31140Y-54310
X31160Y-22480
X31177Y-43787
X31206Y-43957
X31213Y-48571
X31226Y-48340
X31230Y-31080
X31236Y-25000
X31250Y-19513
X31250Y-31850
X31250Y-32240
X31259Y-34592
X31260Y-31450
X31260Y-36550
X31260Y-37340
X31270Y-32630
X31270Y-33010
X31270Y-33420
X31270Y-34220
X31270Y-34990
X31270Y-35390
X31270Y-36950
X31270Y-37750
X31276Y-36161
X31280Y-38106
X31280Y-38540
X31287Y-30235
X31288Y-53316
X31290Y-33830
X31290Y-52041
X31290Y-53630
X31293Y-52360
X31298Y-29831
X31300Y-30616
X31307Y-14130
X31334Y-21314
X31335Y-20941
X31339Y-21870
X31345Y-22157
X31350Y-21583
X31382Y-20465
X31387Y-47242
X31390Y-57264
X31390Y-45250
X31390Y-49753
X31390Y-54650
X31394Y-42740
X31395Y-42445
X31403Y-46936
X31418Y-43552
X31431Y-21105
X31433Y-22012
X31441Y-20799
X31450Y-51060
X31451Y-24190
X31465Y-21429
X31469Y-21717
X31476Y-48280
X31477Y-43711
X31484Y-56201
X31484Y-56394
X31484Y-56610
X31500Y-45550
X31536Y-43887
X31543Y-48121
X31545Y-50087
X31575Y-48429
X31575Y-13675
X31599Y-52039
X31599Y-52353
X31600Y-53630
X31600Y-41787
X31607Y-51732
X31610Y-31100
X31610Y-54260
X31611Y-53307
X31630Y-31470
X31630Y-31860
X31640Y-30670
X31650Y-57114
X31650Y-32240
X31650Y-36550
X31650Y-37340
X31653Y-36136
X31657Y-57307
X31660Y-32620
X31660Y-33410
X31660Y-34980
X31660Y-36950
X31660Y-37750
X31660Y-38130
X31665Y-56390
X31665Y-56614
X31669Y-56201
X31670Y-33020
X31670Y-38540
X31680Y-33820
X31680Y-34220
X31680Y-35400
X31690Y-34620
X31700Y-46052
X31738Y-43667
X31749Y-19394
X31780Y-25071
X31797Y-48231
X31806Y-43823
X31813Y-23011
X31825Y-48427
X31854Y-24167
X31861Y-43992
X31862Y-56201
X31900Y-12450
X31910Y-51430
X31930Y-53620
X31930Y-54650
X31937Y-48665
X31940Y-51050
X31980Y-25071
X32000Y-14550
X32007Y-31090
X32011Y-42410
X32015Y-49758
X32020Y-30690
X32020Y-31470
X32020Y-31860
X32030Y-32250
X32030Y-45250
X32030Y-46940
X32032Y-36102
X32040Y-36550
X32040Y-37330
X32049Y-33032
X32050Y-36950
X32050Y-37740
X32050Y-38130
X32051Y-34603
X32054Y-48269
X32056Y-43760
X32060Y-33420
X32060Y-34210
X32060Y-38530
X32063Y-56201
X32066Y-35403
X32070Y-33820
X32080Y-32640
X32089Y-34982
X32090Y-46530
X32118Y-51508
X32171Y-24228
X32177Y-25071
X32209Y-43834
X32215Y-48349
X32338Y-43714
X32338Y-49748
X32340Y-45240
X32354Y-43485
X32370Y-48222
X32374Y-25067
X32375Y-18550
X32378Y-51587
X32379Y-30707
X32379Y-44179
X32410Y-31080
X32420Y-31470
X32420Y-31860
X32420Y-32250
X32429Y-51752
X32430Y-36560
X32440Y-33790
X32440Y-36940
X32440Y-37730
X32440Y-38120
X32441Y-36154
X32441Y-37339
X32448Y-48718
X32460Y-33430
X32460Y-34210
X32460Y-35000
X32465Y-21425
X32470Y-32650
X32470Y-35400
X32470Y-38550
X32475Y-33040
X32480Y-24200
X32480Y-42092
X32485Y-34630
X32521Y-48331
X32525Y-13675
X32525Y-20565
X32540Y-22200
X32569Y-44244
X32600Y-46580
X32604Y-43493
X32606Y-52239
X32607Y-48657
X32635Y-42403
X32636Y-49753
X32637Y-45245
X32640Y-46940
X32685Y-20985
X32725Y-21805
X32728Y-47932
X32745Y-43729
X32748Y-43942
X32750Y-18550
X32755Y-28550
X32775Y-29825
X32788Y-30318
X32800Y-18050
X32800Y-31470
X32801Y-36148
X32810Y-30680
X32810Y-31070
X32810Y-31860
X32820Y-32240
X32820Y-36540
X32827Y-37331
X32830Y-38120
X32840Y-36950
X32840Y-37740
X32845Y-48201
X32850Y-38540
X32851Y-48417
X32862Y-57026
X32900Y-12450
X32900Y-14525
X32905Y-21425
X32925Y-20565
X32925Y-22205
X32934Y-24221
X32950Y-46930
X32954Y-49750
X32956Y-48698
X32959Y-45251
X32964Y-42413
X32970Y-46160
X32975Y-19414
X32996Y-44186
X33045Y-23318
X33080Y-43934
X33100Y-18575
X33122Y-25071
X33125Y-21805
X33128Y-48375
X33136Y-43583
X33145Y-20985
X33168Y-43407
X33175Y-48107
X33190Y-31476
X33200Y-30690
X33200Y-31080
X33200Y-31870
X33205Y-47940
X33210Y-30280
X33210Y-32250
X33210Y-33780
X33210Y-34170
X33210Y-35360
X33220Y-34570
X33220Y-34970
X33220Y-35760
X33220Y-37720
X33228Y-37339
X33230Y-32630
X33230Y-33020
X33230Y-36940
X33230Y-38130
X33240Y-36570
X33249Y-36164
X33250Y-33430
X33250Y-38540
X33277Y-24204
X33315Y-19507
X33316Y-52249
X33318Y-51583
X33319Y-25071
X33341Y-20164
X33345Y-20565
X33345Y-21425
X33360Y-22200
X33388Y-48512
X33437Y-43921
X33486Y-43758
X33496Y-26555
X33512Y-25067
X33525Y-21805
X33527Y-48347
X33535Y-27709
X33545Y-20985
X33567Y-44154
X33580Y-31476
X33580Y-45250
X33580Y-46932
X33590Y-31080
X33590Y-31870
X33599Y-49764
X33600Y-30680
X33600Y-35360
X33600Y-42418
X33600Y-45900
X33609Y-24176
X33610Y-29880
X33610Y-30270
X33610Y-32240
X33610Y-34570
X33620Y-32630
X33620Y-34190
X33620Y-35760
X33620Y-36160
X33620Y-36940
X33620Y-38130
X33622Y-37343
X33630Y-33410
X33630Y-34990
X33630Y-36560
X33630Y-37740
X33640Y-38540
X33713Y-25071
X33732Y-26547
X33736Y-26057
X33740Y-22200
X33745Y-21425
X33765Y-20565
X33775Y-48394
X33789Y-43514
X33810Y-27820
X33880Y-43671
X33890Y-29067
X33890Y-46940
X33891Y-44029
X33893Y-49138
X33898Y-43059
X33898Y-44318
X33900Y-12450
X33900Y-14525
X33900Y-45240
X33900Y-47250
X33900Y-47556
X33900Y-48814
X33903Y-42429
X33905Y-21805
X33910Y-49446
X33913Y-44632
X33917Y-49771
X33919Y-24182
X33925Y-20985
X33940Y-47908
X33943Y-48265
X33958Y-23262
X33975Y-13675
X33983Y-48556
X33984Y-31855
X34008Y-28902
X34010Y-33000
X34010Y-34190
X34010Y-34580
X34010Y-35370
X34010Y-36150
X34010Y-36550
X34010Y-36940
X34020Y-33410
X34020Y-33800
X34020Y-34980
X34020Y-35770
X34020Y-37340
X34020Y-37740
X34020Y-38530
X34051Y-27693
X34105Y-20565
X34120Y-22200
X34125Y-21425
X34177Y-26808
X34200Y-48519
X34208Y-44029
X34211Y-48150
X34213Y-42746
X34215Y-48814
X34215Y-49132
X34216Y-44316
X34217Y-47551
X34218Y-49439
X34220Y-44940
X34220Y-47240
X34223Y-43684
X34227Y-43057
X34228Y-47872
X34228Y-49766
X34230Y-46930
X34232Y-44635
X34247Y-24194
X34256Y-25543
X34276Y-27343
X34287Y-43370
X34300Y-57325
X34370Y-31870
X34390Y-34170
X34390Y-34570
X34390Y-35750
X34400Y-34970
X34400Y-35360
X34400Y-37730
X34410Y-33790
X34410Y-36160
X34410Y-36550
X34410Y-36950
X34410Y-37340
X34416Y-26808
X34420Y-38140
X34421Y-27858
X34437Y-27642
X34450Y-30060
X34500Y-25079
X34516Y-53917
X34520Y-44930
X34520Y-48532
X34523Y-48821
X34524Y-42436
X34526Y-49136
X34526Y-49431
X34528Y-44323
X34530Y-46930
X34530Y-47240
X34531Y-42741
X34533Y-48156
X34536Y-43682
X34536Y-47862
X34537Y-43363
X34539Y-47551
X34540Y-45260
X34544Y-43060
X34546Y-49769
X34574Y-24151
X34604Y-50038
X34657Y-26547
X34690Y-42260
X34697Y-25075
X34720Y-45610
X34724Y-27252
X34730Y-30840
X34740Y-27839
X34830Y-47260
X34836Y-48532
X34837Y-43684
X34840Y-44930
X34840Y-46940
X34841Y-43355
X34844Y-48818
X34844Y-49433
X34845Y-44020
X34847Y-49129
X34850Y-42725
X34854Y-44315
X34855Y-49759
X34857Y-47868
X34857Y-48156
X34860Y-42410
X34875Y-18975
X34894Y-25079
X34900Y-30829
X34900Y-12450
X34925Y-26550
X34937Y-27520
X34940Y-27957
X34952Y-24153
X34975Y-19625
X34992Y-19315
X35027Y-46755
X35098Y-25079
X35098Y-26547
X35100Y-17625
X35140Y-46950
X35140Y-47260
X35144Y-44020
X35144Y-48537
X35146Y-49102
X35151Y-48824
X35158Y-43355
X35158Y-49426
X35161Y-26800
X35162Y-26057
X35167Y-47863
X35169Y-49757
X35170Y-44630
X35190Y-45240
X35190Y-42735
X35200Y-44960
X35227Y-19910
X35230Y-47100
X35260Y-24119
X35270Y-33280
X35275Y-20750
X35276Y-27154
X35280Y-22940
X35300Y-22160
X35327Y-26925
X35327Y-50398
X35400Y-45900
X35410Y-33650
X35490Y-30290
X35490Y-31070
X35508Y-26661
X35550Y-16600
X35556Y-19472
X35563Y-46756
X35570Y-31630
X35610Y-31437
X35642Y-26823
X35653Y-46147
X35690Y-30430
X35780Y-31240
X35850Y-24725
X35886Y-26114
X35920Y-19960
X35950Y-23840
X36031Y-34409
X36099Y-49268
X36102Y-26110
X36107Y-49572
X36217Y-30783
X36232Y-25370
X36260Y-23840
X36300Y-53950
X36362Y-26114
X36378Y-30370
X36425Y-25378
X36453Y-32902
X36457Y-32213
X36457Y-33268
X36540Y-21220
X36543Y-37583
X36550Y-56950
X36571Y-37240
X36591Y-34937
X36594Y-25453
X36709Y-30559
X36720Y-22982
X36740Y-32520
X36780Y-22140
X36791Y-34941
X36900Y-47900
X36902Y-24091
X36933Y-26138
X36975Y-18375
X37025Y-52775
X37065Y-21578
X37130Y-47900
X37228Y-26126
X37374Y-34394
X37425Y-30677
X37500Y-52177
X37580Y-23460
X37600Y-23140
X37670Y-49430
X37670Y-49730
X37700Y-47510
X37780Y-47810
X37830Y-49730
X37830Y-50250
X37840Y-49430
X38157Y-33646
X38175Y-17975
X38180Y-22835
X38201Y-26575
X38415Y-16340
X38430Y-21608
X38525Y-15520
X38525Y-15830
X38570Y-51050
X38572Y-47490
X38575Y-56867
X38575Y-57525
X38635Y-16560
X38640Y-21397
X38660Y-47950
X38660Y-49270
X38732Y-34217
X38780Y-46555
X38995Y-21305
X39039Y-46622
X39205Y-21095
X39268Y-25469
X39276Y-25213
X39280Y-48490
X39287Y-25717
X39287Y-25933
X39340Y-21640
X39340Y-22835
X39350Y-17975
X39445Y-26173
X39461Y-26386
X39476Y-26598
X39480Y-47890
X39515Y-17090
X39537Y-16318
X39620Y-51050
X39735Y-17310
X39750Y-20826
X39750Y-21124
X39757Y-16538
X39760Y-24362
X39823Y-26587
X39839Y-26193
X39843Y-26386
X39901Y-24221
X40050Y-49420
X40050Y-49730
X40060Y-47810
X40070Y-20580
X40070Y-47500
X40280Y-20370
X40300Y-40059
X40420Y-47910
X40425Y-27220
X40500Y-17975
X40500Y-21640
X40520Y-22835
X40528Y-45224
X40650Y-47910
X40650Y-49560
X40660Y-49760
X40850Y-56950
X40950Y-52650
X40950Y-53550
X40961Y-44909
X40961Y-45106
X41060Y-31120
X41070Y-51450
X41075Y-51760
X41251Y-47471
X41260Y-47920
X41560Y-47950
X41560Y-49450
X41563Y-46933
X41563Y-48472
X41565Y-35945
X41565Y-44951
X41570Y-46440
X41575Y-35443
X41575Y-37441
X41575Y-38937
X41575Y-40925
X41575Y-42421
X41575Y-54425
X41581Y-53931
X41584Y-52934
X41585Y-38435
X41585Y-43927
X41590Y-50920
X41591Y-47461
X41594Y-39941
X41594Y-43406
X41600Y-45950
X41604Y-36949
X41638Y-34331
X41675Y-18000
X41680Y-21620
X41680Y-22835
X41874Y-33555
X41990Y-49430
X42025Y-54875
X42075Y-39453
X42075Y-41433
X42075Y-53409
X42077Y-40423
X42077Y-43435
X42077Y-44921
X42079Y-51421
X42080Y-49950
X42083Y-37917
X42083Y-43933
X42087Y-37431
X42087Y-38441
X42087Y-38937
X42087Y-39941
X42087Y-41939
X42087Y-46940
X42090Y-50940
X42091Y-42941
X42091Y-45945
X42097Y-54422
X42098Y-40921
X42102Y-50445
X42106Y-52448
X42110Y-46409
X42175Y-29100
X42175Y-29400
X42175Y-29750
X42175Y-30000
X42175Y-30250
X42500Y-27725
X42500Y-28100
X42500Y-30475
X42539Y-34976
X42559Y-41949
X42567Y-39421
X42570Y-44950
X42571Y-42429
X42571Y-45925
X42575Y-37421
X42575Y-38929
X42575Y-42965
X42575Y-48917
X42575Y-50929
X42579Y-35925
X42580Y-45430
X42580Y-46930
X42580Y-40424
X42583Y-51409
X42583Y-52445
X42583Y-52933
X42587Y-43445
X42587Y-46433
X42589Y-38435
X42589Y-39931
X42589Y-41437
X42591Y-47445
X42594Y-43921
X42594Y-48421
X42594Y-49925
X42598Y-49437
X42602Y-47949
X42608Y-36457
X42610Y-50441
X42650Y-54875
X42725Y-27525
X42725Y-27900
X42725Y-28300
X42775Y-30475
X43000Y-28770
X43002Y-35010
X43050Y-46470
X43050Y-53900
X43060Y-46960
X43060Y-47460
X43067Y-49913
X43070Y-45940
X43070Y-49420
X43070Y-50920
X43071Y-37421
X43071Y-38917
X43074Y-52425
X43075Y-52941
X43079Y-41433
X43081Y-54431
X43081Y-43425
X43081Y-43937
X43083Y-37913
X43083Y-41921
X43090Y-44940
X43091Y-35945
X43100Y-56050
X43100Y-56325
X43100Y-35453
X43106Y-47917
X43500Y-27900
X43500Y-28160
X43505Y-27645
X43559Y-46441
X43573Y-41427
X43573Y-42421
X43575Y-52925
X43580Y-52430
X43580Y-48420
X43580Y-51430
X43583Y-39931
X43583Y-43425
X43587Y-40937
X43590Y-44930
X43590Y-45940
X43591Y-49937
X43593Y-36437
X43600Y-54454
X43604Y-53903
X43616Y-54887
X43620Y-47460
X43654Y-49421
X43671Y-35020
X43880Y-28940
X43900Y-30000
X43925Y-17875
X43945Y-27665
X43945Y-27985
X44065Y-37411
X44065Y-38455
X44070Y-50920
X44075Y-42921
X44075Y-52450
X44080Y-45440
X44080Y-49430
X44083Y-47445
X44085Y-39931
X44087Y-38921
X44087Y-43437
X44090Y-45930
X44094Y-39439
X44094Y-41394
X44094Y-46413
X44098Y-43945
X44104Y-40955
X44114Y-47913
X44325Y-55975
X44405Y-27645
X44405Y-27905
X44405Y-28165
X44425Y-28921
X44563Y-41417
X44563Y-43402
X44567Y-37943
X44567Y-42437
X44567Y-42923
X44570Y-45440
X44570Y-48920
X44572Y-50947
X44575Y-39437
X44575Y-43933
X44575Y-51950
X44577Y-35433
X44577Y-35935
X44580Y-49430
X44580Y-52430
X44580Y-54967
X44587Y-36437
X44587Y-38947
X44587Y-39931
X44590Y-44920
X44590Y-45930
X44590Y-47440
X44590Y-50430
X44590Y-52950
X44590Y-53420
X44591Y-47894
X44594Y-53917
X44596Y-40945
X44602Y-40406
X44606Y-41913
X44610Y-38449
X44850Y-55725
X44900Y-26820
X45060Y-48910
X45060Y-50910
X45060Y-53410
X45069Y-37421
X45069Y-42913
X45069Y-43425
X45070Y-46920
X45075Y-34950
X45075Y-35425
X45075Y-35925
X45075Y-38450
X45075Y-49925
X45078Y-50421
X45079Y-41939
X45079Y-42431
X45080Y-47430
X45080Y-49430
X45080Y-51930
X45089Y-36949
X45090Y-44930
X45091Y-45421
X45100Y-38925
X45100Y-39925
X45100Y-40425
X45105Y-53900
X45122Y-47957
X45130Y-54369
X45157Y-27839
X45250Y-16175
X45500Y-27513
X45500Y-55200
X45550Y-49925
X45575Y-36425
X45575Y-36925
X45575Y-38925
X45575Y-39425
X45575Y-43900
X45575Y-44425
X45575Y-45900
X45575Y-46400
X45575Y-47925
X45575Y-48400
X45575Y-51450
X45575Y-52900
X45600Y-34950
X45600Y-37425
X45600Y-40925
X45600Y-41425
X45600Y-42925
X45600Y-43400
X45600Y-44900
X45600Y-45400
X45600Y-46900
X45600Y-47400
X45600Y-48925
X45600Y-49425
X45600Y-52425
X45955Y-52950
X46030Y-55542
X46060Y-52340
X46075Y-27550
X46075Y-51925
X46095Y-52700
X46095Y-53175
X46095Y-54500
X46161Y-34803
X46250Y-28300
X46250Y-50200
X46250Y-50700
X46471Y-56198
X46476Y-56508
T2
X37860Y-22080
T3
X21950Y-54100
X22950Y-54100
X23950Y-54100
T4
X15827Y-26730
X15827Y-27730
X16327Y-27230
X16827Y-26730
X16827Y-27730
X15827Y-31730
X15827Y-32730
X16327Y-32230
X16827Y-31730
X16827Y-32730
X19017Y-31730
X19017Y-32730
X19517Y-32230
X20017Y-31730
X20017Y-32730
X19017Y-29230
X19017Y-30230
X19517Y-29730
X20017Y-29230
X20017Y-30230
X15827Y-24230
X15827Y-25230
X16327Y-24730
X16827Y-24230
X16827Y-25230
X15827Y-29230
X15827Y-30230
X16327Y-29730
X16827Y-29230
X16827Y-30230
X19017Y-26730
X19017Y-27730
X19517Y-27230
X20017Y-26730
X20017Y-27730
X19017Y-24230
X19017Y-25230
X19517Y-24730
X20017Y-24230
X20017Y-25230
T5
X37701Y-17098
X38602Y-17098
X39000Y-14500
X39402Y-15201
X39803Y-14500
X40205Y-15201
X40606Y-14500
X41008Y-15201
X41409Y-14500
X41811Y-15201
X42201Y-17098
X43102Y-17098
T6
X21950Y-56100
X23950Y-56100
T8
X26800Y-18110
X26800Y-19110
X26800Y-20110
T9
X37201Y-14850
X43602Y-14850
T10
X42519Y-57319
X12952Y-56925
X45235Y-12831
X12952Y-12831
X12952Y-43146
X23390Y-27502
X36776Y-40888
X42519Y-32516
X36776Y-27502
X23390Y-40888
T7
X15028Y-56161G85X15028Y-56751
G05
X16406Y-53700G85X17194Y-53700
G05
X16544Y-56062G85X17056Y-56062
G05
X18572Y-56161G85X18572Y-56751
G05
T0
M30
