G04 #@! TF.GenerationSoftware,KiCad,Pcbnew,5.0.0-rc3-6a2723a~65~ubuntu16.04.1*
G04 #@! TF.CreationDate,2018-11-29T22:42:40+06:00*
G04 #@! TF.ProjectId,Ki5,4B69352E6B696361645F706362000000,rev?*
G04 #@! TF.SameCoordinates,Original*
G04 #@! TF.FileFunction,Soldermask,Top*
G04 #@! TF.FilePolarity,Negative*
%FSLAX46Y46*%
G04 Gerber Fmt 4.6, Leading zero omitted, Abs format (unit mm)*
G04 Created by KiCad (PCBNEW 5.0.0-rc3-6a2723a~65~ubuntu16.04.1) date Thu Nov 29 22:42:40 2018*
%MOMM*%
%LPD*%
G01*
G04 APERTURE LIST*
%ADD10C,0.100000*%
%ADD11C,0.250000*%
%ADD12C,0.500000*%
%ADD13R,2.750000X1.000000*%
%ADD14R,1.010000X0.762000*%
%ADD15R,1.010000X2.287000*%
%ADD16R,0.500000X0.250000*%
%ADD17R,0.900000X1.600000*%
%ADD18R,1.000000X0.900000*%
%ADD19R,1.000000X1.550000*%
%ADD20R,1.500000X1.500000*%
%ADD21R,0.700000X1.750000*%
%ADD22R,0.800000X1.400000*%
%ADD23R,1.450000X1.000000*%
%ADD24R,0.800000X1.500000*%
%ADD25R,1.300000X1.500000*%
%ADD26R,1.550000X1.300000*%
%ADD27C,1.500000*%
%ADD28C,2.000000*%
%ADD29C,3.250000*%
%ADD30R,0.762000X1.010000*%
%ADD31R,2.287000X1.010000*%
%ADD32C,0.300000*%
%ADD33C,0.200000*%
%ADD34R,3.100000X2.100000*%
%ADD35O,0.800000X0.200000*%
%ADD36O,0.200000X0.800000*%
%ADD37R,2.350000X5.100000*%
%ADD38R,0.640000X2.030000*%
%ADD39C,1.270000*%
%ADD40C,1.600000*%
%ADD41O,2.000000X3.500000*%
%ADD42O,3.300000X2.000000*%
%ADD43R,4.000000X2.000000*%
%ADD44C,0.420000*%
%ADD45R,0.650000X0.575000*%
%ADD46R,0.575000X0.650000*%
%ADD47R,1.000000X0.820000*%
%ADD48R,1.120000X1.400000*%
%ADD49R,1.400000X1.120000*%
%ADD50R,0.820000X1.000000*%
%ADD51R,2.600000X2.060000*%
%ADD52R,1.100000X1.100000*%
%ADD53R,0.600000X0.700000*%
%ADD54C,1.400000*%
%ADD55R,0.450000X1.380000*%
%ADD56R,1.475000X2.100000*%
%ADD57R,2.375000X1.900000*%
%ADD58R,1.175000X1.900000*%
%ADD59R,0.740000X2.400000*%
%ADD60R,2.400000X0.740000*%
%ADD61R,2.030000X1.730000*%
%ADD62O,2.030000X1.730000*%
%ADD63R,2.300000X0.850000*%
%ADD64R,0.850000X2.300000*%
%ADD65C,4.500000*%
%ADD66R,0.650000X0.400000*%
%ADD67R,0.500000X0.320000*%
%ADD68R,0.320000X0.500000*%
%ADD69R,0.400000X0.500000*%
%ADD70R,0.300000X0.500000*%
%ADD71R,1.120000X2.440000*%
%ADD72O,0.990000X0.420000*%
%ADD73R,0.420000X0.420000*%
%ADD74R,0.680000X1.050000*%
%ADD75R,0.280000X0.700000*%
%ADD76R,0.260000X0.500000*%
%ADD77R,1.650000X2.400000*%
%ADD78R,0.250000X1.000000*%
%ADD79R,1.000000X0.250000*%
%ADD80R,0.250000X0.500000*%
%ADD81R,1.600000X0.900000*%
%ADD82O,0.300000X0.750000*%
%ADD83O,0.750000X0.300000*%
%ADD84R,1.800000X1.800000*%
%ADD85R,1.060000X0.650000*%
%ADD86R,0.400000X0.650000*%
%ADD87R,0.400000X1.080000*%
%ADD88R,0.350000X0.240000*%
%ADD89R,1.450000X0.450000*%
%ADD90R,1.400000X1.200000*%
G04 APERTURE END LIST*
D10*
G04 #@! TO.C,U35*
G36*
X75962626Y-46357301D02*
X75968693Y-46358201D01*
X75974643Y-46359691D01*
X75980418Y-46361758D01*
X75985962Y-46364380D01*
X75991223Y-46367533D01*
X75996150Y-46371187D01*
X76000694Y-46375306D01*
X76004813Y-46379850D01*
X76008467Y-46384777D01*
X76011620Y-46390038D01*
X76014242Y-46395582D01*
X76016309Y-46401357D01*
X76017799Y-46407307D01*
X76018699Y-46413374D01*
X76019000Y-46419500D01*
X76019000Y-46544500D01*
X76018699Y-46550626D01*
X76017799Y-46556693D01*
X76016309Y-46562643D01*
X76014242Y-46568418D01*
X76011620Y-46573962D01*
X76008467Y-46579223D01*
X76004813Y-46584150D01*
X76000694Y-46588694D01*
X75996150Y-46592813D01*
X75991223Y-46596467D01*
X75985962Y-46599620D01*
X75980418Y-46602242D01*
X75974643Y-46604309D01*
X75968693Y-46605799D01*
X75962626Y-46606699D01*
X75956500Y-46607000D01*
X75381500Y-46607000D01*
X75375374Y-46606699D01*
X75369307Y-46605799D01*
X75363357Y-46604309D01*
X75357582Y-46602242D01*
X75352038Y-46599620D01*
X75346777Y-46596467D01*
X75341850Y-46592813D01*
X75337306Y-46588694D01*
X75333187Y-46584150D01*
X75329533Y-46579223D01*
X75326380Y-46573962D01*
X75323758Y-46568418D01*
X75321691Y-46562643D01*
X75320201Y-46556693D01*
X75319301Y-46550626D01*
X75319000Y-46544500D01*
X75319000Y-46419500D01*
X75319301Y-46413374D01*
X75320201Y-46407307D01*
X75321691Y-46401357D01*
X75323758Y-46395582D01*
X75326380Y-46390038D01*
X75329533Y-46384777D01*
X75333187Y-46379850D01*
X75337306Y-46375306D01*
X75341850Y-46371187D01*
X75346777Y-46367533D01*
X75352038Y-46364380D01*
X75357582Y-46361758D01*
X75363357Y-46359691D01*
X75369307Y-46358201D01*
X75375374Y-46357301D01*
X75381500Y-46357000D01*
X75956500Y-46357000D01*
X75962626Y-46357301D01*
X75962626Y-46357301D01*
G37*
D11*
X75669000Y-46482000D03*
D10*
G36*
X75962626Y-46857301D02*
X75968693Y-46858201D01*
X75974643Y-46859691D01*
X75980418Y-46861758D01*
X75985962Y-46864380D01*
X75991223Y-46867533D01*
X75996150Y-46871187D01*
X76000694Y-46875306D01*
X76004813Y-46879850D01*
X76008467Y-46884777D01*
X76011620Y-46890038D01*
X76014242Y-46895582D01*
X76016309Y-46901357D01*
X76017799Y-46907307D01*
X76018699Y-46913374D01*
X76019000Y-46919500D01*
X76019000Y-47044500D01*
X76018699Y-47050626D01*
X76017799Y-47056693D01*
X76016309Y-47062643D01*
X76014242Y-47068418D01*
X76011620Y-47073962D01*
X76008467Y-47079223D01*
X76004813Y-47084150D01*
X76000694Y-47088694D01*
X75996150Y-47092813D01*
X75991223Y-47096467D01*
X75985962Y-47099620D01*
X75980418Y-47102242D01*
X75974643Y-47104309D01*
X75968693Y-47105799D01*
X75962626Y-47106699D01*
X75956500Y-47107000D01*
X75381500Y-47107000D01*
X75375374Y-47106699D01*
X75369307Y-47105799D01*
X75363357Y-47104309D01*
X75357582Y-47102242D01*
X75352038Y-47099620D01*
X75346777Y-47096467D01*
X75341850Y-47092813D01*
X75337306Y-47088694D01*
X75333187Y-47084150D01*
X75329533Y-47079223D01*
X75326380Y-47073962D01*
X75323758Y-47068418D01*
X75321691Y-47062643D01*
X75320201Y-47056693D01*
X75319301Y-47050626D01*
X75319000Y-47044500D01*
X75319000Y-46919500D01*
X75319301Y-46913374D01*
X75320201Y-46907307D01*
X75321691Y-46901357D01*
X75323758Y-46895582D01*
X75326380Y-46890038D01*
X75329533Y-46884777D01*
X75333187Y-46879850D01*
X75337306Y-46875306D01*
X75341850Y-46871187D01*
X75346777Y-46867533D01*
X75352038Y-46864380D01*
X75357582Y-46861758D01*
X75363357Y-46859691D01*
X75369307Y-46858201D01*
X75375374Y-46857301D01*
X75381500Y-46857000D01*
X75956500Y-46857000D01*
X75962626Y-46857301D01*
X75962626Y-46857301D01*
G37*
D11*
X75669000Y-46982000D03*
D10*
G36*
X75962626Y-47357301D02*
X75968693Y-47358201D01*
X75974643Y-47359691D01*
X75980418Y-47361758D01*
X75985962Y-47364380D01*
X75991223Y-47367533D01*
X75996150Y-47371187D01*
X76000694Y-47375306D01*
X76004813Y-47379850D01*
X76008467Y-47384777D01*
X76011620Y-47390038D01*
X76014242Y-47395582D01*
X76016309Y-47401357D01*
X76017799Y-47407307D01*
X76018699Y-47413374D01*
X76019000Y-47419500D01*
X76019000Y-47544500D01*
X76018699Y-47550626D01*
X76017799Y-47556693D01*
X76016309Y-47562643D01*
X76014242Y-47568418D01*
X76011620Y-47573962D01*
X76008467Y-47579223D01*
X76004813Y-47584150D01*
X76000694Y-47588694D01*
X75996150Y-47592813D01*
X75991223Y-47596467D01*
X75985962Y-47599620D01*
X75980418Y-47602242D01*
X75974643Y-47604309D01*
X75968693Y-47605799D01*
X75962626Y-47606699D01*
X75956500Y-47607000D01*
X75381500Y-47607000D01*
X75375374Y-47606699D01*
X75369307Y-47605799D01*
X75363357Y-47604309D01*
X75357582Y-47602242D01*
X75352038Y-47599620D01*
X75346777Y-47596467D01*
X75341850Y-47592813D01*
X75337306Y-47588694D01*
X75333187Y-47584150D01*
X75329533Y-47579223D01*
X75326380Y-47573962D01*
X75323758Y-47568418D01*
X75321691Y-47562643D01*
X75320201Y-47556693D01*
X75319301Y-47550626D01*
X75319000Y-47544500D01*
X75319000Y-47419500D01*
X75319301Y-47413374D01*
X75320201Y-47407307D01*
X75321691Y-47401357D01*
X75323758Y-47395582D01*
X75326380Y-47390038D01*
X75329533Y-47384777D01*
X75333187Y-47379850D01*
X75337306Y-47375306D01*
X75341850Y-47371187D01*
X75346777Y-47367533D01*
X75352038Y-47364380D01*
X75357582Y-47361758D01*
X75363357Y-47359691D01*
X75369307Y-47358201D01*
X75375374Y-47357301D01*
X75381500Y-47357000D01*
X75956500Y-47357000D01*
X75962626Y-47357301D01*
X75962626Y-47357301D01*
G37*
D11*
X75669000Y-47482000D03*
D10*
G36*
X74362626Y-47357301D02*
X74368693Y-47358201D01*
X74374643Y-47359691D01*
X74380418Y-47361758D01*
X74385962Y-47364380D01*
X74391223Y-47367533D01*
X74396150Y-47371187D01*
X74400694Y-47375306D01*
X74404813Y-47379850D01*
X74408467Y-47384777D01*
X74411620Y-47390038D01*
X74414242Y-47395582D01*
X74416309Y-47401357D01*
X74417799Y-47407307D01*
X74418699Y-47413374D01*
X74419000Y-47419500D01*
X74419000Y-47544500D01*
X74418699Y-47550626D01*
X74417799Y-47556693D01*
X74416309Y-47562643D01*
X74414242Y-47568418D01*
X74411620Y-47573962D01*
X74408467Y-47579223D01*
X74404813Y-47584150D01*
X74400694Y-47588694D01*
X74396150Y-47592813D01*
X74391223Y-47596467D01*
X74385962Y-47599620D01*
X74380418Y-47602242D01*
X74374643Y-47604309D01*
X74368693Y-47605799D01*
X74362626Y-47606699D01*
X74356500Y-47607000D01*
X73781500Y-47607000D01*
X73775374Y-47606699D01*
X73769307Y-47605799D01*
X73763357Y-47604309D01*
X73757582Y-47602242D01*
X73752038Y-47599620D01*
X73746777Y-47596467D01*
X73741850Y-47592813D01*
X73737306Y-47588694D01*
X73733187Y-47584150D01*
X73729533Y-47579223D01*
X73726380Y-47573962D01*
X73723758Y-47568418D01*
X73721691Y-47562643D01*
X73720201Y-47556693D01*
X73719301Y-47550626D01*
X73719000Y-47544500D01*
X73719000Y-47419500D01*
X73719301Y-47413374D01*
X73720201Y-47407307D01*
X73721691Y-47401357D01*
X73723758Y-47395582D01*
X73726380Y-47390038D01*
X73729533Y-47384777D01*
X73733187Y-47379850D01*
X73737306Y-47375306D01*
X73741850Y-47371187D01*
X73746777Y-47367533D01*
X73752038Y-47364380D01*
X73757582Y-47361758D01*
X73763357Y-47359691D01*
X73769307Y-47358201D01*
X73775374Y-47357301D01*
X73781500Y-47357000D01*
X74356500Y-47357000D01*
X74362626Y-47357301D01*
X74362626Y-47357301D01*
G37*
D11*
X74069000Y-47482000D03*
D10*
G36*
X74362626Y-46857301D02*
X74368693Y-46858201D01*
X74374643Y-46859691D01*
X74380418Y-46861758D01*
X74385962Y-46864380D01*
X74391223Y-46867533D01*
X74396150Y-46871187D01*
X74400694Y-46875306D01*
X74404813Y-46879850D01*
X74408467Y-46884777D01*
X74411620Y-46890038D01*
X74414242Y-46895582D01*
X74416309Y-46901357D01*
X74417799Y-46907307D01*
X74418699Y-46913374D01*
X74419000Y-46919500D01*
X74419000Y-47044500D01*
X74418699Y-47050626D01*
X74417799Y-47056693D01*
X74416309Y-47062643D01*
X74414242Y-47068418D01*
X74411620Y-47073962D01*
X74408467Y-47079223D01*
X74404813Y-47084150D01*
X74400694Y-47088694D01*
X74396150Y-47092813D01*
X74391223Y-47096467D01*
X74385962Y-47099620D01*
X74380418Y-47102242D01*
X74374643Y-47104309D01*
X74368693Y-47105799D01*
X74362626Y-47106699D01*
X74356500Y-47107000D01*
X73781500Y-47107000D01*
X73775374Y-47106699D01*
X73769307Y-47105799D01*
X73763357Y-47104309D01*
X73757582Y-47102242D01*
X73752038Y-47099620D01*
X73746777Y-47096467D01*
X73741850Y-47092813D01*
X73737306Y-47088694D01*
X73733187Y-47084150D01*
X73729533Y-47079223D01*
X73726380Y-47073962D01*
X73723758Y-47068418D01*
X73721691Y-47062643D01*
X73720201Y-47056693D01*
X73719301Y-47050626D01*
X73719000Y-47044500D01*
X73719000Y-46919500D01*
X73719301Y-46913374D01*
X73720201Y-46907307D01*
X73721691Y-46901357D01*
X73723758Y-46895582D01*
X73726380Y-46890038D01*
X73729533Y-46884777D01*
X73733187Y-46879850D01*
X73737306Y-46875306D01*
X73741850Y-46871187D01*
X73746777Y-46867533D01*
X73752038Y-46864380D01*
X73757582Y-46861758D01*
X73763357Y-46859691D01*
X73769307Y-46858201D01*
X73775374Y-46857301D01*
X73781500Y-46857000D01*
X74356500Y-46857000D01*
X74362626Y-46857301D01*
X74362626Y-46857301D01*
G37*
D11*
X74069000Y-46982000D03*
D10*
G36*
X74362626Y-46357301D02*
X74368693Y-46358201D01*
X74374643Y-46359691D01*
X74380418Y-46361758D01*
X74385962Y-46364380D01*
X74391223Y-46367533D01*
X74396150Y-46371187D01*
X74400694Y-46375306D01*
X74404813Y-46379850D01*
X74408467Y-46384777D01*
X74411620Y-46390038D01*
X74414242Y-46395582D01*
X74416309Y-46401357D01*
X74417799Y-46407307D01*
X74418699Y-46413374D01*
X74419000Y-46419500D01*
X74419000Y-46544500D01*
X74418699Y-46550626D01*
X74417799Y-46556693D01*
X74416309Y-46562643D01*
X74414242Y-46568418D01*
X74411620Y-46573962D01*
X74408467Y-46579223D01*
X74404813Y-46584150D01*
X74400694Y-46588694D01*
X74396150Y-46592813D01*
X74391223Y-46596467D01*
X74385962Y-46599620D01*
X74380418Y-46602242D01*
X74374643Y-46604309D01*
X74368693Y-46605799D01*
X74362626Y-46606699D01*
X74356500Y-46607000D01*
X73781500Y-46607000D01*
X73775374Y-46606699D01*
X73769307Y-46605799D01*
X73763357Y-46604309D01*
X73757582Y-46602242D01*
X73752038Y-46599620D01*
X73746777Y-46596467D01*
X73741850Y-46592813D01*
X73737306Y-46588694D01*
X73733187Y-46584150D01*
X73729533Y-46579223D01*
X73726380Y-46573962D01*
X73723758Y-46568418D01*
X73721691Y-46562643D01*
X73720201Y-46556693D01*
X73719301Y-46550626D01*
X73719000Y-46544500D01*
X73719000Y-46419500D01*
X73719301Y-46413374D01*
X73720201Y-46407307D01*
X73721691Y-46401357D01*
X73723758Y-46395582D01*
X73726380Y-46390038D01*
X73729533Y-46384777D01*
X73733187Y-46379850D01*
X73737306Y-46375306D01*
X73741850Y-46371187D01*
X73746777Y-46367533D01*
X73752038Y-46364380D01*
X73757582Y-46361758D01*
X73763357Y-46359691D01*
X73769307Y-46358201D01*
X73775374Y-46357301D01*
X73781500Y-46357000D01*
X74356500Y-46357000D01*
X74362626Y-46357301D01*
X74362626Y-46357301D01*
G37*
D11*
X74069000Y-46482000D03*
D10*
G36*
X75006252Y-46352602D02*
X75018386Y-46354402D01*
X75030286Y-46357382D01*
X75041835Y-46361515D01*
X75052925Y-46366760D01*
X75063446Y-46373066D01*
X75073299Y-46380374D01*
X75082388Y-46388612D01*
X75090626Y-46397701D01*
X75097934Y-46407554D01*
X75104240Y-46418075D01*
X75109485Y-46429165D01*
X75113618Y-46440714D01*
X75116598Y-46452614D01*
X75118398Y-46464748D01*
X75119000Y-46477000D01*
X75119000Y-47487000D01*
X75118398Y-47499252D01*
X75116598Y-47511386D01*
X75113618Y-47523286D01*
X75109485Y-47534835D01*
X75104240Y-47545925D01*
X75097934Y-47556446D01*
X75090626Y-47566299D01*
X75082388Y-47575388D01*
X75073299Y-47583626D01*
X75063446Y-47590934D01*
X75052925Y-47597240D01*
X75041835Y-47602485D01*
X75030286Y-47606618D01*
X75018386Y-47609598D01*
X75006252Y-47611398D01*
X74994000Y-47612000D01*
X74744000Y-47612000D01*
X74731748Y-47611398D01*
X74719614Y-47609598D01*
X74707714Y-47606618D01*
X74696165Y-47602485D01*
X74685075Y-47597240D01*
X74674554Y-47590934D01*
X74664701Y-47583626D01*
X74655612Y-47575388D01*
X74647374Y-47566299D01*
X74640066Y-47556446D01*
X74633760Y-47545925D01*
X74628515Y-47534835D01*
X74624382Y-47523286D01*
X74621402Y-47511386D01*
X74619602Y-47499252D01*
X74619000Y-47487000D01*
X74619000Y-46477000D01*
X74619602Y-46464748D01*
X74621402Y-46452614D01*
X74624382Y-46440714D01*
X74628515Y-46429165D01*
X74633760Y-46418075D01*
X74640066Y-46407554D01*
X74647374Y-46397701D01*
X74655612Y-46388612D01*
X74664701Y-46380374D01*
X74674554Y-46373066D01*
X74685075Y-46366760D01*
X74696165Y-46361515D01*
X74707714Y-46357382D01*
X74719614Y-46354402D01*
X74731748Y-46352602D01*
X74744000Y-46352000D01*
X74994000Y-46352000D01*
X75006252Y-46352602D01*
X75006252Y-46352602D01*
G37*
D12*
X74869000Y-46982000D03*
G04 #@! TD*
D13*
G04 #@! TO.C,J2*
X36907000Y-43590000D03*
X30657000Y-43590000D03*
X36907000Y-45590000D03*
X30657000Y-45590000D03*
X36907000Y-47590000D03*
X30657000Y-47590000D03*
X36907000Y-49590000D03*
X30657000Y-49590000D03*
X36907000Y-51590000D03*
X30657000Y-51590000D03*
X36907000Y-53590000D03*
X30657000Y-53590000D03*
X36907000Y-55590000D03*
X30657000Y-55590000D03*
X36907000Y-57590000D03*
X30657000Y-57590000D03*
X36907000Y-59590000D03*
X30657000Y-59590000D03*
X36907000Y-61590000D03*
X30657000Y-61590000D03*
G04 #@! TD*
D14*
G04 #@! TO.C,RS10*
X100631200Y-62953400D03*
X102401200Y-62953400D03*
D15*
X102401200Y-64858900D03*
X100631200Y-64859400D03*
G04 #@! TD*
D16*
G04 #@! TO.C,U15*
X58638400Y-131677600D03*
X58638400Y-131177600D03*
X60538400Y-131177600D03*
X60538400Y-132177600D03*
X60538400Y-132677600D03*
D17*
X59588400Y-131927600D03*
D16*
X58638400Y-132677600D03*
X58638400Y-132177600D03*
X60538400Y-131677600D03*
G04 #@! TD*
D18*
G04 #@! TO.C,X2*
X57693000Y-79082600D03*
X59843000Y-79082600D03*
X59843000Y-80632600D03*
X57693000Y-80632600D03*
G04 #@! TD*
D19*
G04 #@! TO.C,J10*
X103687600Y-132490000D03*
D20*
X103737600Y-143165000D03*
D21*
X101287600Y-143290000D03*
X100187600Y-143290000D03*
X99087600Y-143290000D03*
X97987600Y-143290000D03*
X96887600Y-143290000D03*
X95787600Y-143290000D03*
X94687600Y-143290000D03*
D22*
X104087600Y-134915000D03*
D23*
X92462600Y-134065000D03*
D24*
X92137600Y-135565000D03*
D25*
X92387600Y-143165000D03*
D21*
X93587600Y-143290000D03*
G04 #@! TD*
D26*
G04 #@! TO.C,S2*
X66370400Y-142784000D03*
X66370400Y-147284000D03*
X74330400Y-147284000D03*
X74330400Y-142784000D03*
G04 #@! TD*
D27*
G04 #@! TO.C,J12*
X109480000Y-43430000D03*
X107190000Y-43430000D03*
X98050000Y-43430000D03*
X95760000Y-43430000D03*
D28*
X94490000Y-37720000D03*
X110750000Y-37720000D03*
D29*
X108970000Y-34290000D03*
X96270000Y-34290000D03*
D27*
X106200000Y-38610000D03*
X104160000Y-38610000D03*
X102120000Y-38610000D03*
X100080000Y-38610000D03*
X105180000Y-36830000D03*
X103140000Y-36830000D03*
X101100000Y-36830000D03*
D20*
X99060000Y-36830000D03*
G04 #@! TD*
D30*
G04 #@! TO.C,RS1*
X55086800Y-114519200D03*
X55086800Y-116289200D03*
D31*
X53181300Y-116289200D03*
X53180800Y-114519200D03*
G04 #@! TD*
D30*
G04 #@! TO.C,RS2*
X48368000Y-116289200D03*
X48368000Y-114519200D03*
D31*
X50273500Y-114519200D03*
X50274000Y-116289200D03*
G04 #@! TD*
D10*
G04 #@! TO.C,U26*
G36*
X98859151Y-129517361D02*
X98866432Y-129518441D01*
X98873571Y-129520229D01*
X98880501Y-129522709D01*
X98887155Y-129525856D01*
X98893468Y-129529640D01*
X98899379Y-129534024D01*
X98904833Y-129538967D01*
X98909776Y-129544421D01*
X98914160Y-129550332D01*
X98917944Y-129556645D01*
X98921091Y-129563299D01*
X98923571Y-129570229D01*
X98925359Y-129577368D01*
X98926439Y-129584649D01*
X98926800Y-129592000D01*
X98926800Y-129742000D01*
X98926439Y-129749351D01*
X98925359Y-129756632D01*
X98923571Y-129763771D01*
X98921091Y-129770701D01*
X98917944Y-129777355D01*
X98914160Y-129783668D01*
X98909776Y-129789579D01*
X98904833Y-129795033D01*
X98899379Y-129799976D01*
X98893468Y-129804360D01*
X98887155Y-129808144D01*
X98880501Y-129811291D01*
X98873571Y-129813771D01*
X98866432Y-129815559D01*
X98859151Y-129816639D01*
X98851800Y-129817000D01*
X98451800Y-129817000D01*
X98444449Y-129816639D01*
X98437168Y-129815559D01*
X98430029Y-129813771D01*
X98423099Y-129811291D01*
X98416445Y-129808144D01*
X98410132Y-129804360D01*
X98404221Y-129799976D01*
X98398767Y-129795033D01*
X98393824Y-129789579D01*
X98389440Y-129783668D01*
X98385656Y-129777355D01*
X98382509Y-129770701D01*
X98380029Y-129763771D01*
X98378241Y-129756632D01*
X98377161Y-129749351D01*
X98376800Y-129742000D01*
X98376800Y-129592000D01*
X98377161Y-129584649D01*
X98378241Y-129577368D01*
X98380029Y-129570229D01*
X98382509Y-129563299D01*
X98385656Y-129556645D01*
X98389440Y-129550332D01*
X98393824Y-129544421D01*
X98398767Y-129538967D01*
X98404221Y-129534024D01*
X98410132Y-129529640D01*
X98416445Y-129525856D01*
X98423099Y-129522709D01*
X98430029Y-129520229D01*
X98437168Y-129518441D01*
X98444449Y-129517361D01*
X98451800Y-129517000D01*
X98851800Y-129517000D01*
X98859151Y-129517361D01*
X98859151Y-129517361D01*
G37*
D32*
X98651800Y-129667000D03*
D10*
G36*
X100219151Y-129517361D02*
X100226432Y-129518441D01*
X100233571Y-129520229D01*
X100240501Y-129522709D01*
X100247155Y-129525856D01*
X100253468Y-129529640D01*
X100259379Y-129534024D01*
X100264833Y-129538967D01*
X100269776Y-129544421D01*
X100274160Y-129550332D01*
X100277944Y-129556645D01*
X100281091Y-129563299D01*
X100283571Y-129570229D01*
X100285359Y-129577368D01*
X100286439Y-129584649D01*
X100286800Y-129592000D01*
X100286800Y-129742000D01*
X100286439Y-129749351D01*
X100285359Y-129756632D01*
X100283571Y-129763771D01*
X100281091Y-129770701D01*
X100277944Y-129777355D01*
X100274160Y-129783668D01*
X100269776Y-129789579D01*
X100264833Y-129795033D01*
X100259379Y-129799976D01*
X100253468Y-129804360D01*
X100247155Y-129808144D01*
X100240501Y-129811291D01*
X100233571Y-129813771D01*
X100226432Y-129815559D01*
X100219151Y-129816639D01*
X100211800Y-129817000D01*
X99811800Y-129817000D01*
X99804449Y-129816639D01*
X99797168Y-129815559D01*
X99790029Y-129813771D01*
X99783099Y-129811291D01*
X99776445Y-129808144D01*
X99770132Y-129804360D01*
X99764221Y-129799976D01*
X99758767Y-129795033D01*
X99753824Y-129789579D01*
X99749440Y-129783668D01*
X99745656Y-129777355D01*
X99742509Y-129770701D01*
X99740029Y-129763771D01*
X99738241Y-129756632D01*
X99737161Y-129749351D01*
X99736800Y-129742000D01*
X99736800Y-129592000D01*
X99737161Y-129584649D01*
X99738241Y-129577368D01*
X99740029Y-129570229D01*
X99742509Y-129563299D01*
X99745656Y-129556645D01*
X99749440Y-129550332D01*
X99753824Y-129544421D01*
X99758767Y-129538967D01*
X99764221Y-129534024D01*
X99770132Y-129529640D01*
X99776445Y-129525856D01*
X99783099Y-129522709D01*
X99790029Y-129520229D01*
X99797168Y-129518441D01*
X99804449Y-129517361D01*
X99811800Y-129517000D01*
X100211800Y-129517000D01*
X100219151Y-129517361D01*
X100219151Y-129517361D01*
G37*
D32*
X100011800Y-129667000D03*
D10*
G36*
X100386701Y-128792241D02*
X100391555Y-128792961D01*
X100396314Y-128794153D01*
X100400934Y-128795806D01*
X100405370Y-128797904D01*
X100409579Y-128800427D01*
X100413520Y-128803349D01*
X100417155Y-128806645D01*
X100420451Y-128810280D01*
X100423373Y-128814221D01*
X100425896Y-128818430D01*
X100427994Y-128822866D01*
X100429647Y-128827486D01*
X100430839Y-128832245D01*
X100431559Y-128837099D01*
X100431800Y-128842000D01*
X100431800Y-129242000D01*
X100431559Y-129246901D01*
X100430839Y-129251755D01*
X100429647Y-129256514D01*
X100427994Y-129261134D01*
X100425896Y-129265570D01*
X100423373Y-129269779D01*
X100420451Y-129273720D01*
X100417155Y-129277355D01*
X100413520Y-129280651D01*
X100409579Y-129283573D01*
X100405370Y-129286096D01*
X100400934Y-129288194D01*
X100396314Y-129289847D01*
X100391555Y-129291039D01*
X100386701Y-129291759D01*
X100381800Y-129292000D01*
X100281800Y-129292000D01*
X100276899Y-129291759D01*
X100272045Y-129291039D01*
X100267286Y-129289847D01*
X100262666Y-129288194D01*
X100258230Y-129286096D01*
X100254021Y-129283573D01*
X100250080Y-129280651D01*
X100246445Y-129277355D01*
X100243149Y-129273720D01*
X100240227Y-129269779D01*
X100237704Y-129265570D01*
X100235606Y-129261134D01*
X100233953Y-129256514D01*
X100232761Y-129251755D01*
X100232041Y-129246901D01*
X100231800Y-129242000D01*
X100231800Y-128842000D01*
X100232041Y-128837099D01*
X100232761Y-128832245D01*
X100233953Y-128827486D01*
X100235606Y-128822866D01*
X100237704Y-128818430D01*
X100240227Y-128814221D01*
X100243149Y-128810280D01*
X100246445Y-128806645D01*
X100250080Y-128803349D01*
X100254021Y-128800427D01*
X100258230Y-128797904D01*
X100262666Y-128795806D01*
X100267286Y-128794153D01*
X100272045Y-128792961D01*
X100276899Y-128792241D01*
X100281800Y-128792000D01*
X100381800Y-128792000D01*
X100386701Y-128792241D01*
X100386701Y-128792241D01*
G37*
D33*
X100331800Y-129042000D03*
D10*
G36*
X99986701Y-128792241D02*
X99991555Y-128792961D01*
X99996314Y-128794153D01*
X100000934Y-128795806D01*
X100005370Y-128797904D01*
X100009579Y-128800427D01*
X100013520Y-128803349D01*
X100017155Y-128806645D01*
X100020451Y-128810280D01*
X100023373Y-128814221D01*
X100025896Y-128818430D01*
X100027994Y-128822866D01*
X100029647Y-128827486D01*
X100030839Y-128832245D01*
X100031559Y-128837099D01*
X100031800Y-128842000D01*
X100031800Y-129242000D01*
X100031559Y-129246901D01*
X100030839Y-129251755D01*
X100029647Y-129256514D01*
X100027994Y-129261134D01*
X100025896Y-129265570D01*
X100023373Y-129269779D01*
X100020451Y-129273720D01*
X100017155Y-129277355D01*
X100013520Y-129280651D01*
X100009579Y-129283573D01*
X100005370Y-129286096D01*
X100000934Y-129288194D01*
X99996314Y-129289847D01*
X99991555Y-129291039D01*
X99986701Y-129291759D01*
X99981800Y-129292000D01*
X99881800Y-129292000D01*
X99876899Y-129291759D01*
X99872045Y-129291039D01*
X99867286Y-129289847D01*
X99862666Y-129288194D01*
X99858230Y-129286096D01*
X99854021Y-129283573D01*
X99850080Y-129280651D01*
X99846445Y-129277355D01*
X99843149Y-129273720D01*
X99840227Y-129269779D01*
X99837704Y-129265570D01*
X99835606Y-129261134D01*
X99833953Y-129256514D01*
X99832761Y-129251755D01*
X99832041Y-129246901D01*
X99831800Y-129242000D01*
X99831800Y-128842000D01*
X99832041Y-128837099D01*
X99832761Y-128832245D01*
X99833953Y-128827486D01*
X99835606Y-128822866D01*
X99837704Y-128818430D01*
X99840227Y-128814221D01*
X99843149Y-128810280D01*
X99846445Y-128806645D01*
X99850080Y-128803349D01*
X99854021Y-128800427D01*
X99858230Y-128797904D01*
X99862666Y-128795806D01*
X99867286Y-128794153D01*
X99872045Y-128792961D01*
X99876899Y-128792241D01*
X99881800Y-128792000D01*
X99981800Y-128792000D01*
X99986701Y-128792241D01*
X99986701Y-128792241D01*
G37*
D33*
X99931800Y-129042000D03*
D10*
G36*
X99586701Y-128792241D02*
X99591555Y-128792961D01*
X99596314Y-128794153D01*
X99600934Y-128795806D01*
X99605370Y-128797904D01*
X99609579Y-128800427D01*
X99613520Y-128803349D01*
X99617155Y-128806645D01*
X99620451Y-128810280D01*
X99623373Y-128814221D01*
X99625896Y-128818430D01*
X99627994Y-128822866D01*
X99629647Y-128827486D01*
X99630839Y-128832245D01*
X99631559Y-128837099D01*
X99631800Y-128842000D01*
X99631800Y-129242000D01*
X99631559Y-129246901D01*
X99630839Y-129251755D01*
X99629647Y-129256514D01*
X99627994Y-129261134D01*
X99625896Y-129265570D01*
X99623373Y-129269779D01*
X99620451Y-129273720D01*
X99617155Y-129277355D01*
X99613520Y-129280651D01*
X99609579Y-129283573D01*
X99605370Y-129286096D01*
X99600934Y-129288194D01*
X99596314Y-129289847D01*
X99591555Y-129291039D01*
X99586701Y-129291759D01*
X99581800Y-129292000D01*
X99481800Y-129292000D01*
X99476899Y-129291759D01*
X99472045Y-129291039D01*
X99467286Y-129289847D01*
X99462666Y-129288194D01*
X99458230Y-129286096D01*
X99454021Y-129283573D01*
X99450080Y-129280651D01*
X99446445Y-129277355D01*
X99443149Y-129273720D01*
X99440227Y-129269779D01*
X99437704Y-129265570D01*
X99435606Y-129261134D01*
X99433953Y-129256514D01*
X99432761Y-129251755D01*
X99432041Y-129246901D01*
X99431800Y-129242000D01*
X99431800Y-128842000D01*
X99432041Y-128837099D01*
X99432761Y-128832245D01*
X99433953Y-128827486D01*
X99435606Y-128822866D01*
X99437704Y-128818430D01*
X99440227Y-128814221D01*
X99443149Y-128810280D01*
X99446445Y-128806645D01*
X99450080Y-128803349D01*
X99454021Y-128800427D01*
X99458230Y-128797904D01*
X99462666Y-128795806D01*
X99467286Y-128794153D01*
X99472045Y-128792961D01*
X99476899Y-128792241D01*
X99481800Y-128792000D01*
X99581800Y-128792000D01*
X99586701Y-128792241D01*
X99586701Y-128792241D01*
G37*
D33*
X99531800Y-129042000D03*
D10*
G36*
X99186701Y-128792241D02*
X99191555Y-128792961D01*
X99196314Y-128794153D01*
X99200934Y-128795806D01*
X99205370Y-128797904D01*
X99209579Y-128800427D01*
X99213520Y-128803349D01*
X99217155Y-128806645D01*
X99220451Y-128810280D01*
X99223373Y-128814221D01*
X99225896Y-128818430D01*
X99227994Y-128822866D01*
X99229647Y-128827486D01*
X99230839Y-128832245D01*
X99231559Y-128837099D01*
X99231800Y-128842000D01*
X99231800Y-129242000D01*
X99231559Y-129246901D01*
X99230839Y-129251755D01*
X99229647Y-129256514D01*
X99227994Y-129261134D01*
X99225896Y-129265570D01*
X99223373Y-129269779D01*
X99220451Y-129273720D01*
X99217155Y-129277355D01*
X99213520Y-129280651D01*
X99209579Y-129283573D01*
X99205370Y-129286096D01*
X99200934Y-129288194D01*
X99196314Y-129289847D01*
X99191555Y-129291039D01*
X99186701Y-129291759D01*
X99181800Y-129292000D01*
X99081800Y-129292000D01*
X99076899Y-129291759D01*
X99072045Y-129291039D01*
X99067286Y-129289847D01*
X99062666Y-129288194D01*
X99058230Y-129286096D01*
X99054021Y-129283573D01*
X99050080Y-129280651D01*
X99046445Y-129277355D01*
X99043149Y-129273720D01*
X99040227Y-129269779D01*
X99037704Y-129265570D01*
X99035606Y-129261134D01*
X99033953Y-129256514D01*
X99032761Y-129251755D01*
X99032041Y-129246901D01*
X99031800Y-129242000D01*
X99031800Y-128842000D01*
X99032041Y-128837099D01*
X99032761Y-128832245D01*
X99033953Y-128827486D01*
X99035606Y-128822866D01*
X99037704Y-128818430D01*
X99040227Y-128814221D01*
X99043149Y-128810280D01*
X99046445Y-128806645D01*
X99050080Y-128803349D01*
X99054021Y-128800427D01*
X99058230Y-128797904D01*
X99062666Y-128795806D01*
X99067286Y-128794153D01*
X99072045Y-128792961D01*
X99076899Y-128792241D01*
X99081800Y-128792000D01*
X99181800Y-128792000D01*
X99186701Y-128792241D01*
X99186701Y-128792241D01*
G37*
D33*
X99131800Y-129042000D03*
D10*
G36*
X98786701Y-128792241D02*
X98791555Y-128792961D01*
X98796314Y-128794153D01*
X98800934Y-128795806D01*
X98805370Y-128797904D01*
X98809579Y-128800427D01*
X98813520Y-128803349D01*
X98817155Y-128806645D01*
X98820451Y-128810280D01*
X98823373Y-128814221D01*
X98825896Y-128818430D01*
X98827994Y-128822866D01*
X98829647Y-128827486D01*
X98830839Y-128832245D01*
X98831559Y-128837099D01*
X98831800Y-128842000D01*
X98831800Y-129242000D01*
X98831559Y-129246901D01*
X98830839Y-129251755D01*
X98829647Y-129256514D01*
X98827994Y-129261134D01*
X98825896Y-129265570D01*
X98823373Y-129269779D01*
X98820451Y-129273720D01*
X98817155Y-129277355D01*
X98813520Y-129280651D01*
X98809579Y-129283573D01*
X98805370Y-129286096D01*
X98800934Y-129288194D01*
X98796314Y-129289847D01*
X98791555Y-129291039D01*
X98786701Y-129291759D01*
X98781800Y-129292000D01*
X98681800Y-129292000D01*
X98676899Y-129291759D01*
X98672045Y-129291039D01*
X98667286Y-129289847D01*
X98662666Y-129288194D01*
X98658230Y-129286096D01*
X98654021Y-129283573D01*
X98650080Y-129280651D01*
X98646445Y-129277355D01*
X98643149Y-129273720D01*
X98640227Y-129269779D01*
X98637704Y-129265570D01*
X98635606Y-129261134D01*
X98633953Y-129256514D01*
X98632761Y-129251755D01*
X98632041Y-129246901D01*
X98631800Y-129242000D01*
X98631800Y-128842000D01*
X98632041Y-128837099D01*
X98632761Y-128832245D01*
X98633953Y-128827486D01*
X98635606Y-128822866D01*
X98637704Y-128818430D01*
X98640227Y-128814221D01*
X98643149Y-128810280D01*
X98646445Y-128806645D01*
X98650080Y-128803349D01*
X98654021Y-128800427D01*
X98658230Y-128797904D01*
X98662666Y-128795806D01*
X98667286Y-128794153D01*
X98672045Y-128792961D01*
X98676899Y-128792241D01*
X98681800Y-128792000D01*
X98781800Y-128792000D01*
X98786701Y-128792241D01*
X98786701Y-128792241D01*
G37*
D33*
X98731800Y-129042000D03*
D10*
G36*
X98386701Y-128792241D02*
X98391555Y-128792961D01*
X98396314Y-128794153D01*
X98400934Y-128795806D01*
X98405370Y-128797904D01*
X98409579Y-128800427D01*
X98413520Y-128803349D01*
X98417155Y-128806645D01*
X98420451Y-128810280D01*
X98423373Y-128814221D01*
X98425896Y-128818430D01*
X98427994Y-128822866D01*
X98429647Y-128827486D01*
X98430839Y-128832245D01*
X98431559Y-128837099D01*
X98431800Y-128842000D01*
X98431800Y-129242000D01*
X98431559Y-129246901D01*
X98430839Y-129251755D01*
X98429647Y-129256514D01*
X98427994Y-129261134D01*
X98425896Y-129265570D01*
X98423373Y-129269779D01*
X98420451Y-129273720D01*
X98417155Y-129277355D01*
X98413520Y-129280651D01*
X98409579Y-129283573D01*
X98405370Y-129286096D01*
X98400934Y-129288194D01*
X98396314Y-129289847D01*
X98391555Y-129291039D01*
X98386701Y-129291759D01*
X98381800Y-129292000D01*
X98281800Y-129292000D01*
X98276899Y-129291759D01*
X98272045Y-129291039D01*
X98267286Y-129289847D01*
X98262666Y-129288194D01*
X98258230Y-129286096D01*
X98254021Y-129283573D01*
X98250080Y-129280651D01*
X98246445Y-129277355D01*
X98243149Y-129273720D01*
X98240227Y-129269779D01*
X98237704Y-129265570D01*
X98235606Y-129261134D01*
X98233953Y-129256514D01*
X98232761Y-129251755D01*
X98232041Y-129246901D01*
X98231800Y-129242000D01*
X98231800Y-128842000D01*
X98232041Y-128837099D01*
X98232761Y-128832245D01*
X98233953Y-128827486D01*
X98235606Y-128822866D01*
X98237704Y-128818430D01*
X98240227Y-128814221D01*
X98243149Y-128810280D01*
X98246445Y-128806645D01*
X98250080Y-128803349D01*
X98254021Y-128800427D01*
X98258230Y-128797904D01*
X98262666Y-128795806D01*
X98267286Y-128794153D01*
X98272045Y-128792961D01*
X98276899Y-128792241D01*
X98281800Y-128792000D01*
X98381800Y-128792000D01*
X98386701Y-128792241D01*
X98386701Y-128792241D01*
G37*
D33*
X98331800Y-129042000D03*
D10*
G36*
X98386701Y-130042241D02*
X98391555Y-130042961D01*
X98396314Y-130044153D01*
X98400934Y-130045806D01*
X98405370Y-130047904D01*
X98409579Y-130050427D01*
X98413520Y-130053349D01*
X98417155Y-130056645D01*
X98420451Y-130060280D01*
X98423373Y-130064221D01*
X98425896Y-130068430D01*
X98427994Y-130072866D01*
X98429647Y-130077486D01*
X98430839Y-130082245D01*
X98431559Y-130087099D01*
X98431800Y-130092000D01*
X98431800Y-130492000D01*
X98431559Y-130496901D01*
X98430839Y-130501755D01*
X98429647Y-130506514D01*
X98427994Y-130511134D01*
X98425896Y-130515570D01*
X98423373Y-130519779D01*
X98420451Y-130523720D01*
X98417155Y-130527355D01*
X98413520Y-130530651D01*
X98409579Y-130533573D01*
X98405370Y-130536096D01*
X98400934Y-130538194D01*
X98396314Y-130539847D01*
X98391555Y-130541039D01*
X98386701Y-130541759D01*
X98381800Y-130542000D01*
X98281800Y-130542000D01*
X98276899Y-130541759D01*
X98272045Y-130541039D01*
X98267286Y-130539847D01*
X98262666Y-130538194D01*
X98258230Y-130536096D01*
X98254021Y-130533573D01*
X98250080Y-130530651D01*
X98246445Y-130527355D01*
X98243149Y-130523720D01*
X98240227Y-130519779D01*
X98237704Y-130515570D01*
X98235606Y-130511134D01*
X98233953Y-130506514D01*
X98232761Y-130501755D01*
X98232041Y-130496901D01*
X98231800Y-130492000D01*
X98231800Y-130092000D01*
X98232041Y-130087099D01*
X98232761Y-130082245D01*
X98233953Y-130077486D01*
X98235606Y-130072866D01*
X98237704Y-130068430D01*
X98240227Y-130064221D01*
X98243149Y-130060280D01*
X98246445Y-130056645D01*
X98250080Y-130053349D01*
X98254021Y-130050427D01*
X98258230Y-130047904D01*
X98262666Y-130045806D01*
X98267286Y-130044153D01*
X98272045Y-130042961D01*
X98276899Y-130042241D01*
X98281800Y-130042000D01*
X98381800Y-130042000D01*
X98386701Y-130042241D01*
X98386701Y-130042241D01*
G37*
D33*
X98331800Y-130292000D03*
D10*
G36*
X98786701Y-130042241D02*
X98791555Y-130042961D01*
X98796314Y-130044153D01*
X98800934Y-130045806D01*
X98805370Y-130047904D01*
X98809579Y-130050427D01*
X98813520Y-130053349D01*
X98817155Y-130056645D01*
X98820451Y-130060280D01*
X98823373Y-130064221D01*
X98825896Y-130068430D01*
X98827994Y-130072866D01*
X98829647Y-130077486D01*
X98830839Y-130082245D01*
X98831559Y-130087099D01*
X98831800Y-130092000D01*
X98831800Y-130492000D01*
X98831559Y-130496901D01*
X98830839Y-130501755D01*
X98829647Y-130506514D01*
X98827994Y-130511134D01*
X98825896Y-130515570D01*
X98823373Y-130519779D01*
X98820451Y-130523720D01*
X98817155Y-130527355D01*
X98813520Y-130530651D01*
X98809579Y-130533573D01*
X98805370Y-130536096D01*
X98800934Y-130538194D01*
X98796314Y-130539847D01*
X98791555Y-130541039D01*
X98786701Y-130541759D01*
X98781800Y-130542000D01*
X98681800Y-130542000D01*
X98676899Y-130541759D01*
X98672045Y-130541039D01*
X98667286Y-130539847D01*
X98662666Y-130538194D01*
X98658230Y-130536096D01*
X98654021Y-130533573D01*
X98650080Y-130530651D01*
X98646445Y-130527355D01*
X98643149Y-130523720D01*
X98640227Y-130519779D01*
X98637704Y-130515570D01*
X98635606Y-130511134D01*
X98633953Y-130506514D01*
X98632761Y-130501755D01*
X98632041Y-130496901D01*
X98631800Y-130492000D01*
X98631800Y-130092000D01*
X98632041Y-130087099D01*
X98632761Y-130082245D01*
X98633953Y-130077486D01*
X98635606Y-130072866D01*
X98637704Y-130068430D01*
X98640227Y-130064221D01*
X98643149Y-130060280D01*
X98646445Y-130056645D01*
X98650080Y-130053349D01*
X98654021Y-130050427D01*
X98658230Y-130047904D01*
X98662666Y-130045806D01*
X98667286Y-130044153D01*
X98672045Y-130042961D01*
X98676899Y-130042241D01*
X98681800Y-130042000D01*
X98781800Y-130042000D01*
X98786701Y-130042241D01*
X98786701Y-130042241D01*
G37*
D33*
X98731800Y-130292000D03*
D10*
G36*
X99186701Y-130042241D02*
X99191555Y-130042961D01*
X99196314Y-130044153D01*
X99200934Y-130045806D01*
X99205370Y-130047904D01*
X99209579Y-130050427D01*
X99213520Y-130053349D01*
X99217155Y-130056645D01*
X99220451Y-130060280D01*
X99223373Y-130064221D01*
X99225896Y-130068430D01*
X99227994Y-130072866D01*
X99229647Y-130077486D01*
X99230839Y-130082245D01*
X99231559Y-130087099D01*
X99231800Y-130092000D01*
X99231800Y-130492000D01*
X99231559Y-130496901D01*
X99230839Y-130501755D01*
X99229647Y-130506514D01*
X99227994Y-130511134D01*
X99225896Y-130515570D01*
X99223373Y-130519779D01*
X99220451Y-130523720D01*
X99217155Y-130527355D01*
X99213520Y-130530651D01*
X99209579Y-130533573D01*
X99205370Y-130536096D01*
X99200934Y-130538194D01*
X99196314Y-130539847D01*
X99191555Y-130541039D01*
X99186701Y-130541759D01*
X99181800Y-130542000D01*
X99081800Y-130542000D01*
X99076899Y-130541759D01*
X99072045Y-130541039D01*
X99067286Y-130539847D01*
X99062666Y-130538194D01*
X99058230Y-130536096D01*
X99054021Y-130533573D01*
X99050080Y-130530651D01*
X99046445Y-130527355D01*
X99043149Y-130523720D01*
X99040227Y-130519779D01*
X99037704Y-130515570D01*
X99035606Y-130511134D01*
X99033953Y-130506514D01*
X99032761Y-130501755D01*
X99032041Y-130496901D01*
X99031800Y-130492000D01*
X99031800Y-130092000D01*
X99032041Y-130087099D01*
X99032761Y-130082245D01*
X99033953Y-130077486D01*
X99035606Y-130072866D01*
X99037704Y-130068430D01*
X99040227Y-130064221D01*
X99043149Y-130060280D01*
X99046445Y-130056645D01*
X99050080Y-130053349D01*
X99054021Y-130050427D01*
X99058230Y-130047904D01*
X99062666Y-130045806D01*
X99067286Y-130044153D01*
X99072045Y-130042961D01*
X99076899Y-130042241D01*
X99081800Y-130042000D01*
X99181800Y-130042000D01*
X99186701Y-130042241D01*
X99186701Y-130042241D01*
G37*
D33*
X99131800Y-130292000D03*
D10*
G36*
X99586701Y-130042241D02*
X99591555Y-130042961D01*
X99596314Y-130044153D01*
X99600934Y-130045806D01*
X99605370Y-130047904D01*
X99609579Y-130050427D01*
X99613520Y-130053349D01*
X99617155Y-130056645D01*
X99620451Y-130060280D01*
X99623373Y-130064221D01*
X99625896Y-130068430D01*
X99627994Y-130072866D01*
X99629647Y-130077486D01*
X99630839Y-130082245D01*
X99631559Y-130087099D01*
X99631800Y-130092000D01*
X99631800Y-130492000D01*
X99631559Y-130496901D01*
X99630839Y-130501755D01*
X99629647Y-130506514D01*
X99627994Y-130511134D01*
X99625896Y-130515570D01*
X99623373Y-130519779D01*
X99620451Y-130523720D01*
X99617155Y-130527355D01*
X99613520Y-130530651D01*
X99609579Y-130533573D01*
X99605370Y-130536096D01*
X99600934Y-130538194D01*
X99596314Y-130539847D01*
X99591555Y-130541039D01*
X99586701Y-130541759D01*
X99581800Y-130542000D01*
X99481800Y-130542000D01*
X99476899Y-130541759D01*
X99472045Y-130541039D01*
X99467286Y-130539847D01*
X99462666Y-130538194D01*
X99458230Y-130536096D01*
X99454021Y-130533573D01*
X99450080Y-130530651D01*
X99446445Y-130527355D01*
X99443149Y-130523720D01*
X99440227Y-130519779D01*
X99437704Y-130515570D01*
X99435606Y-130511134D01*
X99433953Y-130506514D01*
X99432761Y-130501755D01*
X99432041Y-130496901D01*
X99431800Y-130492000D01*
X99431800Y-130092000D01*
X99432041Y-130087099D01*
X99432761Y-130082245D01*
X99433953Y-130077486D01*
X99435606Y-130072866D01*
X99437704Y-130068430D01*
X99440227Y-130064221D01*
X99443149Y-130060280D01*
X99446445Y-130056645D01*
X99450080Y-130053349D01*
X99454021Y-130050427D01*
X99458230Y-130047904D01*
X99462666Y-130045806D01*
X99467286Y-130044153D01*
X99472045Y-130042961D01*
X99476899Y-130042241D01*
X99481800Y-130042000D01*
X99581800Y-130042000D01*
X99586701Y-130042241D01*
X99586701Y-130042241D01*
G37*
D33*
X99531800Y-130292000D03*
D10*
G36*
X99986701Y-130042241D02*
X99991555Y-130042961D01*
X99996314Y-130044153D01*
X100000934Y-130045806D01*
X100005370Y-130047904D01*
X100009579Y-130050427D01*
X100013520Y-130053349D01*
X100017155Y-130056645D01*
X100020451Y-130060280D01*
X100023373Y-130064221D01*
X100025896Y-130068430D01*
X100027994Y-130072866D01*
X100029647Y-130077486D01*
X100030839Y-130082245D01*
X100031559Y-130087099D01*
X100031800Y-130092000D01*
X100031800Y-130492000D01*
X100031559Y-130496901D01*
X100030839Y-130501755D01*
X100029647Y-130506514D01*
X100027994Y-130511134D01*
X100025896Y-130515570D01*
X100023373Y-130519779D01*
X100020451Y-130523720D01*
X100017155Y-130527355D01*
X100013520Y-130530651D01*
X100009579Y-130533573D01*
X100005370Y-130536096D01*
X100000934Y-130538194D01*
X99996314Y-130539847D01*
X99991555Y-130541039D01*
X99986701Y-130541759D01*
X99981800Y-130542000D01*
X99881800Y-130542000D01*
X99876899Y-130541759D01*
X99872045Y-130541039D01*
X99867286Y-130539847D01*
X99862666Y-130538194D01*
X99858230Y-130536096D01*
X99854021Y-130533573D01*
X99850080Y-130530651D01*
X99846445Y-130527355D01*
X99843149Y-130523720D01*
X99840227Y-130519779D01*
X99837704Y-130515570D01*
X99835606Y-130511134D01*
X99833953Y-130506514D01*
X99832761Y-130501755D01*
X99832041Y-130496901D01*
X99831800Y-130492000D01*
X99831800Y-130092000D01*
X99832041Y-130087099D01*
X99832761Y-130082245D01*
X99833953Y-130077486D01*
X99835606Y-130072866D01*
X99837704Y-130068430D01*
X99840227Y-130064221D01*
X99843149Y-130060280D01*
X99846445Y-130056645D01*
X99850080Y-130053349D01*
X99854021Y-130050427D01*
X99858230Y-130047904D01*
X99862666Y-130045806D01*
X99867286Y-130044153D01*
X99872045Y-130042961D01*
X99876899Y-130042241D01*
X99881800Y-130042000D01*
X99981800Y-130042000D01*
X99986701Y-130042241D01*
X99986701Y-130042241D01*
G37*
D33*
X99931800Y-130292000D03*
D10*
G36*
X100386701Y-130042241D02*
X100391555Y-130042961D01*
X100396314Y-130044153D01*
X100400934Y-130045806D01*
X100405370Y-130047904D01*
X100409579Y-130050427D01*
X100413520Y-130053349D01*
X100417155Y-130056645D01*
X100420451Y-130060280D01*
X100423373Y-130064221D01*
X100425896Y-130068430D01*
X100427994Y-130072866D01*
X100429647Y-130077486D01*
X100430839Y-130082245D01*
X100431559Y-130087099D01*
X100431800Y-130092000D01*
X100431800Y-130492000D01*
X100431559Y-130496901D01*
X100430839Y-130501755D01*
X100429647Y-130506514D01*
X100427994Y-130511134D01*
X100425896Y-130515570D01*
X100423373Y-130519779D01*
X100420451Y-130523720D01*
X100417155Y-130527355D01*
X100413520Y-130530651D01*
X100409579Y-130533573D01*
X100405370Y-130536096D01*
X100400934Y-130538194D01*
X100396314Y-130539847D01*
X100391555Y-130541039D01*
X100386701Y-130541759D01*
X100381800Y-130542000D01*
X100281800Y-130542000D01*
X100276899Y-130541759D01*
X100272045Y-130541039D01*
X100267286Y-130539847D01*
X100262666Y-130538194D01*
X100258230Y-130536096D01*
X100254021Y-130533573D01*
X100250080Y-130530651D01*
X100246445Y-130527355D01*
X100243149Y-130523720D01*
X100240227Y-130519779D01*
X100237704Y-130515570D01*
X100235606Y-130511134D01*
X100233953Y-130506514D01*
X100232761Y-130501755D01*
X100232041Y-130496901D01*
X100231800Y-130492000D01*
X100231800Y-130092000D01*
X100232041Y-130087099D01*
X100232761Y-130082245D01*
X100233953Y-130077486D01*
X100235606Y-130072866D01*
X100237704Y-130068430D01*
X100240227Y-130064221D01*
X100243149Y-130060280D01*
X100246445Y-130056645D01*
X100250080Y-130053349D01*
X100254021Y-130050427D01*
X100258230Y-130047904D01*
X100262666Y-130045806D01*
X100267286Y-130044153D01*
X100272045Y-130042961D01*
X100276899Y-130042241D01*
X100281800Y-130042000D01*
X100381800Y-130042000D01*
X100386701Y-130042241D01*
X100386701Y-130042241D01*
G37*
D33*
X100331800Y-130292000D03*
D10*
G36*
X99539151Y-129517361D02*
X99546432Y-129518441D01*
X99553571Y-129520229D01*
X99560501Y-129522709D01*
X99567155Y-129525856D01*
X99573468Y-129529640D01*
X99579379Y-129534024D01*
X99584833Y-129538967D01*
X99589776Y-129544421D01*
X99594160Y-129550332D01*
X99597944Y-129556645D01*
X99601091Y-129563299D01*
X99603571Y-129570229D01*
X99605359Y-129577368D01*
X99606439Y-129584649D01*
X99606800Y-129592000D01*
X99606800Y-129742000D01*
X99606439Y-129749351D01*
X99605359Y-129756632D01*
X99603571Y-129763771D01*
X99601091Y-129770701D01*
X99597944Y-129777355D01*
X99594160Y-129783668D01*
X99589776Y-129789579D01*
X99584833Y-129795033D01*
X99579379Y-129799976D01*
X99573468Y-129804360D01*
X99567155Y-129808144D01*
X99560501Y-129811291D01*
X99553571Y-129813771D01*
X99546432Y-129815559D01*
X99539151Y-129816639D01*
X99531800Y-129817000D01*
X99131800Y-129817000D01*
X99124449Y-129816639D01*
X99117168Y-129815559D01*
X99110029Y-129813771D01*
X99103099Y-129811291D01*
X99096445Y-129808144D01*
X99090132Y-129804360D01*
X99084221Y-129799976D01*
X99078767Y-129795033D01*
X99073824Y-129789579D01*
X99069440Y-129783668D01*
X99065656Y-129777355D01*
X99062509Y-129770701D01*
X99060029Y-129763771D01*
X99058241Y-129756632D01*
X99057161Y-129749351D01*
X99056800Y-129742000D01*
X99056800Y-129592000D01*
X99057161Y-129584649D01*
X99058241Y-129577368D01*
X99060029Y-129570229D01*
X99062509Y-129563299D01*
X99065656Y-129556645D01*
X99069440Y-129550332D01*
X99073824Y-129544421D01*
X99078767Y-129538967D01*
X99084221Y-129534024D01*
X99090132Y-129529640D01*
X99096445Y-129525856D01*
X99103099Y-129522709D01*
X99110029Y-129520229D01*
X99117168Y-129518441D01*
X99124449Y-129517361D01*
X99131800Y-129517000D01*
X99531800Y-129517000D01*
X99539151Y-129517361D01*
X99539151Y-129517361D01*
G37*
D32*
X99331800Y-129667000D03*
G04 #@! TD*
D34*
G04 #@! TO.C,U18*
X111634950Y-70866000D03*
D35*
X113884950Y-70066000D03*
X113884950Y-70466000D03*
X113884950Y-70866000D03*
X113884950Y-71266000D03*
X113884950Y-71666000D03*
D36*
X113234950Y-72616000D03*
X112834950Y-72616000D03*
X112434950Y-72616000D03*
X112034950Y-72616000D03*
X111634950Y-72616000D03*
X111234950Y-72616000D03*
X110834950Y-72616000D03*
X110434950Y-72616000D03*
X110034950Y-72616000D03*
D35*
X109384950Y-71666000D03*
X109384950Y-71266000D03*
X109384950Y-70866000D03*
X109384950Y-70466000D03*
X109384950Y-70066000D03*
D36*
X110034950Y-69116000D03*
X110434950Y-69116000D03*
X110834950Y-69116000D03*
X111234950Y-69116000D03*
X111634950Y-69116000D03*
X112034950Y-69116000D03*
X112434950Y-69116000D03*
X112834950Y-69116000D03*
X113234950Y-69116000D03*
G04 #@! TD*
D37*
G04 #@! TO.C,L5*
X105359400Y-65100200D03*
X109509400Y-65100200D03*
G04 #@! TD*
D38*
G04 #@! TO.C,T1*
X106862900Y-56515000D03*
X107853500Y-56515000D03*
X103891100Y-56515000D03*
X104881700Y-56515000D03*
X100919300Y-56515000D03*
X101909900Y-56515000D03*
X97947500Y-56515000D03*
X98938100Y-56515000D03*
X106862900Y-47117000D03*
X107853500Y-47117000D03*
X103891100Y-47117000D03*
X104881700Y-47117000D03*
X100919300Y-47117000D03*
X101909900Y-47117000D03*
X97947500Y-47117000D03*
X98938100Y-47117000D03*
X96956900Y-47117000D03*
X99928700Y-47117000D03*
X102900500Y-47117000D03*
X105872300Y-47117000D03*
X105872300Y-56515000D03*
X102900500Y-56515000D03*
X99928700Y-56515000D03*
X96956900Y-56515000D03*
G04 #@! TD*
D39*
G04 #@! TO.C,J9*
X107652600Y-141315000D03*
X110702600Y-86935000D03*
G04 #@! TD*
D40*
G04 #@! TO.C,J8*
X42672000Y-145398000D03*
D41*
X47172000Y-143398000D03*
X38172000Y-143398000D03*
D42*
X42672000Y-142398000D03*
D43*
X42672000Y-136398000D03*
G04 #@! TD*
D44*
G04 #@! TO.C,U10*
X73487600Y-135800600D03*
X72687600Y-135800600D03*
X80687600Y-131000600D03*
X80687600Y-131800600D03*
X80687600Y-132600600D03*
X80687600Y-135800600D03*
X80687600Y-136600600D03*
X80687600Y-137400600D03*
X79887600Y-131000600D03*
X79887600Y-131800600D03*
X79887600Y-132600600D03*
X79887600Y-135800600D03*
X79887600Y-136600600D03*
X79887600Y-137400600D03*
X79087600Y-131000600D03*
X79087600Y-131800600D03*
X79087600Y-132600600D03*
X79087600Y-135800600D03*
X79087600Y-136600600D03*
X79087600Y-137400600D03*
X78287600Y-131000600D03*
X78287600Y-131800600D03*
X78287600Y-132600600D03*
X78287600Y-135800600D03*
X78287600Y-136600600D03*
X78287600Y-137400600D03*
X77487600Y-131000600D03*
X77487600Y-131800600D03*
X77487600Y-132600600D03*
X77487600Y-135800600D03*
X77487600Y-136600600D03*
X77487600Y-137400600D03*
X76687600Y-131000600D03*
X76687600Y-131800600D03*
X76687600Y-132600600D03*
X76687600Y-135800600D03*
X76687600Y-136600600D03*
X76687600Y-137400600D03*
X75887600Y-131000600D03*
X75887600Y-131800600D03*
X75887600Y-132600600D03*
X75887600Y-135800600D03*
X75887600Y-136600600D03*
X75887600Y-137400600D03*
X75087600Y-131000600D03*
X75087600Y-131800600D03*
X75087600Y-132600600D03*
X75087600Y-135800600D03*
X75087600Y-136600600D03*
X75087600Y-137400600D03*
X74287600Y-131000600D03*
X74287600Y-131800600D03*
X74287600Y-132600600D03*
X74287600Y-135800600D03*
X74287600Y-136600600D03*
X74287600Y-137400600D03*
X73487600Y-131000600D03*
X73487600Y-131800600D03*
X73487600Y-132600600D03*
X73487600Y-136600600D03*
X73487600Y-137400600D03*
X72687600Y-131000600D03*
X72687600Y-131800600D03*
X72687600Y-132600600D03*
X72687600Y-136600600D03*
X72687600Y-137400600D03*
X71887600Y-131000600D03*
X71887600Y-131800600D03*
X71887600Y-132600600D03*
X71887600Y-135800600D03*
X71887600Y-136600600D03*
X71887600Y-137400600D03*
X71087600Y-131000600D03*
X71087600Y-131800600D03*
X71087600Y-132600600D03*
X71087600Y-135800600D03*
X71087600Y-136600600D03*
X71087600Y-137400600D03*
G04 #@! TD*
G04 #@! TO.C,U9*
X86524800Y-121183600D03*
X87324800Y-121183600D03*
X79324800Y-125983600D03*
X79324800Y-125183600D03*
X79324800Y-124383600D03*
X79324800Y-121183600D03*
X79324800Y-120383600D03*
X79324800Y-119583600D03*
X80124800Y-125983600D03*
X80124800Y-125183600D03*
X80124800Y-124383600D03*
X80124800Y-121183600D03*
X80124800Y-120383600D03*
X80124800Y-119583600D03*
X80924800Y-125983600D03*
X80924800Y-125183600D03*
X80924800Y-124383600D03*
X80924800Y-121183600D03*
X80924800Y-120383600D03*
X80924800Y-119583600D03*
X81724800Y-125983600D03*
X81724800Y-125183600D03*
X81724800Y-124383600D03*
X81724800Y-121183600D03*
X81724800Y-120383600D03*
X81724800Y-119583600D03*
X82524800Y-125983600D03*
X82524800Y-125183600D03*
X82524800Y-124383600D03*
X82524800Y-121183600D03*
X82524800Y-120383600D03*
X82524800Y-119583600D03*
X83324800Y-125983600D03*
X83324800Y-125183600D03*
X83324800Y-124383600D03*
X83324800Y-121183600D03*
X83324800Y-120383600D03*
X83324800Y-119583600D03*
X84124800Y-125983600D03*
X84124800Y-125183600D03*
X84124800Y-124383600D03*
X84124800Y-121183600D03*
X84124800Y-120383600D03*
X84124800Y-119583600D03*
X84924800Y-125983600D03*
X84924800Y-125183600D03*
X84924800Y-124383600D03*
X84924800Y-121183600D03*
X84924800Y-120383600D03*
X84924800Y-119583600D03*
X85724800Y-125983600D03*
X85724800Y-125183600D03*
X85724800Y-124383600D03*
X85724800Y-121183600D03*
X85724800Y-120383600D03*
X85724800Y-119583600D03*
X86524800Y-125983600D03*
X86524800Y-125183600D03*
X86524800Y-124383600D03*
X86524800Y-120383600D03*
X86524800Y-119583600D03*
X87324800Y-125983600D03*
X87324800Y-125183600D03*
X87324800Y-124383600D03*
X87324800Y-120383600D03*
X87324800Y-119583600D03*
X88124800Y-125983600D03*
X88124800Y-125183600D03*
X88124800Y-124383600D03*
X88124800Y-121183600D03*
X88124800Y-120383600D03*
X88124800Y-119583600D03*
X88924800Y-125983600D03*
X88924800Y-125183600D03*
X88924800Y-124383600D03*
X88924800Y-121183600D03*
X88924800Y-120383600D03*
X88924800Y-119583600D03*
G04 #@! TD*
G04 #@! TO.C,U4*
X66129200Y-124383600D03*
X65329200Y-124383600D03*
X73329200Y-119583600D03*
X73329200Y-120383600D03*
X73329200Y-121183600D03*
X73329200Y-124383600D03*
X73329200Y-125183600D03*
X73329200Y-125983600D03*
X72529200Y-119583600D03*
X72529200Y-120383600D03*
X72529200Y-121183600D03*
X72529200Y-124383600D03*
X72529200Y-125183600D03*
X72529200Y-125983600D03*
X71729200Y-119583600D03*
X71729200Y-120383600D03*
X71729200Y-121183600D03*
X71729200Y-124383600D03*
X71729200Y-125183600D03*
X71729200Y-125983600D03*
X70929200Y-119583600D03*
X70929200Y-120383600D03*
X70929200Y-121183600D03*
X70929200Y-124383600D03*
X70929200Y-125183600D03*
X70929200Y-125983600D03*
X70129200Y-119583600D03*
X70129200Y-120383600D03*
X70129200Y-121183600D03*
X70129200Y-124383600D03*
X70129200Y-125183600D03*
X70129200Y-125983600D03*
X69329200Y-119583600D03*
X69329200Y-120383600D03*
X69329200Y-121183600D03*
X69329200Y-124383600D03*
X69329200Y-125183600D03*
X69329200Y-125983600D03*
X68529200Y-119583600D03*
X68529200Y-120383600D03*
X68529200Y-121183600D03*
X68529200Y-124383600D03*
X68529200Y-125183600D03*
X68529200Y-125983600D03*
X67729200Y-119583600D03*
X67729200Y-120383600D03*
X67729200Y-121183600D03*
X67729200Y-124383600D03*
X67729200Y-125183600D03*
X67729200Y-125983600D03*
X66929200Y-119583600D03*
X66929200Y-120383600D03*
X66929200Y-121183600D03*
X66929200Y-124383600D03*
X66929200Y-125183600D03*
X66929200Y-125983600D03*
X66129200Y-119583600D03*
X66129200Y-120383600D03*
X66129200Y-121183600D03*
X66129200Y-125183600D03*
X66129200Y-125983600D03*
X65329200Y-119583600D03*
X65329200Y-120383600D03*
X65329200Y-121183600D03*
X65329200Y-125183600D03*
X65329200Y-125983600D03*
X64529200Y-119583600D03*
X64529200Y-120383600D03*
X64529200Y-121183600D03*
X64529200Y-124383600D03*
X64529200Y-125183600D03*
X64529200Y-125983600D03*
X63729200Y-119583600D03*
X63729200Y-120383600D03*
X63729200Y-121183600D03*
X63729200Y-124383600D03*
X63729200Y-125183600D03*
X63729200Y-125983600D03*
G04 #@! TD*
G04 #@! TO.C,U7*
X86524800Y-109753600D03*
X87324800Y-109753600D03*
X79324800Y-114553600D03*
X79324800Y-113753600D03*
X79324800Y-112953600D03*
X79324800Y-109753600D03*
X79324800Y-108953600D03*
X79324800Y-108153600D03*
X80124800Y-114553600D03*
X80124800Y-113753600D03*
X80124800Y-112953600D03*
X80124800Y-109753600D03*
X80124800Y-108953600D03*
X80124800Y-108153600D03*
X80924800Y-114553600D03*
X80924800Y-113753600D03*
X80924800Y-112953600D03*
X80924800Y-109753600D03*
X80924800Y-108953600D03*
X80924800Y-108153600D03*
X81724800Y-114553600D03*
X81724800Y-113753600D03*
X81724800Y-112953600D03*
X81724800Y-109753600D03*
X81724800Y-108953600D03*
X81724800Y-108153600D03*
X82524800Y-114553600D03*
X82524800Y-113753600D03*
X82524800Y-112953600D03*
X82524800Y-109753600D03*
X82524800Y-108953600D03*
X82524800Y-108153600D03*
X83324800Y-114553600D03*
X83324800Y-113753600D03*
X83324800Y-112953600D03*
X83324800Y-109753600D03*
X83324800Y-108953600D03*
X83324800Y-108153600D03*
X84124800Y-114553600D03*
X84124800Y-113753600D03*
X84124800Y-112953600D03*
X84124800Y-109753600D03*
X84124800Y-108953600D03*
X84124800Y-108153600D03*
X84924800Y-114553600D03*
X84924800Y-113753600D03*
X84924800Y-112953600D03*
X84924800Y-109753600D03*
X84924800Y-108953600D03*
X84924800Y-108153600D03*
X85724800Y-114553600D03*
X85724800Y-113753600D03*
X85724800Y-112953600D03*
X85724800Y-109753600D03*
X85724800Y-108953600D03*
X85724800Y-108153600D03*
X86524800Y-114553600D03*
X86524800Y-113753600D03*
X86524800Y-112953600D03*
X86524800Y-108953600D03*
X86524800Y-108153600D03*
X87324800Y-114553600D03*
X87324800Y-113753600D03*
X87324800Y-112953600D03*
X87324800Y-108953600D03*
X87324800Y-108153600D03*
X88124800Y-114553600D03*
X88124800Y-113753600D03*
X88124800Y-112953600D03*
X88124800Y-109753600D03*
X88124800Y-108953600D03*
X88124800Y-108153600D03*
X88924800Y-114553600D03*
X88924800Y-113753600D03*
X88924800Y-112953600D03*
X88924800Y-109753600D03*
X88924800Y-108953600D03*
X88924800Y-108153600D03*
G04 #@! TD*
G04 #@! TO.C,U2*
X66129200Y-112953600D03*
X65329200Y-112953600D03*
X73329200Y-108153600D03*
X73329200Y-108953600D03*
X73329200Y-109753600D03*
X73329200Y-112953600D03*
X73329200Y-113753600D03*
X73329200Y-114553600D03*
X72529200Y-108153600D03*
X72529200Y-108953600D03*
X72529200Y-109753600D03*
X72529200Y-112953600D03*
X72529200Y-113753600D03*
X72529200Y-114553600D03*
X71729200Y-108153600D03*
X71729200Y-108953600D03*
X71729200Y-109753600D03*
X71729200Y-112953600D03*
X71729200Y-113753600D03*
X71729200Y-114553600D03*
X70929200Y-108153600D03*
X70929200Y-108953600D03*
X70929200Y-109753600D03*
X70929200Y-112953600D03*
X70929200Y-113753600D03*
X70929200Y-114553600D03*
X70129200Y-108153600D03*
X70129200Y-108953600D03*
X70129200Y-109753600D03*
X70129200Y-112953600D03*
X70129200Y-113753600D03*
X70129200Y-114553600D03*
X69329200Y-108153600D03*
X69329200Y-108953600D03*
X69329200Y-109753600D03*
X69329200Y-112953600D03*
X69329200Y-113753600D03*
X69329200Y-114553600D03*
X68529200Y-108153600D03*
X68529200Y-108953600D03*
X68529200Y-109753600D03*
X68529200Y-112953600D03*
X68529200Y-113753600D03*
X68529200Y-114553600D03*
X67729200Y-108153600D03*
X67729200Y-108953600D03*
X67729200Y-109753600D03*
X67729200Y-112953600D03*
X67729200Y-113753600D03*
X67729200Y-114553600D03*
X66929200Y-108153600D03*
X66929200Y-108953600D03*
X66929200Y-109753600D03*
X66929200Y-112953600D03*
X66929200Y-113753600D03*
X66929200Y-114553600D03*
X66129200Y-108153600D03*
X66129200Y-108953600D03*
X66129200Y-109753600D03*
X66129200Y-113753600D03*
X66129200Y-114553600D03*
X65329200Y-108153600D03*
X65329200Y-108953600D03*
X65329200Y-109753600D03*
X65329200Y-113753600D03*
X65329200Y-114553600D03*
X64529200Y-108153600D03*
X64529200Y-108953600D03*
X64529200Y-109753600D03*
X64529200Y-112953600D03*
X64529200Y-113753600D03*
X64529200Y-114553600D03*
X63729200Y-108153600D03*
X63729200Y-108953600D03*
X63729200Y-109753600D03*
X63729200Y-112953600D03*
X63729200Y-113753600D03*
X63729200Y-114553600D03*
G04 #@! TD*
D20*
G04 #@! TO.C,S4*
X55753000Y-137414000D03*
D27*
X58293000Y-137414000D03*
X60833000Y-137414000D03*
X55753000Y-142494000D03*
X60833000Y-142494000D03*
G04 #@! TD*
D45*
G04 #@! TO.C,C1*
X61569600Y-115195500D03*
X61569600Y-114420500D03*
G04 #@! TD*
D46*
G04 #@! TO.C,C2*
X73374100Y-106121200D03*
X74149100Y-106121200D03*
G04 #@! TD*
D45*
G04 #@! TO.C,C3*
X75539600Y-113963300D03*
X75539600Y-114738300D03*
G04 #@! TD*
G04 #@! TO.C,C4*
X77114400Y-108426100D03*
X77114400Y-109201100D03*
G04 #@! TD*
D46*
G04 #@! TO.C,C5*
X72866100Y-116586000D03*
X73641100Y-116586000D03*
G04 #@! TD*
D45*
G04 #@! TO.C,C6*
X61569600Y-109455100D03*
X61569600Y-108680100D03*
G04 #@! TD*
D46*
G04 #@! TO.C,C7*
X65347700Y-116586000D03*
X66122700Y-116586000D03*
G04 #@! TD*
G04 #@! TO.C,C8*
X66122700Y-106121200D03*
X65347700Y-106121200D03*
G04 #@! TD*
G04 #@! TO.C,C17*
X70478500Y-116586000D03*
X71253500Y-116586000D03*
G04 #@! TD*
G04 #@! TO.C,C18*
X72472700Y-106121200D03*
X71697700Y-106121200D03*
G04 #@! TD*
G04 #@! TO.C,C20*
X63722100Y-116586000D03*
X64497100Y-116586000D03*
G04 #@! TD*
G04 #@! TO.C,C27*
X66516100Y-128016000D03*
X67291100Y-128016000D03*
G04 #@! TD*
D45*
G04 #@! TO.C,C29*
X61518800Y-120072300D03*
X61518800Y-119297300D03*
G04 #@! TD*
D46*
G04 #@! TO.C,C30*
X72066300Y-128016000D03*
X71291300Y-128016000D03*
G04 #@! TD*
G04 #@! TO.C,C31*
X67799100Y-117551200D03*
X67024100Y-117551200D03*
G04 #@! TD*
D45*
G04 #@! TO.C,C32*
X75552300Y-119553840D03*
X75552300Y-120328840D03*
G04 #@! TD*
D46*
G04 #@! TO.C,C33*
X73684300Y-128016000D03*
X72909300Y-128016000D03*
G04 #@! TD*
G04 #@! TO.C,C34*
X65614700Y-128016000D03*
X64839700Y-128016000D03*
G04 #@! TD*
G04 #@! TO.C,C35*
X68344900Y-116586000D03*
X69119900Y-116586000D03*
G04 #@! TD*
D45*
G04 #@! TO.C,C36*
X61569600Y-126308000D03*
X61569600Y-125533000D03*
G04 #@! TD*
D46*
G04 #@! TO.C,C37*
X78314700Y-139446000D03*
X77539700Y-139446000D03*
G04 #@! TD*
D45*
G04 #@! TO.C,C49*
X77139800Y-114572900D03*
X77139800Y-115347900D03*
G04 #@! TD*
D46*
G04 #@! TO.C,C51*
X86988500Y-116586000D03*
X87763500Y-116586000D03*
G04 #@! TD*
G04 #@! TO.C,C52*
X79627900Y-106121200D03*
X78852900Y-106121200D03*
G04 #@! TD*
D45*
G04 #@! TO.C,C53*
X91122500Y-108909000D03*
X91122500Y-108134000D03*
G04 #@! TD*
G04 #@! TO.C,C54*
X91135200Y-114992300D03*
X91135200Y-114217300D03*
G04 #@! TD*
D46*
G04 #@! TO.C,C55*
X87865100Y-106121200D03*
X87090100Y-106121200D03*
G04 #@! TD*
G04 #@! TO.C,C56*
X85261300Y-106121200D03*
X86036300Y-106121200D03*
G04 #@! TD*
G04 #@! TO.C,C65*
X81705300Y-106121200D03*
X82480300Y-106121200D03*
G04 #@! TD*
D47*
G04 #@! TO.C,C66*
X55372000Y-110096400D03*
X55372000Y-111696400D03*
G04 #@! TD*
G04 #@! TO.C,C68*
X53848000Y-110096400D03*
X53848000Y-111696400D03*
G04 #@! TD*
D46*
G04 #@! TO.C,C69*
X82365700Y-117551200D03*
X83140700Y-117551200D03*
G04 #@! TD*
D45*
G04 #@! TO.C,C70*
X48260000Y-108629300D03*
X48260000Y-109404300D03*
G04 #@! TD*
D46*
G04 #@! TO.C,C72*
X86988500Y-117551200D03*
X87763500Y-117551200D03*
G04 #@! TD*
G04 #@! TO.C,C73*
X86531300Y-128016000D03*
X87306300Y-128016000D03*
G04 #@! TD*
G04 #@! TO.C,C74*
X84504700Y-128016000D03*
X83729700Y-128016000D03*
G04 #@! TD*
D45*
G04 #@! TO.C,C75*
X91135200Y-119856100D03*
X91135200Y-120631100D03*
G04 #@! TD*
D46*
G04 #@! TO.C,C76*
X81515100Y-117551200D03*
X80740100Y-117551200D03*
G04 #@! TD*
D45*
G04 #@! TO.C,C77*
X77114400Y-125317100D03*
X77114400Y-126092100D03*
G04 #@! TD*
D46*
G04 #@! TO.C,C78*
X79114500Y-117551200D03*
X79889500Y-117551200D03*
G04 #@! TD*
G04 #@! TO.C,C79*
X80702300Y-139446000D03*
X79927300Y-139446000D03*
G04 #@! TD*
G04 #@! TO.C,C80*
X76689100Y-139446000D03*
X75914100Y-139446000D03*
G04 #@! TD*
D45*
G04 #@! TO.C,C81*
X68884800Y-130930500D03*
X68884800Y-131705500D03*
G04 #@! TD*
D46*
G04 #@! TO.C,C82*
X82269500Y-128016000D03*
X81494500Y-128016000D03*
G04 #@! TD*
D45*
G04 #@! TO.C,C83*
X68884800Y-136620100D03*
X68884800Y-137395100D03*
G04 #@! TD*
D46*
G04 #@! TO.C,C84*
X73437900Y-139446000D03*
X72662900Y-139446000D03*
G04 #@! TD*
G04 #@! TO.C,C85*
X75055900Y-139446000D03*
X74280900Y-139446000D03*
G04 #@! TD*
G04 #@! TO.C,C86*
X75063500Y-128981200D03*
X74288500Y-128981200D03*
G04 #@! TD*
D45*
G04 #@! TO.C,C88*
X50546000Y-111118500D03*
X50546000Y-111893500D03*
G04 #@! TD*
D46*
G04 #@! TO.C,C89*
X77438100Y-128981200D03*
X78213100Y-128981200D03*
G04 #@! TD*
D45*
G04 #@! TO.C,C90*
X48260000Y-107473900D03*
X48260000Y-106698900D03*
G04 #@! TD*
D47*
G04 #@! TO.C,C91*
X53848000Y-107150000D03*
X53848000Y-108750000D03*
G04 #@! TD*
G04 #@! TO.C,C92*
X55372000Y-108750000D03*
X55372000Y-107150000D03*
G04 #@! TD*
G04 #@! TO.C,C93*
X56896000Y-107150000D03*
X56896000Y-108750000D03*
G04 #@! TD*
D46*
G04 #@! TO.C,C100*
X45005100Y-41148000D03*
X45780100Y-41148000D03*
G04 #@! TD*
G04 #@! TO.C,C101*
X45780100Y-42164000D03*
X45005100Y-42164000D03*
G04 #@! TD*
G04 #@! TO.C,C102*
X47758500Y-56972200D03*
X46983500Y-56972200D03*
G04 #@! TD*
D45*
G04 #@! TO.C,C103*
X39306500Y-46907300D03*
X39306500Y-47682300D03*
G04 #@! TD*
G04 #@! TO.C,C104*
X53495200Y-49375100D03*
X53495200Y-50150100D03*
G04 #@! TD*
D46*
G04 #@! TO.C,C105*
X44075500Y-42164000D03*
X43300500Y-42164000D03*
G04 #@! TD*
D45*
G04 #@! TO.C,C106*
X53484800Y-47021900D03*
X53484800Y-46246900D03*
G04 #@! TD*
D46*
G04 #@! TO.C,C107*
X43630700Y-56972200D03*
X44405700Y-56972200D03*
G04 #@! TD*
G04 #@! TO.C,C108*
X47316500Y-40132000D03*
X48091500Y-40132000D03*
G04 #@! TD*
G04 #@! TO.C,C109*
X48091500Y-41177400D03*
X47316500Y-41177400D03*
G04 #@! TD*
D45*
G04 #@! TO.C,C110*
X53594000Y-52317500D03*
X53594000Y-53092500D03*
G04 #@! TD*
G04 #@! TO.C,C112*
X53571400Y-54722100D03*
X53571400Y-53947100D03*
G04 #@! TD*
G04 #@! TO.C,C113*
X54546500Y-53947100D03*
X54546500Y-54722100D03*
G04 #@! TD*
D46*
G04 #@! TO.C,C114*
X52866700Y-42164000D03*
X52091700Y-42164000D03*
G04 #@! TD*
G04 #@! TO.C,C115*
X50606100Y-42164000D03*
X49831100Y-42164000D03*
G04 #@! TD*
D48*
G04 #@! TO.C,C116*
X50453200Y-127508000D03*
X48693200Y-127508000D03*
G04 #@! TD*
D49*
G04 #@! TO.C,C117*
X54018200Y-130953400D03*
X54018200Y-129193400D03*
G04 #@! TD*
D45*
G04 #@! TO.C,C118*
X53543200Y-132975500D03*
X53543200Y-132200500D03*
G04 #@! TD*
D46*
G04 #@! TO.C,C119*
X51547900Y-133553200D03*
X52322900Y-133553200D03*
G04 #@! TD*
D47*
G04 #@! TO.C,C120*
X81272400Y-143751400D03*
X81272400Y-145351400D03*
G04 #@! TD*
D49*
G04 #@! TO.C,C121*
X58183800Y-127194200D03*
X58183800Y-125434200D03*
G04 #@! TD*
D50*
G04 #@! TO.C,C122*
X60083600Y-133908800D03*
X58483600Y-133908800D03*
G04 #@! TD*
D48*
G04 #@! TO.C,C124*
X58810000Y-129540000D03*
X60570000Y-129540000D03*
G04 #@! TD*
D45*
G04 #@! TO.C,C135*
X56355000Y-79457700D03*
X56355000Y-78682700D03*
G04 #@! TD*
G04 #@! TO.C,C137*
X61409600Y-82162500D03*
X61409600Y-82937500D03*
G04 #@! TD*
G04 #@! TO.C,C138*
X56261000Y-84525000D03*
X56261000Y-83750000D03*
G04 #@! TD*
D48*
G04 #@! TO.C,C139*
X50455000Y-125538800D03*
X48695000Y-125538800D03*
G04 #@! TD*
D49*
G04 #@! TO.C,C140*
X51911800Y-120874200D03*
X51911800Y-122634200D03*
G04 #@! TD*
G04 #@! TO.C,C141*
X53789600Y-122647600D03*
X53789600Y-120887600D03*
G04 #@! TD*
D45*
G04 #@! TO.C,C142*
X46069800Y-123259300D03*
X46069800Y-122484300D03*
G04 #@! TD*
D46*
G04 #@! TO.C,C143*
X46158300Y-124206000D03*
X45383300Y-124206000D03*
G04 #@! TD*
D45*
G04 #@! TO.C,C144*
X47084000Y-100336500D03*
X47084000Y-99561500D03*
G04 #@! TD*
G04 #@! TO.C,C145*
X51943000Y-100336500D03*
X51943000Y-99561500D03*
G04 #@! TD*
D46*
G04 #@! TO.C,C146*
X112268000Y-67360800D03*
X111493000Y-67360800D03*
G04 #@! TD*
D45*
G04 #@! TO.C,C147*
X31310600Y-137839300D03*
X31310600Y-138614300D03*
G04 #@! TD*
G04 #@! TO.C,C148*
X31305500Y-140214500D03*
X31305500Y-139439500D03*
G04 #@! TD*
D48*
G04 #@! TO.C,C149*
X108332400Y-74218800D03*
X110092400Y-74218800D03*
G04 #@! TD*
D51*
G04 #@! TO.C,C150*
X104284800Y-70936400D03*
X104284800Y-77196400D03*
G04 #@! TD*
D45*
G04 #@! TO.C,C151*
X111506000Y-75012700D03*
X111506000Y-74237700D03*
G04 #@! TD*
G04 #@! TO.C,C152*
X112522000Y-75012700D03*
X112522000Y-74237700D03*
G04 #@! TD*
G04 #@! TO.C,C153*
X101059000Y-121418500D03*
X101059000Y-120643500D03*
G04 #@! TD*
G04 #@! TO.C,C154*
X101059000Y-126320700D03*
X101059000Y-125545700D03*
G04 #@! TD*
G04 #@! TO.C,C155*
X104030800Y-121443900D03*
X104030800Y-120668900D03*
G04 #@! TD*
G04 #@! TO.C,C156*
X104076500Y-126295300D03*
X104076500Y-125520300D03*
G04 #@! TD*
G04 #@! TO.C,C157*
X96868000Y-121418500D03*
X96868000Y-120643500D03*
G04 #@! TD*
G04 #@! TO.C,C158*
X96715600Y-126320700D03*
X96715600Y-125545700D03*
G04 #@! TD*
G04 #@! TO.C,C159*
X110152200Y-120541900D03*
X110152200Y-121316900D03*
G04 #@! TD*
G04 #@! TO.C,C160*
X110236000Y-125533000D03*
X110236000Y-126308000D03*
G04 #@! TD*
G04 #@! TO.C,C161*
X107378500Y-120643500D03*
X107378500Y-121418500D03*
G04 #@! TD*
G04 #@! TO.C,C162*
X107251500Y-125533000D03*
X107251500Y-126308000D03*
G04 #@! TD*
G04 #@! TO.C,C164*
X95064600Y-121443900D03*
X95064600Y-120668900D03*
G04 #@! TD*
G04 #@! TO.C,C165*
X95039200Y-126320700D03*
X95039200Y-125545700D03*
G04 #@! TD*
D46*
G04 #@! TO.C,C178*
X88149300Y-57531000D03*
X88924300Y-57531000D03*
G04 #@! TD*
D45*
G04 #@! TO.C,C179*
X81436400Y-58580700D03*
X81436400Y-57805700D03*
G04 #@! TD*
D47*
G04 #@! TO.C,C180*
X80154800Y-57289800D03*
X80154800Y-58889800D03*
G04 #@! TD*
D46*
G04 #@! TO.C,C181*
X88123900Y-52718200D03*
X88898900Y-52718200D03*
G04 #@! TD*
G04 #@! TO.C,C182*
X88898900Y-56311800D03*
X88123900Y-56311800D03*
G04 #@! TD*
D45*
G04 #@! TO.C,C183*
X87884000Y-50425500D03*
X87884000Y-49650500D03*
G04 #@! TD*
D50*
G04 #@! TO.C,C184*
X90657800Y-56235600D03*
X92257800Y-56235600D03*
G04 #@! TD*
D47*
G04 #@! TO.C,C185*
X78232000Y-47967800D03*
X78232000Y-46367800D03*
G04 #@! TD*
D45*
G04 #@! TO.C,C186*
X83836400Y-50830700D03*
X83836400Y-50055700D03*
G04 #@! TD*
D50*
G04 #@! TO.C,C187*
X81412000Y-50825400D03*
X79812000Y-50825400D03*
G04 #@! TD*
D46*
G04 #@! TO.C,C188*
X80351500Y-52070000D03*
X81126500Y-52070000D03*
G04 #@! TD*
D45*
G04 #@! TO.C,C189*
X83836400Y-58580700D03*
X83836400Y-57805700D03*
G04 #@! TD*
G04 #@! TO.C,C190*
X86236400Y-57805700D03*
X86236400Y-58580700D03*
G04 #@! TD*
D46*
G04 #@! TO.C,C191*
X81151900Y-55905400D03*
X80376900Y-55905400D03*
G04 #@! TD*
G04 #@! TO.C,C192*
X80376900Y-53898800D03*
X81151900Y-53898800D03*
G04 #@! TD*
G04 #@! TO.C,C193*
X88898900Y-53918200D03*
X88123900Y-53918200D03*
G04 #@! TD*
G04 #@! TO.C,C194*
X88123900Y-51518200D03*
X88898900Y-51518200D03*
G04 #@! TD*
G04 #@! TO.C,C195*
X88898900Y-55118200D03*
X88123900Y-55118200D03*
G04 #@! TD*
D50*
G04 #@! TO.C,C196*
X90378400Y-53898800D03*
X91978400Y-53898800D03*
G04 #@! TD*
D45*
G04 #@! TO.C,C208*
X76751200Y-50539500D03*
X76751200Y-51314500D03*
G04 #@! TD*
D46*
G04 #@! TO.C,C209*
X74809500Y-48514000D03*
X74034500Y-48514000D03*
G04 #@! TD*
D45*
G04 #@! TO.C,C210*
X76771500Y-47504500D03*
X76771500Y-46729500D03*
G04 #@! TD*
D46*
G04 #@! TO.C,C211*
X75825500Y-45402500D03*
X75050500Y-45402500D03*
G04 #@! TD*
D45*
G04 #@! TO.C,C212*
X94742000Y-59569500D03*
X94742000Y-58794500D03*
G04 #@! TD*
G04 #@! TO.C,C213*
X91737200Y-59569500D03*
X91737200Y-58794500D03*
G04 #@! TD*
D46*
G04 #@! TO.C,C214*
X92957500Y-60579000D03*
X93732500Y-60579000D03*
G04 #@! TD*
D45*
G04 #@! TO.C,C215*
X72382400Y-51847900D03*
X72382400Y-51072900D03*
G04 #@! TD*
D47*
G04 #@! TO.C,C218*
X53594000Y-127088800D03*
X53594000Y-125488800D03*
G04 #@! TD*
D48*
G04 #@! TO.C,C219*
X110092400Y-76200000D03*
X108332400Y-76200000D03*
G04 #@! TD*
D45*
G04 #@! TO.C,C220*
X117475000Y-70478500D03*
X117475000Y-71253500D03*
G04 #@! TD*
D46*
G04 #@! TO.C,C241*
X65538500Y-141160500D03*
X64763500Y-141160500D03*
G04 #@! TD*
G04 #@! TO.C,C262*
X75347700Y-102362000D03*
X76122700Y-102362000D03*
G04 #@! TD*
D45*
G04 #@! TO.C,C263*
X66929000Y-102990500D03*
X66929000Y-103765500D03*
G04 #@! TD*
D46*
G04 #@! TO.C,C267*
X116452500Y-140208000D03*
X117227500Y-140208000D03*
G04 #@! TD*
G04 #@! TO.C,C269*
X72866100Y-117551200D03*
X73641100Y-117551200D03*
G04 #@! TD*
G04 #@! TO.C,C270*
X63214100Y-128016000D03*
X63989100Y-128016000D03*
G04 #@! TD*
G04 #@! TO.C,C271*
X79114500Y-116586000D03*
X79889500Y-116586000D03*
G04 #@! TD*
G04 #@! TO.C,C272*
X88715700Y-106121200D03*
X89490700Y-106121200D03*
G04 #@! TD*
G04 #@! TO.C,C277*
X80173700Y-128981200D03*
X80948700Y-128981200D03*
G04 #@! TD*
G04 #@! TO.C,C278*
X71812300Y-139446000D03*
X71037300Y-139446000D03*
G04 #@! TD*
G04 #@! TO.C,C279*
X89389100Y-117551200D03*
X88614100Y-117551200D03*
G04 #@! TD*
G04 #@! TO.C,C280*
X79584700Y-128016000D03*
X78809700Y-128016000D03*
G04 #@! TD*
D49*
G04 #@! TO.C,C281*
X85902800Y-145609200D03*
X85902800Y-143849200D03*
G04 #@! TD*
D47*
G04 #@! TO.C,D1*
X49339500Y-31089500D03*
X49339500Y-29489500D03*
G04 #@! TD*
G04 #@! TO.C,D2*
X50863500Y-29489500D03*
X50863500Y-31089500D03*
G04 #@! TD*
G04 #@! TO.C,D3*
X52387500Y-31089500D03*
X52387500Y-29489500D03*
G04 #@! TD*
G04 #@! TO.C,D4*
X53911500Y-31076800D03*
X53911500Y-29476800D03*
G04 #@! TD*
D50*
G04 #@! TO.C,D5*
X41237000Y-35304000D03*
X42837000Y-35304000D03*
G04 #@! TD*
G04 #@! TO.C,D6*
X45847000Y-35304000D03*
X44247000Y-35304000D03*
G04 #@! TD*
D52*
G04 #@! TO.C,D7*
X49911000Y-139512500D03*
X49911000Y-136712500D03*
G04 #@! TD*
G04 #@! TO.C,D8*
X52260500Y-136712500D03*
X52260500Y-139512500D03*
G04 #@! TD*
D47*
G04 #@! TO.C,D9*
X50436800Y-145097600D03*
X50436800Y-146697600D03*
G04 #@! TD*
G04 #@! TO.C,D11*
X64516000Y-142456000D03*
X64516000Y-144056000D03*
G04 #@! TD*
D53*
G04 #@! TO.C,D13*
X64514500Y-139001500D03*
X65914500Y-139001500D03*
G04 #@! TD*
D46*
G04 #@! TO.C,FB1*
X45005100Y-40132000D03*
X45780100Y-40132000D03*
G04 #@! TD*
G04 #@! TO.C,FB2*
X48081100Y-39116000D03*
X47306100Y-39116000D03*
G04 #@! TD*
G04 #@! TO.C,FB3*
X90892500Y-57658000D03*
X91667500Y-57658000D03*
G04 #@! TD*
G04 #@! TO.C,FB4*
X90435300Y-51435000D03*
X91210300Y-51435000D03*
G04 #@! TD*
D13*
G04 #@! TO.C,J1*
X36907000Y-65590000D03*
X30657000Y-65590000D03*
X36907000Y-67590000D03*
X30657000Y-67590000D03*
X36907000Y-69590000D03*
X30657000Y-69590000D03*
X36907000Y-71590000D03*
X30657000Y-71590000D03*
X36907000Y-73590000D03*
X30657000Y-73590000D03*
X36907000Y-75590000D03*
X30657000Y-75590000D03*
X36907000Y-77590000D03*
X30657000Y-77590000D03*
X36907000Y-79590000D03*
X30657000Y-79590000D03*
X36907000Y-81590000D03*
X30657000Y-81590000D03*
X36907000Y-83590000D03*
X30657000Y-83590000D03*
X36907000Y-85590000D03*
X30657000Y-85590000D03*
X36907000Y-87590000D03*
X30657000Y-87590000D03*
X36907000Y-89590000D03*
X30657000Y-89590000D03*
X36907000Y-91590000D03*
X30657000Y-91590000D03*
X36907000Y-93590000D03*
X30657000Y-93590000D03*
X36907000Y-95590000D03*
X30657000Y-95590000D03*
X36907000Y-97590000D03*
X30657000Y-97590000D03*
X36907000Y-99590000D03*
X30657000Y-99590000D03*
X36907000Y-101590000D03*
X30657000Y-101590000D03*
X36907000Y-103590000D03*
X30657000Y-103590000D03*
G04 #@! TD*
D54*
G04 #@! TO.C,J3*
X41470600Y-62814200D03*
X42740600Y-64084200D03*
X42740600Y-61544200D03*
X40200600Y-61544200D03*
X40200600Y-64084200D03*
G04 #@! TD*
G04 #@! TO.C,J4*
X48303200Y-64084200D03*
X48303200Y-61544200D03*
X50843200Y-61544200D03*
X50843200Y-64084200D03*
X49573200Y-62814200D03*
G04 #@! TD*
G04 #@! TO.C,J5*
X40200600Y-70434200D03*
X40200600Y-67894200D03*
X42740600Y-67894200D03*
X42740600Y-70434200D03*
X41470600Y-69164200D03*
G04 #@! TD*
G04 #@! TO.C,J6*
X48303200Y-70434200D03*
X48303200Y-67894200D03*
X50843200Y-67894200D03*
X50843200Y-70434200D03*
X49573200Y-69164200D03*
G04 #@! TD*
D55*
G04 #@! TO.C,J7*
X44480000Y-32702000D03*
X43830000Y-32702000D03*
X43180000Y-32702000D03*
X42530000Y-32702000D03*
X41880000Y-32702000D03*
D56*
X45642500Y-32342000D03*
X40717500Y-32342000D03*
D57*
X46090000Y-30042000D03*
X40270000Y-30042000D03*
D58*
X44020000Y-30042000D03*
X42340000Y-30042000D03*
G04 #@! TD*
D59*
G04 #@! TO.C,J11*
X57879000Y-51403800D03*
X57879000Y-47503800D03*
X59149000Y-51403800D03*
X59149000Y-47503800D03*
X60419000Y-51403800D03*
X60419000Y-47503800D03*
X61689000Y-51403800D03*
X61689000Y-47503800D03*
X62959000Y-51403800D03*
X62959000Y-47503800D03*
G04 #@! TD*
D60*
G04 #@! TO.C,J13*
X51066000Y-97282000D03*
X47166000Y-97282000D03*
X51066000Y-96012000D03*
X47166000Y-96012000D03*
X51066000Y-94742000D03*
X47166000Y-94742000D03*
X51066000Y-93472000D03*
X47166000Y-93472000D03*
G04 #@! TD*
G04 #@! TO.C,J14*
X31799000Y-113512600D03*
X35699000Y-113512600D03*
X31799000Y-114782600D03*
X35699000Y-114782600D03*
X31799000Y-116052600D03*
X35699000Y-116052600D03*
X31799000Y-117322600D03*
X35699000Y-117322600D03*
X31799000Y-118592600D03*
X35699000Y-118592600D03*
X31799000Y-119862600D03*
X35699000Y-119862600D03*
X31799000Y-121132600D03*
X35699000Y-121132600D03*
X31799000Y-122402600D03*
X35699000Y-122402600D03*
X31799000Y-123672600D03*
X35699000Y-123672600D03*
X31799000Y-124942600D03*
X35699000Y-124942600D03*
X31799000Y-126212600D03*
X35699000Y-126212600D03*
G04 #@! TD*
D54*
G04 #@! TO.C,J15*
X40200600Y-83134200D03*
X40200600Y-80594200D03*
X42740600Y-80594200D03*
X42740600Y-83134200D03*
X41470600Y-81864200D03*
G04 #@! TD*
G04 #@! TO.C,J16*
X49573200Y-81864200D03*
X50843200Y-83134200D03*
X50843200Y-80594200D03*
X48303200Y-80594200D03*
X48303200Y-83134200D03*
G04 #@! TD*
G04 #@! TO.C,J17*
X41470600Y-75514200D03*
X42740600Y-76784200D03*
X42740600Y-74244200D03*
X40200600Y-74244200D03*
X40200600Y-76784200D03*
G04 #@! TD*
G04 #@! TO.C,J18*
X49573200Y-75514200D03*
X50843200Y-76784200D03*
X50843200Y-74244200D03*
X48303200Y-74244200D03*
X48303200Y-76784200D03*
G04 #@! TD*
D61*
G04 #@! TO.C,J19*
X68072000Y-46000000D03*
D62*
X68072000Y-48540000D03*
X68072000Y-51080000D03*
G04 #@! TD*
D63*
G04 #@! TO.C,L1*
X46939200Y-131226200D03*
X46939200Y-129276200D03*
G04 #@! TD*
D64*
G04 #@! TO.C,L2*
X55684800Y-122910600D03*
X57634800Y-122910600D03*
G04 #@! TD*
D63*
G04 #@! TO.C,L3*
X56489600Y-130190600D03*
X56489600Y-132140600D03*
G04 #@! TD*
D64*
G04 #@! TO.C,L4*
X49266200Y-118567200D03*
X51216200Y-118567200D03*
G04 #@! TD*
G04 #@! TO.C,L6*
X85244600Y-141528800D03*
X83294600Y-141528800D03*
G04 #@! TD*
D65*
G04 #@! TO.C,M1*
X32897600Y-144590000D03*
G04 #@! TD*
G04 #@! TO.C,M2*
X32897600Y-32590000D03*
G04 #@! TD*
G04 #@! TO.C,M3*
X114897600Y-32590000D03*
G04 #@! TD*
G04 #@! TO.C,M4*
X107997600Y-145590000D03*
G04 #@! TD*
G04 #@! TO.C,M5*
X32897600Y-109590000D03*
G04 #@! TD*
G04 #@! TO.C,M6*
X107997600Y-82590000D03*
G04 #@! TD*
D66*
G04 #@! TO.C,Q5*
X43167400Y-120061200D03*
X43167400Y-121361200D03*
X41267400Y-120711200D03*
X43167400Y-120711200D03*
X41267400Y-121361200D03*
X41267400Y-120061200D03*
G04 #@! TD*
D46*
G04 #@! TO.C,R1*
X64446300Y-106121200D03*
X63671300Y-106121200D03*
G04 #@! TD*
G04 #@! TO.C,R4*
X63722100Y-117551200D03*
X64497100Y-117551200D03*
G04 #@! TD*
G04 #@! TO.C,R6*
X88614100Y-116586000D03*
X89389100Y-116586000D03*
G04 #@! TD*
G04 #@! TO.C,R8*
X88360100Y-128016000D03*
X89135100Y-128016000D03*
G04 #@! TD*
G04 #@! TO.C,R9*
X71088100Y-128981200D03*
X71863100Y-128981200D03*
G04 #@! TD*
D45*
G04 #@! TO.C,R10*
X52545000Y-111118500D03*
X52545000Y-111893500D03*
G04 #@! TD*
G04 #@! TO.C,R11*
X51562000Y-111118500D03*
X51562000Y-111893500D03*
G04 #@! TD*
G04 #@! TO.C,R12*
X106426000Y-120643500D03*
X106426000Y-121418500D03*
G04 #@! TD*
D46*
G04 #@! TO.C,R15*
X64127300Y-57937400D03*
X64902300Y-57937400D03*
G04 #@! TD*
G04 #@! TO.C,R23*
X41853000Y-42164000D03*
X41078000Y-42164000D03*
G04 #@! TD*
G04 #@! TO.C,R33*
X48091500Y-42164000D03*
X47316500Y-42164000D03*
G04 #@! TD*
G04 #@! TO.C,R35*
X46975900Y-132664200D03*
X47750900Y-132664200D03*
G04 #@! TD*
D45*
G04 #@! TO.C,R36*
X52260500Y-146691500D03*
X52260500Y-145916500D03*
G04 #@! TD*
D46*
G04 #@! TO.C,R37*
X54558100Y-90093800D03*
X53783100Y-90093800D03*
G04 #@! TD*
D45*
G04 #@! TO.C,R40*
X62636400Y-132061100D03*
X62636400Y-131286100D03*
G04 #@! TD*
G04 #@! TO.C,R41*
X61671200Y-131286100D03*
X61671200Y-132061100D03*
G04 #@! TD*
D46*
G04 #@! TO.C,R42*
X32696000Y-136334500D03*
X33471000Y-136334500D03*
G04 #@! TD*
G04 #@! TO.C,R43*
X51905300Y-124345000D03*
X52680300Y-124345000D03*
G04 #@! TD*
D45*
G04 #@! TO.C,R44*
X56380400Y-80321000D03*
X56380400Y-81096000D03*
G04 #@! TD*
D46*
G04 #@! TO.C,R45*
X64763500Y-140208000D03*
X65538500Y-140208000D03*
G04 #@! TD*
D45*
G04 #@! TO.C,R60*
X46075600Y-119195700D03*
X46075600Y-119970700D03*
G04 #@! TD*
G04 #@! TO.C,R61*
X46075600Y-121596300D03*
X46075600Y-120821300D03*
G04 #@! TD*
D46*
G04 #@! TO.C,R62*
X35122000Y-136334500D03*
X34347000Y-136334500D03*
G04 #@! TD*
G04 #@! TO.C,R64*
X61639300Y-132994400D03*
X62414300Y-132994400D03*
G04 #@! TD*
G04 #@! TO.C,R66*
X115047900Y-68986400D03*
X115822900Y-68986400D03*
G04 #@! TD*
D45*
G04 #@! TO.C,R67*
X30353000Y-139439500D03*
X30353000Y-140214500D03*
G04 #@! TD*
D46*
G04 #@! TO.C,R68*
X47839500Y-102768400D03*
X48614500Y-102768400D03*
G04 #@! TD*
D45*
G04 #@! TO.C,R69*
X116522500Y-71253500D03*
X116522500Y-70478500D03*
G04 #@! TD*
G04 #@! TO.C,R71*
X115570000Y-71253500D03*
X115570000Y-70478500D03*
G04 #@! TD*
D46*
G04 #@! TO.C,R73*
X96759900Y-127635000D03*
X97534900Y-127635000D03*
G04 #@! TD*
D67*
G04 #@! TO.C,R75*
X58607600Y-87922800D03*
X58607600Y-87422800D03*
X58607600Y-86422800D03*
X58607600Y-86922800D03*
X57607600Y-87922800D03*
X57607600Y-86922800D03*
X57607600Y-87422800D03*
X57607600Y-86422800D03*
G04 #@! TD*
G04 #@! TO.C,R76*
X61079000Y-89840500D03*
X61079000Y-89340500D03*
X61079000Y-88340500D03*
X61079000Y-88840500D03*
X60079000Y-89840500D03*
X60079000Y-88840500D03*
X60079000Y-89340500D03*
X60079000Y-88340500D03*
G04 #@! TD*
D46*
G04 #@! TO.C,R77*
X61030000Y-91821000D03*
X60255000Y-91821000D03*
G04 #@! TD*
G04 #@! TO.C,R78*
X60255000Y-90868500D03*
X61030000Y-90868500D03*
G04 #@! TD*
D45*
G04 #@! TO.C,R98*
X90106500Y-62808000D03*
X90106500Y-62033000D03*
G04 #@! TD*
G04 #@! TO.C,R99*
X89154000Y-62033000D03*
X89154000Y-62808000D03*
G04 #@! TD*
G04 #@! TO.C,R100*
X81534000Y-62808000D03*
X81534000Y-62033000D03*
G04 #@! TD*
G04 #@! TO.C,R101*
X82486500Y-62808000D03*
X82486500Y-62033000D03*
G04 #@! TD*
G04 #@! TO.C,R102*
X83439000Y-62033000D03*
X83439000Y-62808000D03*
G04 #@! TD*
G04 #@! TO.C,R103*
X84391500Y-62808000D03*
X84391500Y-62033000D03*
G04 #@! TD*
G04 #@! TO.C,R104*
X85344000Y-62033000D03*
X85344000Y-62808000D03*
G04 #@! TD*
G04 #@! TO.C,R105*
X86296500Y-62033000D03*
X86296500Y-62808000D03*
G04 #@! TD*
G04 #@! TO.C,R106*
X87249000Y-62033000D03*
X87249000Y-62808000D03*
G04 #@! TD*
G04 #@! TO.C,R107*
X88201500Y-62808000D03*
X88201500Y-62033000D03*
G04 #@! TD*
G04 #@! TO.C,R108*
X80581500Y-62808000D03*
X80581500Y-62033000D03*
G04 #@! TD*
G04 #@! TO.C,R109*
X78676500Y-62808000D03*
X78676500Y-62033000D03*
G04 #@! TD*
G04 #@! TO.C,R110*
X79629000Y-62033000D03*
X79629000Y-62808000D03*
G04 #@! TD*
D46*
G04 #@! TO.C,R111*
X78408700Y-57073800D03*
X77633700Y-57073800D03*
G04 #@! TD*
G04 #@! TO.C,R112*
X79411700Y-48742600D03*
X80186700Y-48742600D03*
G04 #@! TD*
G04 #@! TO.C,R116*
X73653500Y-53086000D03*
X74428500Y-53086000D03*
G04 #@! TD*
G04 #@! TO.C,R117*
X113404500Y-67360800D03*
X114179500Y-67360800D03*
G04 #@! TD*
G04 #@! TO.C,R138*
X84397700Y-146913600D03*
X85172700Y-146913600D03*
G04 #@! TD*
G04 #@! TO.C,R139*
X91319500Y-85471000D03*
X90544500Y-85471000D03*
G04 #@! TD*
G04 #@! TO.C,R140*
X90544500Y-84518500D03*
X91319500Y-84518500D03*
G04 #@! TD*
G04 #@! TO.C,R141*
X90536900Y-81661000D03*
X91311900Y-81661000D03*
G04 #@! TD*
G04 #@! TO.C,R142*
X91319500Y-83566000D03*
X90544500Y-83566000D03*
G04 #@! TD*
G04 #@! TO.C,R143*
X90544500Y-82613500D03*
X91319500Y-82613500D03*
G04 #@! TD*
G04 #@! TO.C,R144*
X91311900Y-86423500D03*
X90536900Y-86423500D03*
G04 #@! TD*
D68*
G04 #@! TO.C,R145*
X76188000Y-70302500D03*
X75688000Y-70302500D03*
X74688000Y-70302500D03*
X75188000Y-70302500D03*
X76188000Y-71302500D03*
X75188000Y-71302500D03*
X75688000Y-71302500D03*
X74688000Y-71302500D03*
G04 #@! TD*
G04 #@! TO.C,R146*
X77228000Y-71302500D03*
X78228000Y-71302500D03*
X77728000Y-71302500D03*
X78728000Y-71302500D03*
X77728000Y-70302500D03*
X77228000Y-70302500D03*
X78228000Y-70302500D03*
X78728000Y-70302500D03*
G04 #@! TD*
G04 #@! TO.C,R147*
X81268000Y-70302500D03*
X80768000Y-70302500D03*
X79768000Y-70302500D03*
X80268000Y-70302500D03*
X81268000Y-71302500D03*
X80268000Y-71302500D03*
X80768000Y-71302500D03*
X79768000Y-71302500D03*
G04 #@! TD*
G04 #@! TO.C,R151*
X82244500Y-71289800D03*
X83244500Y-71289800D03*
X82744500Y-71289800D03*
X83744500Y-71289800D03*
X82744500Y-70289800D03*
X82244500Y-70289800D03*
X83244500Y-70289800D03*
X83744500Y-70289800D03*
G04 #@! TD*
D46*
G04 #@! TO.C,R156*
X82772100Y-146913600D03*
X83547100Y-146913600D03*
G04 #@! TD*
D68*
G04 #@! TO.C,R158*
X72211500Y-71302500D03*
X73211500Y-71302500D03*
X72711500Y-71302500D03*
X73711500Y-71302500D03*
X72711500Y-70302500D03*
X72211500Y-70302500D03*
X73211500Y-70302500D03*
X73711500Y-70302500D03*
G04 #@! TD*
G04 #@! TO.C,R159*
X71235000Y-70302500D03*
X70735000Y-70302500D03*
X69735000Y-70302500D03*
X70235000Y-70302500D03*
X71235000Y-71302500D03*
X70235000Y-71302500D03*
X70735000Y-71302500D03*
X69735000Y-71302500D03*
G04 #@! TD*
D45*
G04 #@! TO.C,R160*
X68770500Y-71126500D03*
X68770500Y-70351500D03*
G04 #@! TD*
D69*
G04 #@! TO.C,R163*
X67893500Y-104005000D03*
D70*
X68893500Y-104005000D03*
X68393500Y-104005000D03*
D69*
X69393500Y-104005000D03*
D70*
X68393500Y-103005000D03*
D69*
X67893500Y-103005000D03*
D70*
X68893500Y-103005000D03*
D69*
X69393500Y-103005000D03*
G04 #@! TD*
G04 #@! TO.C,R165*
X71870000Y-103005000D03*
D70*
X71370000Y-103005000D03*
D69*
X70370000Y-103005000D03*
D70*
X70870000Y-103005000D03*
D69*
X71870000Y-104005000D03*
D70*
X70870000Y-104005000D03*
X71370000Y-104005000D03*
D69*
X70370000Y-104005000D03*
G04 #@! TD*
G04 #@! TO.C,R167*
X72902400Y-104005000D03*
D70*
X73902400Y-104005000D03*
X73402400Y-104005000D03*
D69*
X74402400Y-104005000D03*
D70*
X73402400Y-103005000D03*
D69*
X72902400Y-103005000D03*
D70*
X73902400Y-103005000D03*
D69*
X74402400Y-103005000D03*
G04 #@! TD*
D45*
G04 #@! TO.C,R172*
X113225600Y-126460100D03*
X113225600Y-127235100D03*
G04 #@! TD*
D46*
G04 #@! TO.C,R173*
X114108100Y-133146800D03*
X114883100Y-133146800D03*
G04 #@! TD*
G04 #@! TO.C,R174*
X114082700Y-134366000D03*
X114857700Y-134366000D03*
G04 #@! TD*
G04 #@! TO.C,R175*
X61460210Y-44640500D03*
X62235210Y-44640500D03*
G04 #@! TD*
G04 #@! TO.C,R177*
X81921500Y-146913600D03*
X81146500Y-146913600D03*
G04 #@! TD*
D45*
G04 #@! TO.C,R180*
X76327000Y-104019500D03*
X76327000Y-103244500D03*
G04 #@! TD*
G04 #@! TO.C,R181*
X75374500Y-103244500D03*
X75374500Y-104019500D03*
G04 #@! TD*
G04 #@! TO.C,R182*
X62357000Y-84588500D03*
X62357000Y-83813500D03*
G04 #@! TD*
G04 #@! TO.C,R183*
X62357000Y-82937500D03*
X62357000Y-82162500D03*
G04 #@! TD*
D50*
G04 #@! TO.C,RS4*
X54711500Y-100711000D03*
X53111500Y-100711000D03*
G04 #@! TD*
G04 #@! TO.C,RS6*
X54711500Y-102235000D03*
X53111500Y-102235000D03*
G04 #@! TD*
G04 #@! TO.C,RS9*
X54711500Y-99187000D03*
X53111500Y-99187000D03*
G04 #@! TD*
D47*
G04 #@! TO.C,RS11*
X86868000Y-140779600D03*
X86868000Y-142379600D03*
G04 #@! TD*
D71*
G04 #@! TO.C,S1*
X58133000Y-29959600D03*
X70833000Y-38569600D03*
X60673000Y-29959600D03*
X68293000Y-38569600D03*
X63213000Y-29959600D03*
X65753000Y-38569600D03*
X65753000Y-29959600D03*
X63213000Y-38569600D03*
X68293000Y-29959600D03*
X60673000Y-38569600D03*
X70833000Y-29959600D03*
X58133000Y-38569600D03*
G04 #@! TD*
G04 #@! TO.C,S3*
X75946000Y-38569600D03*
X88646000Y-29959600D03*
X78486000Y-38569600D03*
X86106000Y-29959600D03*
X81026000Y-38569600D03*
X83566000Y-29959600D03*
X83566000Y-38569600D03*
X81026000Y-29959600D03*
X86106000Y-38569600D03*
X78486000Y-29959600D03*
X88646000Y-38569600D03*
X75946000Y-29959600D03*
G04 #@! TD*
D12*
G04 #@! TO.C,U1*
X65911200Y-97356200D03*
X65911200Y-96356200D03*
X65911200Y-95356200D03*
X65911200Y-94356200D03*
X65911200Y-93356200D03*
X65911200Y-92356200D03*
X65911200Y-91356200D03*
X65911200Y-90356200D03*
X65911200Y-89356200D03*
X65911200Y-88356200D03*
X65911200Y-87356200D03*
X65911200Y-86356200D03*
X65911200Y-85356200D03*
X65911200Y-84356200D03*
X65911200Y-83356200D03*
X65911200Y-82356200D03*
X66911200Y-97356200D03*
X67911200Y-97356200D03*
X68911200Y-97356200D03*
X69911200Y-97356200D03*
X70911200Y-97356200D03*
X71911200Y-97356200D03*
X72911200Y-97356200D03*
X73911200Y-97356200D03*
X66911200Y-82356200D03*
X66911200Y-83356200D03*
X66911200Y-84356200D03*
X66911200Y-85356200D03*
X66911200Y-86356200D03*
X66911200Y-87356200D03*
X66911200Y-88356200D03*
X66911200Y-89356200D03*
X66911200Y-90356200D03*
X66911200Y-91356200D03*
X66911200Y-92356200D03*
X66911200Y-93356200D03*
X66911200Y-96356200D03*
X66911200Y-95356200D03*
X66911200Y-94356200D03*
X67911200Y-96356200D03*
X67911200Y-95356200D03*
X67911200Y-94356200D03*
X67911200Y-93356200D03*
X67911200Y-92356200D03*
X67911200Y-91356200D03*
X67911200Y-90356200D03*
X67911200Y-89356200D03*
X68911200Y-96356200D03*
X68911200Y-95356200D03*
X68911200Y-94356200D03*
X68911200Y-93356200D03*
X68911200Y-92356200D03*
X68911200Y-91356200D03*
X68911200Y-90356200D03*
X68911200Y-89356200D03*
X69911200Y-96356200D03*
X69911200Y-95356200D03*
X69911200Y-94356200D03*
X67911200Y-88356200D03*
X68911200Y-88356200D03*
X67911200Y-87356200D03*
X68911200Y-87356200D03*
X68911200Y-86356200D03*
X67911200Y-86356200D03*
X67911200Y-85356200D03*
X67911200Y-84356200D03*
X68911200Y-84356200D03*
X68911200Y-85356200D03*
X67911200Y-83356200D03*
X68911200Y-83356200D03*
X68911200Y-82356200D03*
X67911200Y-82356200D03*
X69911200Y-85356200D03*
X70911200Y-85356200D03*
X70911200Y-84356200D03*
X69911200Y-84356200D03*
X69911200Y-83356200D03*
X70911200Y-83356200D03*
X71911200Y-83356200D03*
X71911200Y-82356200D03*
X70911200Y-82356200D03*
X69911200Y-82356200D03*
X70911200Y-96356200D03*
X70911200Y-95356200D03*
X70911200Y-94356200D03*
X71911200Y-94356200D03*
X71911200Y-95356200D03*
X71911200Y-96356200D03*
X72911200Y-96356200D03*
X72911200Y-95356200D03*
X72911200Y-94356200D03*
X73911200Y-94356200D03*
X73911200Y-95356200D03*
X73911200Y-96356200D03*
X74911200Y-97356200D03*
X74911200Y-96356200D03*
X74911200Y-95356200D03*
X74911200Y-94356200D03*
X75911200Y-94356200D03*
X75911200Y-95356200D03*
X75911200Y-96356200D03*
X75911200Y-97356200D03*
X76911200Y-97356200D03*
X76911200Y-96356200D03*
X76911200Y-95356200D03*
X76911200Y-94356200D03*
X77911200Y-94356200D03*
X78911200Y-94356200D03*
X79911200Y-94356200D03*
X79911200Y-95356200D03*
X78911200Y-95356200D03*
X77911200Y-95356200D03*
X77911200Y-96356200D03*
X78911200Y-96356200D03*
X79911200Y-96356200D03*
X77911200Y-97356200D03*
X78911200Y-97356200D03*
X79911200Y-97356200D03*
X80911200Y-97356200D03*
X80911200Y-96356200D03*
X80911200Y-95356200D03*
X80911200Y-94356200D03*
X69911200Y-90356200D03*
X69911200Y-91356200D03*
X69911200Y-92356200D03*
X69911200Y-93356200D03*
X70911200Y-93356200D03*
X70911200Y-92356200D03*
X70911200Y-91356200D03*
X70911200Y-90356200D03*
X71911200Y-93356200D03*
X71911200Y-92356200D03*
X71911200Y-91356200D03*
X72911200Y-93356200D03*
X72911200Y-92356200D03*
X73911200Y-93356200D03*
X73911200Y-92356200D03*
X74911200Y-93356200D03*
X74911200Y-92356200D03*
X75911200Y-93356200D03*
X75911200Y-92356200D03*
X76911200Y-93356200D03*
X76911200Y-92356200D03*
X78911200Y-93356200D03*
X78911200Y-92356200D03*
X79911200Y-93356200D03*
X79911200Y-92356200D03*
X80911200Y-93356200D03*
X80911200Y-92356200D03*
X77911200Y-93356200D03*
X77911200Y-92356200D03*
X79911200Y-91356200D03*
X79911200Y-90356200D03*
X79911200Y-89356200D03*
X79911200Y-88356200D03*
X79911200Y-87356200D03*
X80911200Y-91356200D03*
X80911200Y-90356200D03*
X80911200Y-89356200D03*
X80911200Y-88356200D03*
X80911200Y-87356200D03*
X69911200Y-89356200D03*
X69911200Y-88356200D03*
X69911200Y-87356200D03*
X69911200Y-86356200D03*
X70911200Y-89356200D03*
X70911200Y-88356200D03*
X70911200Y-87356200D03*
X70911200Y-86356200D03*
X79911200Y-86356200D03*
X80911200Y-86356200D03*
X79911200Y-85356200D03*
X80911200Y-85356200D03*
X80911200Y-84356200D03*
X79911200Y-84356200D03*
X72911200Y-83356200D03*
X73911200Y-83356200D03*
X74911200Y-83356200D03*
X75911200Y-83356200D03*
X76911200Y-83356200D03*
X77911200Y-83356200D03*
X78911200Y-83356200D03*
X79911200Y-83356200D03*
X80911200Y-83356200D03*
X80911200Y-82356200D03*
X79911200Y-82356200D03*
X78911200Y-82356200D03*
X77911200Y-82356200D03*
X76911200Y-82356200D03*
X75911200Y-82356200D03*
X74911200Y-82356200D03*
X73911200Y-82356200D03*
X72911200Y-82356200D03*
X65911200Y-81356200D03*
X65911200Y-80356200D03*
X65911200Y-79356200D03*
X65911200Y-78356200D03*
X66911200Y-81356200D03*
X66911200Y-80356200D03*
X66911200Y-79356200D03*
X66911200Y-78356200D03*
X67911200Y-81356200D03*
X67911200Y-80356200D03*
X67911200Y-79356200D03*
X67911200Y-78356200D03*
X68911200Y-81356200D03*
X68911200Y-80356200D03*
X68911200Y-79356200D03*
X68911200Y-78356200D03*
X69911200Y-81356200D03*
X69911200Y-80356200D03*
X69911200Y-79356200D03*
X69911200Y-78356200D03*
X70911200Y-81356200D03*
X70911200Y-80356200D03*
X70911200Y-79356200D03*
X70911200Y-78356200D03*
X71911200Y-81356200D03*
X71911200Y-80356200D03*
X71911200Y-79356200D03*
X71911200Y-78356200D03*
X72911200Y-81356200D03*
X72911200Y-80356200D03*
X72911200Y-79356200D03*
X72911200Y-78356200D03*
X73911200Y-81356200D03*
X73911200Y-80356200D03*
X73911200Y-79356200D03*
X73911200Y-78356200D03*
X74911200Y-81356200D03*
X74911200Y-80356200D03*
X74911200Y-79356200D03*
X74911200Y-78356200D03*
X75911200Y-81356200D03*
X75911200Y-80356200D03*
X75911200Y-79356200D03*
X75911200Y-78356200D03*
X76911200Y-81356200D03*
X76911200Y-80356200D03*
X76911200Y-79356200D03*
X76911200Y-78356200D03*
X77911200Y-81356200D03*
X77911200Y-80356200D03*
X77911200Y-79356200D03*
X77911200Y-78356200D03*
X78911200Y-81356200D03*
X78911200Y-80356200D03*
X78911200Y-79356200D03*
X78911200Y-78356200D03*
X79911200Y-81356200D03*
X79911200Y-80356200D03*
X79911200Y-79356200D03*
X79911200Y-78356200D03*
X80911200Y-81356200D03*
X80911200Y-80356200D03*
X80911200Y-79356200D03*
X80911200Y-78356200D03*
X81911200Y-97356200D03*
X82911200Y-97356200D03*
X83911200Y-97356200D03*
X84911200Y-97356200D03*
X84911200Y-96356200D03*
X84911200Y-95356200D03*
X84911200Y-94356200D03*
X84911200Y-93356200D03*
X84911200Y-92356200D03*
X84911200Y-91356200D03*
X84911200Y-90356200D03*
X84911200Y-89356200D03*
X84911200Y-88356200D03*
X84911200Y-87356200D03*
X84911200Y-86356200D03*
X84911200Y-85356200D03*
X84911200Y-84356200D03*
X84911200Y-83356200D03*
X84911200Y-82356200D03*
X84911200Y-81356200D03*
X84911200Y-80356200D03*
X84911200Y-79356200D03*
X84911200Y-78356200D03*
X83911200Y-96356200D03*
X83911200Y-95356200D03*
X83911200Y-94356200D03*
X83911200Y-93356200D03*
X83911200Y-92356200D03*
X83911200Y-91356200D03*
X83911200Y-90356200D03*
X83911200Y-89356200D03*
X83911200Y-88356200D03*
X83911200Y-87356200D03*
X83911200Y-86356200D03*
X83911200Y-85356200D03*
X83911200Y-84356200D03*
X83911200Y-83356200D03*
X83911200Y-82356200D03*
X83911200Y-81356200D03*
X83911200Y-80356200D03*
X83911200Y-79356200D03*
X83911200Y-78356200D03*
X82911200Y-96356200D03*
X82911200Y-95356200D03*
X82911200Y-94356200D03*
X82911200Y-93356200D03*
X82911200Y-92356200D03*
X82911200Y-91356200D03*
X82911200Y-90356200D03*
X82911200Y-89356200D03*
X82911200Y-88356200D03*
X82911200Y-87356200D03*
X82911200Y-86356200D03*
X82911200Y-85356200D03*
X82911200Y-84356200D03*
X82911200Y-83356200D03*
X82911200Y-82356200D03*
X82911200Y-81356200D03*
X82911200Y-80356200D03*
X82911200Y-79356200D03*
X82911200Y-78356200D03*
X81911200Y-96356200D03*
X81911200Y-95356200D03*
X81911200Y-94356200D03*
X81911200Y-93356200D03*
X81911200Y-92356200D03*
X81911200Y-91356200D03*
X81911200Y-90356200D03*
X81911200Y-89356200D03*
X81911200Y-88356200D03*
X81911200Y-87356200D03*
X81911200Y-86356200D03*
X81911200Y-85356200D03*
X81911200Y-84356200D03*
X81911200Y-83356200D03*
X81911200Y-82356200D03*
X81911200Y-81356200D03*
X81911200Y-80356200D03*
X81911200Y-79356200D03*
X81911200Y-78356200D03*
X85911200Y-97356200D03*
X85911200Y-96356200D03*
X85911200Y-95356200D03*
X85911200Y-94356200D03*
X85911200Y-93356200D03*
X85911200Y-92356200D03*
X85911200Y-91356200D03*
X85911200Y-90356200D03*
X85911200Y-89356200D03*
X85911200Y-88356200D03*
X85911200Y-87356200D03*
X85911200Y-86356200D03*
X85911200Y-85356200D03*
X85911200Y-84356200D03*
X85911200Y-83356200D03*
X85911200Y-82356200D03*
X85911200Y-81356200D03*
X85911200Y-80356200D03*
X85911200Y-79356200D03*
X85911200Y-78356200D03*
X85911200Y-77356200D03*
X85911200Y-76356200D03*
X86911200Y-97356200D03*
X86911200Y-96356200D03*
X86911200Y-95356200D03*
X86911200Y-94356200D03*
X86911200Y-93356200D03*
X86911200Y-92356200D03*
X86911200Y-91356200D03*
X86911200Y-90356200D03*
X86911200Y-89356200D03*
X86911200Y-88356200D03*
X86911200Y-87356200D03*
X86911200Y-86356200D03*
X86911200Y-85356200D03*
X86911200Y-84356200D03*
X86911200Y-83356200D03*
X86911200Y-82356200D03*
X86911200Y-81356200D03*
X86911200Y-80356200D03*
X86911200Y-79356200D03*
X86911200Y-78356200D03*
X86911200Y-77356200D03*
X86911200Y-76356200D03*
X78911200Y-91356200D03*
X78911200Y-90356200D03*
X78911200Y-89356200D03*
X78911200Y-88356200D03*
X78911200Y-87356200D03*
X78911200Y-86356200D03*
X78911200Y-85356200D03*
X78911200Y-84356200D03*
X77911200Y-91356200D03*
X77911200Y-90356200D03*
X77911200Y-89356200D03*
X77911200Y-88356200D03*
X77911200Y-87356200D03*
X77911200Y-86356200D03*
X77911200Y-85356200D03*
X77911200Y-84356200D03*
X76911200Y-91356200D03*
X76911200Y-90356200D03*
X76911200Y-89356200D03*
X76911200Y-88356200D03*
X76911200Y-87356200D03*
X76911200Y-86356200D03*
X76911200Y-85356200D03*
X76911200Y-84356200D03*
X75911200Y-91356200D03*
X75911200Y-90356200D03*
X75911200Y-89356200D03*
X75911200Y-88356200D03*
X75911200Y-87356200D03*
X75911200Y-86356200D03*
X75911200Y-85356200D03*
X75911200Y-84356200D03*
X74911200Y-91356200D03*
X74911200Y-90356200D03*
X74911200Y-89356200D03*
X74911200Y-88356200D03*
X74911200Y-87356200D03*
X74911200Y-86356200D03*
X74911200Y-85356200D03*
X74911200Y-84356200D03*
X71911200Y-90356200D03*
X71911200Y-89356200D03*
X71911200Y-88356200D03*
X71911200Y-87356200D03*
X71911200Y-86356200D03*
X71911200Y-85356200D03*
X71911200Y-84356200D03*
X72911200Y-91356200D03*
X72911200Y-90356200D03*
X72911200Y-89356200D03*
X72911200Y-88356200D03*
X72911200Y-87356200D03*
X72911200Y-86356200D03*
X72911200Y-85356200D03*
X72911200Y-84356200D03*
X73911200Y-91356200D03*
X73911200Y-90356200D03*
X73911200Y-89356200D03*
X73911200Y-88356200D03*
X73911200Y-87356200D03*
X73911200Y-86356200D03*
X73911200Y-85356200D03*
X73911200Y-84356200D03*
X65911200Y-77356200D03*
X65911200Y-76356200D03*
X66911200Y-77356200D03*
X66911200Y-76356200D03*
X67911200Y-77356200D03*
X67911200Y-76356200D03*
X68911200Y-77356200D03*
X68911200Y-76356200D03*
X69911200Y-77356200D03*
X69911200Y-76356200D03*
X70911200Y-77356200D03*
X70911200Y-76356200D03*
X71911200Y-77356200D03*
X71911200Y-76356200D03*
X72911200Y-77356200D03*
X72911200Y-76356200D03*
X73911200Y-77356200D03*
X73911200Y-76356200D03*
X74911200Y-77356200D03*
X74911200Y-76356200D03*
X75911200Y-77356200D03*
X75911200Y-76356200D03*
X76911200Y-77356200D03*
X76911200Y-76356200D03*
X77911200Y-77356200D03*
X77911200Y-76356200D03*
X78911200Y-77356200D03*
X78911200Y-76356200D03*
X79911200Y-77356200D03*
X79911200Y-76356200D03*
X80911200Y-77356200D03*
X80911200Y-76356200D03*
X81911200Y-77356200D03*
X81911200Y-76356200D03*
X82911200Y-77356200D03*
X82911200Y-76356200D03*
X83911200Y-77356200D03*
X83911200Y-76356200D03*
X84911200Y-77356200D03*
X84911200Y-76356200D03*
G04 #@! TD*
D72*
G04 #@! TO.C,U11*
X52394400Y-109407200D03*
X52394400Y-108907200D03*
D73*
X52679400Y-108407200D03*
D72*
X52394400Y-107907200D03*
D73*
X52679400Y-107407200D03*
D72*
X49444400Y-107407200D03*
X49444400Y-107907200D03*
D73*
X49159400Y-108407200D03*
X49159400Y-108907200D03*
X49159400Y-109407200D03*
D74*
X51369400Y-109042200D03*
D75*
X51169400Y-109957200D03*
D76*
X51169400Y-110037200D03*
D75*
X50669400Y-109957200D03*
X51169400Y-106857200D03*
X50669400Y-106857200D03*
D76*
X50669400Y-110037200D03*
X51169400Y-106777200D03*
X50669400Y-106777200D03*
D74*
X50469400Y-109042200D03*
X51369400Y-107772200D03*
X50469400Y-107772200D03*
D77*
X50919400Y-108407200D03*
D73*
X52679400Y-109407200D03*
X52679400Y-108907200D03*
D72*
X52394400Y-108407200D03*
D73*
X52679400Y-107907200D03*
D72*
X52394400Y-107407200D03*
D73*
X49159400Y-107407200D03*
X49159400Y-107907200D03*
D72*
X49444400Y-108407200D03*
X49444400Y-108907200D03*
X49444400Y-109407200D03*
G04 #@! TD*
D78*
G04 #@! TO.C,U13*
X49983000Y-44263000D03*
X49483000Y-44263000D03*
X48983000Y-44263000D03*
X48483000Y-44263000D03*
X47983000Y-44263000D03*
X47483000Y-44263000D03*
X46983000Y-44263000D03*
X46483000Y-44263000D03*
X45983000Y-44263000D03*
X45483000Y-44263000D03*
X44983000Y-44263000D03*
X44483000Y-44263000D03*
X43983000Y-44263000D03*
X43483000Y-44263000D03*
X42983000Y-44263000D03*
X42483000Y-44263000D03*
D79*
X40533000Y-46213000D03*
X40533000Y-46713000D03*
X40533000Y-47213000D03*
X40533000Y-47713000D03*
X40533000Y-48213000D03*
X40533000Y-48713000D03*
X40533000Y-49213000D03*
X40533000Y-49713000D03*
X40533000Y-50213000D03*
X40533000Y-50713000D03*
X40533000Y-51213000D03*
X40533000Y-51713000D03*
X40533000Y-52213000D03*
X40533000Y-52713000D03*
X40533000Y-53213000D03*
X40533000Y-53713000D03*
D78*
X42483000Y-55663000D03*
X42983000Y-55663000D03*
X43483000Y-55663000D03*
X43983000Y-55663000D03*
X44483000Y-55663000D03*
X44983000Y-55663000D03*
X45483000Y-55663000D03*
X45983000Y-55663000D03*
X46483000Y-55663000D03*
X46983000Y-55663000D03*
X47483000Y-55663000D03*
X47983000Y-55663000D03*
X48483000Y-55663000D03*
X48983000Y-55663000D03*
X49483000Y-55663000D03*
X49983000Y-55663000D03*
D79*
X51933000Y-53713000D03*
X51933000Y-53213000D03*
X51933000Y-52713000D03*
X51933000Y-52213000D03*
X51933000Y-51713000D03*
X51933000Y-51213000D03*
X51933000Y-50713000D03*
X51933000Y-50213000D03*
X51933000Y-49713000D03*
X51933000Y-49213000D03*
X51933000Y-48713000D03*
X51933000Y-48213000D03*
X51933000Y-47713000D03*
X51933000Y-47213000D03*
X51933000Y-46713000D03*
X51933000Y-46213000D03*
G04 #@! TD*
D80*
G04 #@! TO.C,U14*
X55915200Y-127249000D03*
X55415200Y-125349000D03*
X54915200Y-125349000D03*
D81*
X55665200Y-126299000D03*
D80*
X54915200Y-127249000D03*
X55415200Y-127249000D03*
X56415200Y-127249000D03*
X56415200Y-125349000D03*
X55915200Y-125349000D03*
G04 #@! TD*
D82*
G04 #@! TO.C,U16*
X49434200Y-120902200D03*
X48934200Y-120902200D03*
X48434200Y-120902200D03*
X47934200Y-120902200D03*
D83*
X47209200Y-121627200D03*
X47209200Y-122127200D03*
X47209200Y-122627200D03*
X47209200Y-123127200D03*
D82*
X47934200Y-123852200D03*
X48434200Y-123852200D03*
X48934200Y-123852200D03*
X49434200Y-123852200D03*
D83*
X50159200Y-123127200D03*
X50159200Y-122627200D03*
X50159200Y-122127200D03*
X50159200Y-121627200D03*
D84*
X48684200Y-122377200D03*
G04 #@! TD*
D85*
G04 #@! TO.C,U17*
X48422400Y-99532400D03*
X48422400Y-100482400D03*
X48422400Y-101432400D03*
X50622400Y-101432400D03*
X50622400Y-99532400D03*
G04 #@! TD*
G04 #@! TO.C,U19*
X32618500Y-137861000D03*
X32618500Y-138811000D03*
X32618500Y-139761000D03*
X34818500Y-139761000D03*
X34818500Y-137861000D03*
X34818500Y-138811000D03*
G04 #@! TD*
D86*
G04 #@! TO.C,U20*
X101048600Y-122544800D03*
X99748600Y-122544800D03*
X100398600Y-122544800D03*
X99748600Y-124444800D03*
X101048600Y-124444800D03*
G04 #@! TD*
G04 #@! TO.C,U21*
X103969600Y-122519400D03*
X102669600Y-122519400D03*
X103319600Y-122519400D03*
X102669600Y-124419400D03*
X103969600Y-124419400D03*
G04 #@! TD*
G04 #@! TO.C,U22*
X96903800Y-124444800D03*
X98203800Y-124444800D03*
X97553800Y-124444800D03*
X98203800Y-122544800D03*
X96903800Y-122544800D03*
G04 #@! TD*
G04 #@! TO.C,U23*
X110192600Y-124394000D03*
X108892600Y-124394000D03*
X109542600Y-122494000D03*
X108892600Y-122494000D03*
X110192600Y-122494000D03*
G04 #@! TD*
G04 #@! TO.C,U24*
X95028800Y-122544800D03*
X93728800Y-122544800D03*
X94378800Y-122544800D03*
X93728800Y-124444800D03*
X95028800Y-124444800D03*
G04 #@! TD*
G04 #@! TO.C,U25*
X107195400Y-124419400D03*
X105895400Y-124419400D03*
X106545400Y-122519400D03*
X105895400Y-122519400D03*
X107195400Y-122519400D03*
G04 #@! TD*
D84*
G04 #@! TO.C,U27*
X50870400Y-130983800D03*
D82*
X50120400Y-129508800D03*
X50620400Y-129508800D03*
X51120400Y-129508800D03*
X51620400Y-129508800D03*
D83*
X52345400Y-130233800D03*
X52345400Y-130733800D03*
X52345400Y-131233800D03*
X52345400Y-131733800D03*
D82*
X51620400Y-132458800D03*
X51120400Y-132458800D03*
X50620400Y-132458800D03*
X50120400Y-132458800D03*
D83*
X49395400Y-131733800D03*
X49395400Y-131233800D03*
X49395400Y-130733800D03*
X49395400Y-130233800D03*
G04 #@! TD*
D87*
G04 #@! TO.C,U36*
X93268800Y-59207400D03*
D88*
X93793800Y-59607400D03*
X93793800Y-59207400D03*
X93793800Y-58807400D03*
X92743800Y-59607400D03*
X92743800Y-59207400D03*
X92743800Y-58807400D03*
G04 #@! TD*
D66*
G04 #@! TO.C,U37*
X73566000Y-50531000D03*
X73566000Y-51831000D03*
X73566000Y-51181000D03*
X75466000Y-51831000D03*
X75466000Y-50531000D03*
G04 #@! TD*
D89*
G04 #@! TO.C,U49*
X111096000Y-141519000D03*
X111096000Y-142169000D03*
X111096000Y-142819000D03*
X111096000Y-143469000D03*
X116996000Y-143469000D03*
X116996000Y-142819000D03*
X116996000Y-142169000D03*
X116996000Y-141519000D03*
G04 #@! TD*
D80*
G04 #@! TO.C,U50*
X83718800Y-145796000D03*
X83218800Y-143896000D03*
X82718800Y-143896000D03*
D81*
X83468800Y-144846000D03*
D80*
X82718800Y-145796000D03*
X83218800Y-145796000D03*
X84218800Y-145796000D03*
X84218800Y-143896000D03*
X83718800Y-143896000D03*
G04 #@! TD*
D90*
G04 #@! TO.C,Y1*
X59944200Y-82792200D03*
X57744200Y-82792200D03*
X57744200Y-84492200D03*
X59944200Y-84492200D03*
G04 #@! TD*
G04 #@! TO.C,Y2*
X52444000Y-39121800D03*
X50244000Y-39121800D03*
X50244000Y-40821800D03*
X52444000Y-40821800D03*
G04 #@! TD*
D65*
G04 #@! TO.C,*
X59411200Y-69856200D03*
G04 #@! TD*
G04 #@! TO.C,*
X93411200Y-69856200D03*
G04 #@! TD*
G04 #@! TO.C,*
X93411200Y-103856200D03*
G04 #@! TD*
G04 #@! TO.C,*
X59411200Y-103856200D03*
G04 #@! TD*
M02*
